<svg width="110" height="14"><rect width="110" height="14" rx="7" ry="7" fill="#facd00"/><path d="M29 4a2 2 0 0 0-2 2v4h1V7h2v3h1V6a2 2 0 0 0-2-2m0 1a1 1 0 0 1 1 1h-2a1 1 0 0 1 1-1M39 5c-1.108 0-2 .892-2 2v1c0 1.108.892 2 2 2h2V9h-2c-.554 0-1-.446-1-1h3V7c0-1.108-.892-2-2-2m0 1c.554 0 1 .446 1 1h-2c0-.554.446-1 1-1M42 5v5h1V8a2 2 0 0 1 2-2V5a3 3 0 0 0-2 .766V5zM47 4v1h-1v1h1v2a2 2 0 0 0 2 2V9a1 1 0 0 1-1-1V6h1V5h-1V4zM52 5c-1.108 0-2 .892-2 2v1c0 1.108.892 2 2 2h2V9h-2c-.554 0-1-.446-1-1h3V7c0-1.108-.892-2-2-2m0 1c.554 0 1 .446 1 1h-2c0-.554.446-1 1-1" fill="#5d1c1c"/><rect width="26" height="9" x="56" y="3" rx="2" ry="2" fill="#5d1c1c"/><path d="M63 5a2 2 0 0 0-2 2v3h1V8h2v2h1V7a2 2 0 0 0-2-2m0 1a1 1 0 0 1 1 1h-2a1 1 0 0 1 1-1M68 5a2 2 0 0 0-2 2v2a1 1 0 0 0 1 1 3 3 0 0 0 1.559-.441L69 10h1V9l-.441-.441A3 3 0 0 0 70 7a2 2 0 0 0-2-2m0 1a1 1 0 0 1 1 1 2 2 0 0 1-.275 1H68v.725A2 2 0 0 1 67 9V7a1 1 0 0 1 1-1M71 5v3a2 2 0 0 0 2 2 2 2 0 0 0 2-2V5h-1v3a1 1 0 0 1-1 1 1 1 0 0 1-1-1V5z" fill="#facd00"/><path d="M32 5v6h1V8.727A2 2 0 0 0 34 9a2 2 0 0 0 2-2 2 2 0 0 0-2-2 2 2 0 0 0-1 .273V5Zm2 1a1 1 0 0 1 1 1 1 1 0 0 1-1 1 1 1 0 0 1-1-1 1 1 0 0 1 1-1" fill="#5d1c1c"/><path d="M76 5h1v5h-1z" fill="#facd00"/></svg>