<svg width="110" height="14"><rect width="110" height="14" rx="7" ry="7" fill="#facd00"/><path d="M28 4v6h1V8h1a2 2 0 0 0 0-4zm1 1h1a1 1 0 1 1 0 2h-1zM33 5v5h1V8a2 2 0 0 1 2-2V5a3 3 0 0 0-2 .766V5zM39 5c-1.108 0-2 .892-2 2v1c0 1.108.892 2 2 2h2V9h-2c-.554 0-1-.446-1-1h3V7c0-1.108-.892-2-2-2m0 1c.554 0 1 .446 1 1h-2c0-.554.446-1 1-1M43.5 5a1.5 1.5 0 0 0 0 3h1a.5.5 0 0 1 0 1H42v1h2.5a1.5 1.5 0 0 0 0-3h-1a.5.5 0 0 1 0-1H46V5zM48.5 5a1.5 1.5 0 0 0 0 3h1a.5.5 0 0 1 0 1H47v1h2.5a1.5 1.5 0 0 0 0-3h-1a.5.5 0 0 1 0-1H51V5z" fill="#5d1c1c"/><rect width="29" height="9" x="53" y="3" rx="2" ry="2" fill="#5d1c1c"/><path d="M59 5h-1v5h1V8h2v2h1V5h-1v2h-2zM63 5v5h4V9h-3V8h2V7h-2V6h3V5zM68 5v5h1V8h1a1 1 0 0 1 1 1v1h1V9a2 2 0 0 0-.678-1.5A2 2 0 0 0 72 6a1 1 0 0 0-1-1zm1 1h2a1 1 0 0 1-1 1h-1zM73 5v5h4V9h-3V8h2V7h-2V6h3V5z" fill="#facd00"/></svg>