<svg width="110" height="14"><rect width="110" height="14" rx="7" ry="7" fill="#facd00"/><path d="M61 3v1h1v3h-2v1h2v2a1 1 0 0 1-1 1v1a2 2 0 0 0 2-2V8h3v4h1V8h2V7h-2V4h1V3zm2 1h3v3h-3z" fill="#5d1c1c"/><path d="m70.5 11.5 3-3v-3h-3" fill="none" stroke="#5d1c1c" stroke-linecap="square" stroke-linejoin="miter"/><path d="m73.5 10.5-3-3 1.984-2 .016-2.031M77.5 3.5l-2 2v1h3l-.5-1" fill="none" stroke="#5d1c1c" stroke-linecap="square" stroke-linejoin="miter"/><path d="M75 8v4h4V8Zm1 1h2v2h-2z" fill="#5d1c1c"/><rect width="23" height="11" x="35" y="2" rx="2" ry="2" fill="#5d1c1c"/><path d="M40 3v3h-2v3h7V6h-4V5h5V4h-5V3zm-1 4h5v1h-5z" fill="#facd00"/><path d="m38.5 10.5-1 1M40.5 10.5l1 1M42.5 10.5l1 1M44.5 10.5l1 1" stroke="#facd00" stroke-linecap="square" stroke-linejoin="miter"/><path d="M51 3v1h-3v1h3v2h-4v1h4v3h-3v1h7v-1h-3V8h4V7h-4V5h3V4h-3V3z" fill="#facd00"/><path d="M54 9h1v3h-1zM48 9h1v3h-1z" fill="#facd00"/></svg>