<svg width="110" height="14"><rect width="110" height="14" rx="7" ry="7" fill="#facd00"/><path d="M31 4v6h1V8h1a2 2 0 0 0 0-4zm1 1h1a1 1 0 1 1 0 2h-1zM36 5v5h1V8a2 2 0 0 1 2-2V5a3 3 0 0 0-2 .766V5zM42 5c-1.108 0-2 .892-2 2v1c0 1.108.892 2 2 2h2V9h-2c-.554 0-1-.446-1-1h3V7c0-1.108-.892-2-2-2m0 1c.554 0 1 .446 1 1h-2c0-.554.446-1 1-1M45 5v5h1V6.5a.499.499 0 1 1 1 0V10h1V6.5a.499.499 0 1 1 1 0V10h1V6.5a1.5 1.5 0 0 0-2.498-1.117A1.5 1.5 0 0 0 46 5.086V5zM51 4v1h1V4zm0 2v4h1V6Z" fill="#5d1c1c"/><rect width="24" height="9" x="54" y="3" rx="2" ry="2" fill="#5d1c1c"/><path d="M61 5a2 2 0 0 0-2 2v2a1 1 0 0 0 1 1 3 3 0 0 0 1.559-.441L62 10h1V9l-.441-.441A3 3 0 0 0 63 7a2 2 0 0 0-2-2m0 1a1 1 0 0 1 1 1 2 2 0 0 1-.275 1H61v.725A2 2 0 0 1 60 9V7a1 1 0 0 1 1-1M64 5v3a2 2 0 0 0 2 2 2 2 0 0 0 2-2V5h-1v3a1 1 0 0 1-1 1 1 1 0 0 1-1-1V5zM71 5a2 2 0 0 0-2 2v3h1V8h2v2h1V7a2 2 0 0 0-2-2m0 1a1 1 0 0 1 1 1h-2a1 1 0 0 1 1-1" fill="#facd00"/></svg>