<svg width="110" height="14"><rect width="110" height="14" rx="7" ry="7" fill="#facd00"/><path d="M27 4h-1v6h1V7h2v3h1V4h-1v2h-2zM31 5v1h2a1 1 0 0 1 1 1h-1.5A1.5 1.5 0 0 0 31 8.5a1.5 1.5 0 0 0 1.5 1.5H35V7a2 2 0 0 0-2-2zm1.5 3H34v1h-1.5a.5.5 0 0 1-.5-.5.5.5 0 0 1 .5-.5M36 5v1a2 2 0 0 0 .68 1.5A2 2 0 0 0 36 9v1h1V9a1 1 0 0 1 1-1v2h1V8a1 1 0 0 1 1 1v1h1V9a2 2 0 0 0-.678-1.5A2 2 0 0 0 41 6V5h-1v1a1 1 0 0 1-1 1V5h-1v2a1 1 0 0 1-1-1V5zM42 10V5h1l1.5 2L46 5h1v5h-1V6.5l-1.5 2-1.5-2V10zM52 5v5h-1V8l-2 2h-1V5h1v3.5l2-2V5z" fill="#5d1c1c"/><rect width="30" height="9" x="54" y="3" rx="2" ry="2" fill="#5d1c1c"/><path d="M61 5c-1.108 0-2 .892-2 2v1c0 1.108.892 2 2 2s2-.892 2-2h-1c0 .554-.446 1-1 1s-1-.446-1-1V7c0-.554.446-1 1-1s1 .446 1 1h1c0-1.108-.892-2-2-2M64 5v5h1V8h1v.5c0 .831.669 1.5 1.5 1.5S69 9.331 69 8.5v-2c0-.831-.669-1.5-1.5-1.5S66 5.669 66 6.5V7h-1V5zm3.5 1c.277 0 .5.223.5.5v2a.499.499 0 1 1-1 0v-2c0-.277.223-.5.5-.5M71.5 5 70 8v2h1V9h2v1h1V8l-1.5-3zm.5 1 1 2h-2.13zM77 5a2 2 0 0 0-2 2v3h1V8h2v2h1V7a2 2 0 0 0-2-2m0 1a1 1 0 0 1 1 1h-2a1 1 0 0 1 1-1" fill="#facd00"/></svg>