<svg width="110" height="14"><rect width="110" height="14" rx="7" ry="7" fill="#facd00"/><path d="M30 4v6h1V8h1a2 2 0 0 0 0-4zm1 1h1a1 1 0 1 1 0 2h-1zM35 5v3a2 2 0 0 0 2 2 2 2 0 0 0 1-.273V10h1V5h-1v3a1 1 0 0 1-1 1 1 1 0 0 1-1-1V5z" fill="#5d1c1c"/><rect width="1" height="6" x="40" y="4" rx="0" ry="0" fill="#5d1c1c"/><path d="M43.5 5a1.5 1.5 0 0 0 0 3h1a.5.5 0 0 1 0 1H42v1h2.5a1.5 1.5 0 0 0 0-3h-1a.5.5 0 0 1 0-1H46V5zM47 5v1h2a1 1 0 0 1 1 1h-1.5A1.5 1.5 0 0 0 47 8.5a1.5 1.5 0 0 0 1.5 1.5H51V7a2 2 0 0 0-2-2zm1.5 3H50v1h-1.5a.5.5 0 0 1-.5-.5.5.5 0 0 1 .5-.5" fill="#5d1c1c"/><rect width="26" height="9" x="53" y="3" rx="2" ry="2" fill="#5d1c1c"/><path d="M60 5a2 2 0 0 0-2 2v3h1V8h2v2h1V7a2 2 0 0 0-2-2m0 1a1 1 0 0 1 1 1h-2a1 1 0 0 1 1-1M65 5a2 2 0 0 0-2 2v2a1 1 0 0 0 1 1 3 3 0 0 0 1.559-.441L66 10h1V9l-.441-.441A3 3 0 0 0 67 7a2 2 0 0 0-2-2m0 1a1 1 0 0 1 1 1 2 2 0 0 1-.275 1H65v.725A2 2 0 0 1 64 9V7a1 1 0 0 1 1-1M68 5v3a2 2 0 0 0 2 2 2 2 0 0 0 2-2V5h-1v3a1 1 0 0 1-1 1 1 1 0 0 1-1-1V5z" fill="#facd00"/><path d="M73 5h1v5h-1z" fill="#facd00"/></svg>