<svg width="474" height="66"><path d="M9,9h456v54H9z" fill="#071e38"/><path d="M9,9H465v3H9zm0,6H465v3H9zm0,6H465v3H9zm0,6H465v3H9zm0,6H465v3H9zm0,6H465v3H9zm0,6H465v3H9zm0,6H465v3H9z" fill="#102742"/><path d="M1.7573593,1.7573593A6,6 0 0 1 6,0h462A6,6 0 0 1 472.2426406,1.7573593L465,9h-456zM9,57h456L472.2426407,64.2426407,A6,6 0 0 1 468,66h-462A6,6 0 0 1 1.7573593,64.2426407z" fill="#6c6c7c"/><path d="M9,9v48L1.7573593,64.2426407A6,6 0 0 1 0,60v-54A6,6 0 0 1 1.7573593,1.7573593zM472.2426407,1.7573593A6,6 0 0 1 474,6v54A6,6 0 0 1 472.2426407,64.2426407L465,57v-48z" fill="#656573"/></svg>