<svg width="158" height="22"><path d="M3 19V3L.584.584A2 2 0 0 0 0 2v18c0 .554.222 1.055.584 1.416z" fill="#656573"/><path d="M3 19 .584 21.416C.945 21.778 1.446 22 2 22h154c.554 0 1.055-.222 1.416-.584L155 19Z" fill="#6c6c7c"/><path d="M157.416.584 155 3v16l2.416 2.416c.362-.361.584-.862.584-1.416V2c0-.554-.222-1.055-.584-1.416" fill="#656573"/><path d="M2 0C1.446 0 .945.222.584.584L3 3h152l2.416-2.416A2 2 0 0 0 156 0Z" fill="#6c6c7c"/><path d="M3 3h152v16H3z" fill="#071e38"/><path d="M3 3h152v1H3zm0 2h152v1H3zm0 2h152v1H3zm0 2h152v1H3zm0 2h152v1H3zm0 2h152v1H3zm0 2h152v1H3zm0 2h152v1H3z" fill="#102742"/></svg>