<?xml version="1.0" encoding="UTF-8" standalone="no"?>
<!-- Created with Inkscape (http://www.inkscape.org/) -->

<svg
   width="32"
   height="31.999998"
   viewBox="0 0 32 32"
   version="1.1"
   id="svg1"
   xml:space="preserve"
   xmlns="http://www.w3.org/2000/svg"
   xmlns:svg="http://www.w3.org/2000/svg"><defs
     id="defs1" /><g
     id="layer3"><ellipse
       style="opacity:1;fill:#ffffff;fill-opacity:1;stroke-width:3;stroke-linecap:square;stroke-miterlimit:5;paint-order:markers fill stroke"
       id="ellipse9"
       cx="16"
       cy="15.999999"
       rx="16"
       ry="15.999999" /><ellipse
       style="opacity:1;fill:#000000;fill-opacity:1;stroke-width:3;stroke-linecap:square;stroke-miterlimit:5;paint-order:markers fill stroke"
       id="ellipse10"
       cx="16"
       cy="15.999999"
       rx="13"
       ry="12.999999" /><ellipse
       style="opacity:1;fill:#ffffff;fill-opacity:1;stroke-width:3;stroke-linecap:square;stroke-miterlimit:5;paint-order:markers fill stroke"
       id="ellipse11"
       cx="16"
       cy="15.999999"
       rx="11"
       ry="10.999999" /><path
       id="path11"
       style="opacity:1;fill:#000000;fill-opacity:1;stroke-width:3;stroke-linecap:square;stroke-miterlimit:5;paint-order:markers fill stroke"
       d="M 7.333,9.9999986 V 21.999999 h 6 l 2,-2 v -3 l -1,-1 1,-1 v -3 l -2,-2.0000004 z m 2,2.0000004 h 3.33203 l 0.66797,0.66797 v 1.66406 l -0.66797,0.66797 H 9.333 Z m 0,5 h 3.33203 l 0.66797,0.66797 v 1.66406 l -0.66797,0.66797 H 9.333 Z" /><path
       id="path12"
       style="opacity:1;fill:#000000;fill-opacity:1;stroke-width:3;stroke-linecap:square;stroke-miterlimit:5;paint-order:markers fill stroke"
       d="m 18.667,12 h 3.33203 l 0.66797,0.66797 v 1.66406 L 21.99903,15 H 18.667 Z m 0,5 h 3.33203 L 22.667,17.66797 V 22 h 2 v -5 l -1,-1 1,-1 v -3 l -2,-2.0000005 h -6 V 22 h 2" /></g></svg>
