<?xml version="1.0" encoding="UTF-8" standalone="no"?>
<!-- Created with Inkscape (http://www.inkscape.org/) -->

<svg
   width="150"
   height="19"
   viewBox="0 0 150 18.999999"
   version="1.1"
   id="svg1"
   xml:space="preserve"
   xmlns="http://www.w3.org/2000/svg"
   xmlns:svg="http://www.w3.org/2000/svg"><defs
     id="defs1" /><path
     style="fill:#ffffff;stroke:none;stroke-width:2;stroke-linecap:round;stroke-linejoin:round;stroke-miterlimit:5;stroke-opacity:1;paint-order:markers stroke fill"
     d="M 45,14 H 43 V 5 h 2 l 2,2 2,-2 h 2 v 9 H 49 V 7.6666667 l -2,2 -2,-2 z"
     id="path3" /><path
     id="path4"
     style="fill:#ffffff;stroke:none;stroke-width:2;stroke-linecap:round;stroke-linejoin:round;stroke-miterlimit:5;stroke-opacity:1;paint-order:markers stroke fill"
     d="M 53.333,5 52,6.333 V 14 h 2 v -3 h 3 v 3 h 2 V 6.333 L 57.667,5 Z M 54,7 h 3 v 2 h -3 z" /><path
     style="fill:#ffffff;stroke:none;stroke-width:2;stroke-linecap:round;stroke-linejoin:round;stroke-miterlimit:5;stroke-opacity:1;paint-order:markers stroke fill"
     d="m 62,5 h -2 v 9 h 2 z"
     id="path5" /><path
     style="fill:#ffffff;stroke:none;stroke-width:2;stroke-linecap:round;stroke-linejoin:round;stroke-miterlimit:5;stroke-opacity:1;paint-order:markers stroke fill"
     d="m 63,5 h 2 l 3,2.9999999 V 5 h 2 v 9 H 68 V 10.667 L 65,7.6670001 V 14 h -2 z"
     id="path6" /><path
     style="fill:#ffffff;stroke:none;stroke-width:2;stroke-linecap:round;stroke-linejoin:round;stroke-miterlimit:5;stroke-opacity:1;paint-order:markers stroke fill"
     d="M 78,14 H 76 V 5 h 2 l 2,2 2,-2 h 2 v 9 H 82 V 7.6666667 l -2,2 -2,-2 z"
     id="path7" /><path
     style="fill:#ffffff;stroke:none;stroke-width:2;stroke-linecap:round;stroke-linejoin:round;stroke-miterlimit:5;stroke-opacity:1;paint-order:markers stroke fill"
     d="m 85,5 h 6 v 2 h -4 v 1.667 h 2 v 1.666 H 87 V 12 h 4 v 2 h -6 z"
     id="path8" /><path
     style="fill:#ffffff;stroke:none;stroke-width:2;stroke-linecap:round;stroke-linejoin:round;stroke-miterlimit:5;stroke-opacity:1;paint-order:markers stroke fill"
     d="m 92,5 h 2 l 3,2.9999999 V 5 h 2 v 9 H 97 V 10.667 L 94,7.6670001 V 14 h -2 z"
     id="path9" /><path
     style="fill:#ffffff;stroke:none;stroke-width:2;stroke-linecap:round;stroke-linejoin:round;stroke-miterlimit:5;stroke-opacity:1;paint-order:markers stroke fill"
     d="M 101.333,14 100,12.667 V 5 h 2 v 7 h 3 V 5 h 2 v 7.667 L 105.667,14 Z"
     id="path10" /></svg>
