<?xml version="1.0" encoding="UTF-8" standalone="no"?>
<!-- Created with Inkscape (http://www.inkscape.org/) -->

<svg
   width="150"
   height="19"
   viewBox="0 0 150 18.999999"
   version="1.1"
   id="svg1"
   xml:space="preserve"
   xmlns="http://www.w3.org/2000/svg"
   xmlns:svg="http://www.w3.org/2000/svg"><defs
     id="defs1" /><path
     style="fill:#ffffff;stroke:none;stroke-width:2;stroke-linecap:round;stroke-linejoin:round;stroke-miterlimit:5;stroke-opacity:1;paint-order:markers stroke fill"
     d="m 49.999997,17.333 h 13.999999 v -2 h -5.999999 v -4 h 3.999999 V 9.3329999 H 57.999997 V 6.333 h 4.999999 v -2 H 50.999997 v 2 h 5 v 2.9999999 h -4 V 11.333 h 4 v 4 h -6 z"
     id="path28" /><path
     style="fill:#ffffff;stroke:none;stroke-width:2;stroke-linecap:round;stroke-linejoin:round;stroke-miterlimit:5;stroke-opacity:1;paint-order:markers stroke fill"
     d="M 57.999997,3.333 V 2.667 L 56.667,1.333 h -2.004003 l 0.003,0.667 1.334,1.333 z"
     id="path29" /><path
     style="fill:#ffffff;stroke:none;stroke-width:2;stroke-linecap:round;stroke-linejoin:round;stroke-miterlimit:5;stroke-opacity:1;paint-order:markers stroke fill"
     d="m 75.33,18 h -1.663 v -4 l -4,4 h -2 v -1 l 3.666,-3 H 66.999996 V 12 H 73.667 v -1 h 1.663 v 1 h 6.669995 v 2 H 77.667 l 3.666,3 v 1 H 79.332497 L 75.33,14 Z"
     id="path30" /><path
     style="fill:#ffffff;stroke:none;stroke-width:2.05067;stroke-linecap:round;stroke-linejoin:round;stroke-miterlimit:5;stroke-opacity:1;paint-order:markers stroke fill"
     d="m 67.667,8.334 h 13.667 v -2 H 67.667 Z"
     id="path34" /><path
     style="fill:#ffffff;stroke:none;stroke-width:2;stroke-linecap:round;stroke-linejoin:round;stroke-miterlimit:5;stroke-opacity:1;paint-order:markers stroke fill"
     d="m 66.999996,4.667 h 4 v 1 h 2 v -1 h 2.999999 v 1 h 2 v -1 h 4 v -2 h -4 v -1 h -2 v 1 h -2.999999 v -1 h -2 v 1 h -4 z"
     id="path35" /><path
     style="fill:#ffffff;stroke:none;stroke-width:2;stroke-linecap:round;stroke-linejoin:round;stroke-miterlimit:5;stroke-opacity:1;paint-order:markers stroke fill"
     d="m 71.67,11.0005 v -0.667 L 70.337003,9.0005001 H 68.333 l 0.003,0.667 1.334,1.3329999 z"
     id="path36" /><path
     style="fill:#ffffff;stroke:none;stroke-width:2;stroke-linecap:round;stroke-linejoin:round;stroke-miterlimit:5;stroke-opacity:1;paint-order:markers stroke fill"
     d="M 76.004,10.667 V 10 L 74.671003,8.667 H 72.667 l 0.003,0.667 1.334,1.333 z"
     id="path37" /><path
     style="fill:#ffffff;stroke:none;stroke-width:2;stroke-linecap:round;stroke-linejoin:round;stroke-miterlimit:5;stroke-opacity:1;paint-order:markers stroke fill"
     d="M 77.333,11 V 10.333 L 78.665997,9 H 80.67 L 80.667,9.667 79.333,11 Z"
     id="path38" /><path
     id="path39"
     style="fill:#ffffff;stroke:none;stroke-width:2;stroke-linecap:round;stroke-linejoin:round;stroke-miterlimit:5;stroke-opacity:1;paint-order:markers stroke fill"
     d="m 87,4 v 8 h 4.667969 v 1 H 85 v 2 h 6.667969 v 3 h 1.664062 V 15 H 100 V 13 H 93.332031 V 12 H 98 V 4 Z m 2,2 h 2.667 V 7 H 89 Z m 4.333,0 H 96 V 7 H 93.333 Z M 89,9 h 2.667 v 1 H 89 Z m 4.333,0 H 96 v 1 h -2.667 z" /><path
     style="fill:#ffffff;stroke:none;stroke-width:2;stroke-linecap:round;stroke-linejoin:round;stroke-miterlimit:5;stroke-opacity:1;paint-order:markers stroke fill"
     d="M 93.999994,3.667 V 3 l 1.332997,-1.333 h 2.004003 l -0.003,0.667 -1.334,1.333 z"
     id="path43" /><path
     style="fill:#ffffff;stroke:none;stroke-width:2;stroke-linecap:round;stroke-linejoin:round;stroke-miterlimit:5;stroke-opacity:1;paint-order:markers stroke fill"
     d="M 90.999995,3.667 V 3 L 89.666998,1.667 h -2.004003 l 0.003,0.667 1.334,1.333 z"
     id="path44" /></svg>
