<?xml version="1.0" encoding="UTF-8" standalone="no"?>
<!-- Created with Inkscape (http://www.inkscape.org/) -->

<svg
   width="150"
   height="19"
   viewBox="0 0 150 18.999999"
   version="1.1"
   id="svg1"
   xml:space="preserve"
   xmlns="http://www.w3.org/2000/svg"
   xmlns:svg="http://www.w3.org/2000/svg"><defs
     id="defs1" /><path
     style="fill:#ffffff;stroke:none;stroke-width:2;stroke-linecap:round;stroke-linejoin:round;stroke-miterlimit:5;stroke-opacity:1;paint-order:markers stroke fill"
     d="m 28.333,14 h -2 V 5.0000001 h 2 l 2,2 2,-2 h 2 V 14 h -2 V 7.6666668 l -2,2 -2,-2 z"
     id="path3" /><path
     id="path4"
     style="fill:#ffffff;stroke:none;stroke-width:2;stroke-linecap:round;stroke-linejoin:round;stroke-miterlimit:5;stroke-opacity:1;paint-order:markers stroke fill"
     d="m 110.667,4.9999998 -1.334,1.3330001 V 14 h 2 v -3 h 3 v 3 h 2 V 6.3329999 L 115,4.9999998 Z m 0.666,2.0000001 h 3 v 2 h -3 z" /><path
     style="fill:#ffffff;stroke:none;stroke-width:2;stroke-linecap:round;stroke-linejoin:round;stroke-miterlimit:5;stroke-opacity:1;paint-order:markers stroke fill"
     d="m 81.333,4.9999998 h -2 V 14 h 2 z"
     id="path5" /><path
     style="fill:#ffffff;stroke:none;stroke-width:2;stroke-linecap:round;stroke-linejoin:round;stroke-miterlimit:5;stroke-opacity:1;paint-order:markers stroke fill"
     d="m 42.333,5 h 2 l 3,2.9999999 V 5 h 2 v 9 h -2 v -3.333 l -3,-2.9999999 V 14 h -2 z"
     id="path6" /><path
     style="fill:#ffffff;stroke:none;stroke-width:2;stroke-linecap:round;stroke-linejoin:round;stroke-miterlimit:5;stroke-opacity:1;paint-order:markers stroke fill"
     d="m 35.333,5.0000004 h 6 v 2 h -4 v 1.6669995 h 2 V 10.333 h -2 V 12 h 4 v 2 h -6 z"
     id="path8" /><path
     style="fill:#ffffff;stroke:none;stroke-width:2;stroke-linecap:round;stroke-linejoin:round;stroke-miterlimit:5;stroke-opacity:1;paint-order:markers stroke fill"
     d="m 82.333,4.9999998 h 2 l 3,2.9999999 V 4.9999998 h 2 V 14 h -2 v -3.333 l -3,-3.0000001 V 14 h -2 z"
     id="path9" /><path
     style="fill:#ffffff;stroke:none;stroke-width:2;stroke-linecap:round;stroke-linejoin:round;stroke-miterlimit:5;stroke-opacity:1;paint-order:markers stroke fill"
     d="M 51.667,14 50.333,12.667 V 5.0000002 h 2 V 12 h 3 V 5.0000002 h 2 V 12.667 L 56,14 Z"
     id="path10" /><path
     id="path12"
     style="fill:#ffffff;stroke:none;stroke-width:2;stroke-linecap:round;stroke-linejoin:round;stroke-miterlimit:5;stroke-opacity:1;paint-order:markers stroke fill"
     d="m 63.333,5 v 9 h 2 v -3 h 3.667969 L 70.333,9.6679688 V 6.3339844 L 69.000969,5 Z m 2,2 h 3 v 2 h -3 z" /><path
     id="path13"
     style="fill:#ffffff;stroke:none;stroke-width:2;stroke-linecap:round;stroke-linejoin:round;stroke-miterlimit:5;stroke-opacity:1;paint-order:markers stroke fill"
     d="m 71.333,5 v 9 h 2 v -3 h 2.334 l 0.665995,0.667 5e-6,2.333 h 2 V 11 L 77.667,10.3333 78.333,9.667 V 6.333 L 77,5 Z m 2,2 h 3 v 2 h -3 z" /><path
     style="fill:#ffffff;stroke:none;stroke-width:2;stroke-linecap:round;stroke-linejoin:round;stroke-miterlimit:5;stroke-opacity:1;paint-order:markers stroke fill"
     d="m 97.332994,11 h -2 v 1 H 92.332995 V 7 h 2.999999 v 0.9999999 h 2 L 97.333,6.333 96,5 h -4.333 l -1.334005,1.333 v 6.334 L 91.667,14 H 96 l 1.332994,-1.333 z"
     id="path14" /><path
     style="fill:#ffffff;stroke:none;stroke-width:2;stroke-linecap:round;stroke-linejoin:round;stroke-miterlimit:5;stroke-opacity:1;paint-order:markers stroke fill"
     d="m 100.33299,5 h -1.999996 v 9 h 1.999996 z"
     id="path15" /><path
     id="path16"
     style="fill:#ffffff;stroke:none;stroke-width:2;stroke-linecap:round;stroke-linejoin:round;stroke-miterlimit:5;stroke-opacity:1;paint-order:markers stroke fill"
     d="m 101.33299,5 v 9 h 2 v -3 h 3.66797 l 1.33203,-1.3320312 V 6.3339844 L 107.00096,5 Z m 2,2 h 3 v 2 h -3 z" /><path
     style="fill:#ffffff;stroke:none;stroke-width:2;stroke-linecap:round;stroke-linejoin:round;stroke-miterlimit:5;stroke-opacity:1;paint-order:markers stroke fill"
     d="m 123.33299,14 v -2 h -4 V 5 h -2 v 9 z"
     id="path17" /></svg>
