<?xml version="1.0" encoding="UTF-8" standalone="no"?>
<svg
   xml:space="preserve"
   width="39"
   height="30.999786"
   viewBox="0 0 39 30.999786"
   version="1.1"
   id="svg91"
   xmlns="http://www.w3.org/2000/svg"
   xmlns:svg="http://www.w3.org/2000/svg"><defs
     id="defs1" /><g
     transform="translate(10.227,-40.000214)"
     id="g45"><rect
       width="37"
       height="28"
       x="-9.2270002"
       y="43"
       rx="3"
       ry="3"
       style="fill:#31314b;fill-opacity:1;stroke-width:2;paint-order:stroke markers fill"
       id="rect42" /><path
       d="m -6.227,47 c -1.108,0 -2,0.892 -2,2 v 19 c 0,1.108 0.892,2 2,2 h 31 c 1.108,0 2,-0.892 2,-2 V 49 c 0,-1.108 -0.892,-2 -2,-2 z m 0,1 h 31 c 0.554,0 1,0.446 1,1 v 19 c 0,0.554 -0.446,1 -1,1 h -31 c -0.554,0 -1,-0.446 -1,-1 V 49 c 0,-0.554 0.446,-1 1,-1"
       style="fill:#595a6e;fill-opacity:1;stroke-width:2;paint-order:stroke markers fill"
       id="path42" /><path
       d="m 6.773,59 6,-4.5 -6,-4.5 z"
       style="fill:#ffffff;fill-opacity:1;stroke-width:2;paint-order:stroke markers fill"
       id="path43" /><rect
       width="39"
       height="3"
       x="10"
       y="43"
       rx="0"
       ry="0"
       style="fill:#4c4d62;fill-opacity:1;stroke-width:4;stroke-linecap:round;paint-order:stroke markers fill"
       transform="translate(-20.227)"
       id="rect43" /><path
       d="m 0.773,43 -3,3 h 6 l 3,-3 z m 11,0 -3,3 h 6 l 3,-3 z m 11,0 -3,3 h 6 l 3,-3 z"
       style="fill:#ffffff;fill-opacity:1;stroke-width:2;paint-order:stroke markers fill"
       id="path44" /><path
       d="m -8.743,41.327 -1.035,3.864 3.863,1.035 z"
       style="fill:#31314b;fill-opacity:1;stroke-width:2;paint-order:stroke markers fill"
       transform="rotate(-15,-10.226,43.001)"
       id="path45" /></g></svg>
