<svg xmlns="http://www.w3.org/2000/svg" xml:space="preserve" width="16" height="16" viewBox="0 0 16 16"><circle cx="8" cy="8" r="8" style="opacity:1;fill:#fff;fill-opacity:.231373;stroke-width:.667;stroke-linecap:round;stroke-linejoin:round;paint-order:markers fill stroke"/><path d="M11.471 4.808a8.2 8.2 0 0 0-2.063-.642 6 6 0 0 0-.264.543 7.7 7.7 0 0 0-2.287 0 6 6 0 0 0-.267-.543 8.2 8.2 0 0 0-2.065.644c-1.306 1.954-1.66 3.86-1.483 5.739a8.3 8.3 0 0 0 2.53 1.284q.307-.416.543-.884a5.4 5.4 0 0 1-.854-.411q.108-.08.21-.164c1.645.762 3.433.762 5.058 0q.104.084.21.164-.406.243-.855.412.234.466.542.884a8.3 8.3 0 0 0 2.532-1.285c.207-2.178-.355-4.067-1.487-5.74M6.339 9.393c-.494 0-.9-.456-.9-1.013s.397-1.013.9-1.013c.502 0 .907.456.899 1.013 0 .557-.397 1.013-.9 1.013m3.322 0c-.494 0-.899-.456-.899-1.013s.397-1.013.9-1.013c.502 0 .907.456.898 1.013 0 .557-.396 1.013-.899 1.013" style="fill:#fff;stroke-width:.136435"/></svg>