<svg xmlns="http://www.w3.org/2000/svg" xml:space="preserve" width="16" height="16" viewBox="0 0 16 16"><circle cx="8" cy="8" r="8" style="opacity:1;fill:#fff;fill-opacity:.231373;stroke-width:.667;stroke-linecap:round;stroke-linejoin:round;paint-order:markers fill stroke"/><path d="M8 2a6 6 0 0 0-6 6 6 6 0 0 0 6 6 6 6 0 0 0 6-6 6 6 0 0 0-6-6m0 1a5 5 0 0 1 5 5 5 5 0 0 1-5 5 5 5 0 0 1-5-5 5 5 0 0 1 5-5m0 1L7 5h1L6 7l1 1h1l1 1v1l-1 1-.889.889A4 4 0 0 0 8 12a4 4 0 0 0 4-4h-1V6l-1-1-.822-.822A4 4 0 0 0 9 4.127V5ZM4.725 5.725A4 4 0 0 0 4 8a4 4 0 0 0 3 3.865V10L6 9V8L5 7V6Z" style="opacity:1;fill:#fff;fill-opacity:1;stroke-width:.667;stroke-linecap:round;stroke-linejoin:round;paint-order:markers fill stroke"/></svg>