<svg xmlns="http://www.w3.org/2000/svg" xml:space="preserve" width="16" height="16" viewBox="0 0 16 16"><rect width="16" height="16" rx="4" ry="4" style="opacity:1;fill:#fff;fill-opacity:1;stroke-width:.667;stroke-linecap:round;stroke-linejoin:round;paint-order:markers fill stroke"/><path d="M9.666 8.334 8.334 9.666l1.344 1.344a2 2 0 0 0-.012.156 1.5 1.5 0 0 0 1.5 1.5 1.5 1.5 0 0 0 1.5-1.5 1.5 1.5 0 0 0-1.5-1.5 2 2 0 0 0-.156.012zm1.5 2.332a.5.5 0 0 1 .5.5.5.5 0 0 1-.5.5.5.5 0 0 1-.5-.5.5.5 0 0 1 .5-.5" style="opacity:1;fill:#cf0407;fill-opacity:1;stroke-width:.667;stroke-linecap:round;stroke-linejoin:round;paint-order:markers fill stroke"/><path d="m5.666 3.666.001.667L7.333 6 6 7.333 4.333 5.667l-.667-.001v.5c0 1.787 1.823 2.997 3.47 2.303h.003l1.195 1.197 1.332-1.332-1.197-1.195v-.002c.694-1.647-.516-3.47-2.303-3.47Z" style="opacity:1;fill:#a2a2a2;fill-opacity:1;stroke-width:.667;stroke-linecap:round;stroke-linejoin:round;paint-order:markers fill stroke"/></svg>