<svg xmlns="http://www.w3.org/2000/svg" xml:space="preserve" width="24" height="24" viewBox="0 0 24 24"><path d="M4 0C1.784 0 0 1.784 0 4v16c0 2.216 1.784 4 4 4h20V0Z" style="opacity:1;fill:#59c135;fill-opacity:1;stroke-width:.667;stroke-linecap:round;stroke-linejoin:round;paint-order:markers fill stroke"/><path d="M12 2A10 10 0 0 0 2 12a10 10 0 0 0 10 10 10 10 0 0 0 10-10A10 10 0 0 0 12 2m0 1a9 9 0 0 1 9 9 9 9 0 0 1-9 9 9 9 0 0 1-9-9 9 9 0 0 1 9-9m-.932 1.068-.146.01L10 5H9l1 1 1-1 1 1-3 3H7v1l2 2h2l1 1h1l1 1h1v2l-1 1h-1v1l-1.934 1.934q.466.06.934.066a8 8 0 0 0 8-8h-2l-1-1V9l1-1h.918a8 8 0 0 0-.676-1H18l-1 1-1-1V5.074L15.867 5H15v-.414a8 8 0 0 0-1.922-.508L14 5h-2ZM7.797 5.203A8 8 0 0 0 4 12a8 8 0 0 0 6.922 7.922L10 19v-3l-1-1v-2l-3-3V7Z" style="opacity:1;fill:#fff;fill-opacity:1;stroke-width:.667;stroke-linecap:round;stroke-linejoin:round;paint-order:markers fill stroke"/></svg>