<?xml version="1.0" encoding="UTF-8" standalone="no"?>
<svg
   xml:space="preserve"
   width="16"
   height="16"
   viewBox="0 0 16 16"
   version="1.1"
   id="svg2"
   xmlns="http://www.w3.org/2000/svg"
   xmlns:svg="http://www.w3.org/2000/svg"><defs
     id="defs2" /><rect
     width="16"
     height="16"
     rx="4"
     ry="4"
     style="opacity:1;fill:#ffffff;fill-opacity:1;stroke-width:0.667;stroke-linecap:round;stroke-linejoin:round;paint-order:markers fill stroke"
     id="rect1"
     x="0"
     y="0" /><path
     d="M 9.666,8.334 8.334,9.666 9.678,11.01 a 2,2 0 0 0 -0.012,0.156 1.5,1.5 0 0 0 1.5,1.5 1.5,1.5 0 0 0 1.5,-1.5 1.5,1.5 0 0 0 -1.5,-1.5 2,2 0 0 0 -0.156,0.012 z m 1.5,2.332 a 0.5,0.5 0 0 1 0.5,0.5 0.5,0.5 0 0 1 -0.5,0.5 0.5,0.5 0 0 1 -0.5,-0.5 0.5,0.5 0 0 1 0.5,-0.5"
     style="opacity:1;fill:#cf0407;fill-opacity:1;stroke-width:0.667;stroke-linecap:round;stroke-linejoin:round;paint-order:markers fill stroke"
     id="path1" /><path
     d="M 5.666,3.666 5.667,4.333 7.333,6 6,7.333 4.333,5.667 3.666,5.666 v 0.5 c 8.21e-4,1.7873886 1.8226364,2.996507 3.47,2.303 H 7.139 L 8.334,9.666 9.666,8.334 8.469,7.139 V 7.137 C 9.162507,5.4896364 7.9533886,3.667821 6.166,3.667 Z"
     style="opacity:1;fill:#a2a2a2;fill-opacity:1;stroke-width:0.667;stroke-linecap:round;stroke-linejoin:round;paint-order:markers fill stroke"
     id="path2" /></svg>
