<?xml version="1.0" encoding="UTF-8" standalone="no"?>
<svg
   xml:space="preserve"
   width="16"
   height="16"
   viewBox="0 0 16 16"
   version="1.1"
   id="svg1"
   xmlns="http://www.w3.org/2000/svg"
   xmlns:svg="http://www.w3.org/2000/svg"><defs
     id="defs1" /><rect
     width="16"
     height="16"
     rx="4"
     ry="4"
     style="opacity:1;fill:#ffffff;fill-opacity:0.231373;stroke-width:0.667;stroke-linecap:round;stroke-linejoin:round;paint-order:markers fill stroke"
     id="rect1"
     x="0"
     y="0" /><path
     d="M 5.667,3.667 V 4.333 L 7.333,6 6,7.333 4.333,5.667 H 3.667 v 0.5 c 0.00154,1.7869594 1.8230318,2.9953412 3.47,2.302 h 0.002 l 2.54,2.541 c -0.00606,0.05216 -0.010062,0.104529 -0.012,0.157 0,0.828427 0.671573,1.5 1.5,1.5 0.828427,0 1.5,-0.671573 1.5,-1.5 0,-0.828427 -0.671573,-1.5 -1.5,-1.5 -0.05246,0.00161 -0.104831,0.00527 -0.157,0.011 L 8.47,7.14 V 7.138 C 9.163507,5.4906364 7.9543886,3.668821 6.167,3.668 Z m 5.5,7 c 0.276142,0 0.5,0.223858 0.5,0.5 0,0.276142 -0.223858,0.5 -0.5,0.5 -0.276142,0 -0.5,-0.223858 -0.5,-0.5 0,-0.276142 0.223858,-0.5 0.5,-0.5"
     style="opacity:1;fill:#ffffff;fill-opacity:1;stroke-width:0.667;stroke-linecap:round;stroke-linejoin:round;paint-order:markers fill stroke"
     id="path1" /></svg>
