<svg xmlns="http://www.w3.org/2000/svg" viewBox="0 0 57 60"><defs><clipPath id="0"><circle cx="28.5" cy="28.5" r="25.5"/></clipPath></defs><rect width="57" height="60" rx="28.5" opacity=".216"/><circle cx="28.5" cy="28.5" r="28.5" fill="#fff"/><path d="M36 6h6V19H36z"/><path d="M24 27V18H45V27z" fill="#8d5afd"/><path d="M9 24Q36 24 48 27v6q0 6-6 6H30Q12 39 9 24z" fill="#4a229f"/><ellipse cx="31" cy="15" rx="4" ry="6"/><ellipse cx="38" cy="15" rx="4" ry="6"/><circle cx="37.5" cy="13.5" r="2" fill="#fff"/><circle cx="31.5" cy="13.5" r="2" fill="#fff"/><g clip-path="url(#0)"><path d="M4.5 39c4.5 0 6.5-3 7.5-3s3 3 7.5 3 6.5-3 7.5-3 3 3 7.5 3 6.5-3 7.5-3 3 3 7.5 3 6.5-3 7.5-3V57H0z" fill="#8d5afd" stroke="#fff" stroke-width="6" paint-order="stroke"/></g></svg>