<svg xmlns="http://www.w3.org/2000/svg" viewBox="0 0 23 25"><g stroke-width="2"><rect width="23" height="10" y="15" fill-opacity=".216" rx="4" ry="4"/><rect width="23" height="23" fill="#fff" rx="4" ry="4"/><path fill="#a8a8a8" d="M10.5 4A6.5 6.5 0 0 0 4 10.5a6.5 6.5 0 0 0 6.5 6.5 6.5 6.5 0 0 0 2.994-.748l-.035.035 2.127 2.127a2 2 0 0 0 2.828-2.828l-2.127-2.127-.035.035A6.5 6.5 0 0 0 17 10.5 6.5 6.5 0 0 0 10.5 4m0 2a4.5 4.5 0 0 1 4.5 4.5 4.5 4.5 0 0 1-4.5 4.5A4.5 4.5 0 0 1 6 10.5 4.5 4.5 0 0 1 10.5 6"/><path fill="#949494" d="M10.5 5A5.5 5.5 0 0 0 5 10.5a5.5 5.5 0 0 0 5.5 5.5 5.5 5.5 0 0 0 5.5-5.5A5.5 5.5 0 0 0 10.5 5m0 1a4.5 4.5 0 0 1 4.5 4.5 4.5 4.5 0 0 1-4.5 4.5A4.5 4.5 0 0 1 6 10.5 4.5 4.5 0 0 1 10.5 6"/><path fill="#f2b617" d="M17.012 14.184a7.5 7.5 0 0 1-2.828 2.828l1.402 1.402a2 2 0 0 0 2.828-2.828c-.47-.463-.935-.934-1.402-1.402"/></g></svg>