<?xml version="1.0" encoding="UTF-8" standalone="no"?>
<!-- Created with Inkscape (http://www.inkscape.org/) -->

<svg
   width="132"
   height="38"
   viewBox="0 0 132 37.999999"
   version="1.1"
   id="svg1"
   xml:space="preserve"
   xmlns="http://www.w3.org/2000/svg"
   xmlns:svg="http://www.w3.org/2000/svg"><defs
     id="defs1" /><rect
     style="fill:#000000;fill-opacity:0.117647;fill-rule:evenodd;stroke-linecap:square;stroke-miterlimit:5;paint-order:markers stroke fill"
     id="rect23"
     width="132"
     height="5.9999981"
     x="0"
     y="32.000004"
     rx="1.9999983"
     ry="1.9999983" /><path
     id="rect24"
     style="fill:#c73d47;fill-opacity:1;fill-rule:evenodd;stroke-linecap:square;stroke-miterlimit:5;paint-order:markers stroke fill"
     d="M 7,4.1137697e-6 H 2 C 0.892,4.1137697e-6 0,0.89200611 0,2.0000041 V 34.000004 c 0,1.108 0.892,2 2,2 h 5 z" /><path
     id="path24"
     style="fill:#ffffff;fill-opacity:1;fill-rule:evenodd;stroke-linecap:square;stroke-miterlimit:5;paint-order:markers stroke fill"
     d="M 7,4.1137697e-6 V 36.000004 h 123 c 1.108,0 2,-0.892 2,-2 V 2.0000041 C 132,0.89200611 131.108,4.1137697e-6 130,4.1137697e-6 Z" /><rect
     style="fill:#464656;fill-opacity:1;fill-rule:evenodd;stroke-linecap:square;stroke-miterlimit:5;paint-order:markers stroke fill"
     id="rect25"
     width="51"
     height="29"
     x="77"
     y="3.0000041" /><rect
     style="fill:#595969;fill-opacity:1;fill-rule:evenodd;stroke-linecap:square;stroke-miterlimit:5;paint-order:markers stroke fill"
     id="rect26"
     width="49"
     height="27"
     x="78"
     y="4.0000043" /><path
     id="rect27"
     style="fill:#4e4e5f;fill-opacity:1;fill-rule:evenodd;stroke-linecap:square;stroke-miterlimit:5;paint-order:markers stroke fill"
     d="m 78,5.0000041 v 1 h 49 v -1 z m 0,2 v 1 h 49 v -1 z m 0,2 v 0.9999999 h 49 V 9.0000041 Z m 0,1.9999999 v 1 h 49 v -1 z m 0,2 v 1 h 49 v -1 z m 0,2 v 1 h 49 v -1 z m 0,2 v 1 h 49 v -1 z m 0,2 v 1 h 49 v -1 z m 0,2 v 1 h 49 v -1 z m 0,2 v 1 h 49 v -1 z m 0,2 v 1 h 49 v -1 z m 0,2 v 1 h 49 v -1 z m 0,2 v 1 h 49 v -1 z" /></svg>
