<svg xmlns="http://www.w3.org/2000/svg" viewBox="0 0 20 22"><rect width="20" height="10" y="12" fill-opacity=".216" rx="4" ry="4"/><rect width="20" height="20" fill="#fff" fill-opacity=".964" rx="4" ry="4"/><path fill="#f0a078" d="M4.5 3a.5.5 0 0 0-.5.5.81.81 0 0 0 .447.723L5 4.5V6a1 1 0 0 0 1 1v6c0 1.662 1.338 3 3 3h2c1.662 0 3-1.338 3-3V7a1 1 0 0 0 1-1V4.5l.553-.277A.81.81 0 0 0 16 3.5a.5.5 0 0 0-.5-.5h-1a1.2 1.2 0 0 0-.854.354l-.939.939A2.4 2.4 0 0 0 12 6H8a2.4 2.4 0 0 0-.707-1.707l-.94-.94A1.2 1.2 0 0 0 5.5 3z"/><rect width="1" height="2" x="8" y="7.5" fill="#fff" rx=".5" ry=".5"/><rect width="1" height="2" x="11" y="7.5" fill="#fff" rx=".5" ry=".5"/><circle cx="8.5" cy="9" r=".5"/><circle cx="11.5" cy="9" r=".5"/><rect width="4" height="1" x="8" y="13.5" rx=".5" ry=".5"/><rect width="2" height="1.5" x="9" y="11.5" rx=".75" ry=".75"/><rect width=".75" height="1.5" x="9.625" y="12.5" ry="0"/></svg>