<svg xmlns="http://www.w3.org/2000/svg" viewBox="0 0 21 23"><path fill-opacity=".216" d="M0 10.5v2C0 18.299 4.701 23 10.5 23S21 18.299 21 12.5v-2z"/><circle cx="10.5" cy="10.5" r="10.5" fill="#fff"/><rect width="11" height="8" x="5" y="10" fill="#077eeb" rx="0" ry="0"/><path fill="#fff" d="M8 11h5v6H8z"/><path fill="#2277ba" d="M6 6h9v4H6z"/><path fill="#fff" d="M7 7h7v3H7z"/><rect width="4" height="5" x="10" y="3" rx="2" ry="2"/><rect width="2" height="3" x="11" y="4" fill="#fff" rx="1" ry="1"/><rect width="1" height="1" x="11" y="5" rx="0" ry="0"/><rect width="4" height="5" x="7" y="3" rx="2" ry="2"/><rect width="2" height="3" x="8" y="4" fill="#fff" rx="1" ry="1"/><rect width="1" height="1" x="8" y="5" rx="0" ry="0"/></svg>