<?xml version="1.0" encoding="UTF-8"?><svg version="1.1" viewBox="0 0 20 22" xmlns="http://www.w3.org/2000/svg"><rect x="-1e-7" y="2" width="20" height="20" rx="4" ry="4" fill-opacity=".21569" /><rect x="-1e-7" width="20" height="20" rx="4" ry="4" fill="#fff" /><path d="m4 1c-1.662 0-3 1.338-3 3v12c0 1.662 1.338 3 3 3h12c1.662 0 3-1.338 3-3v-12c0-1.662-1.338-3-3-3zm0 1h12c1.108 0 2 0.892 2 2v12c0 1.108-0.892 2-2 2h-12c-1.108 0-2-0.892-2-2v-12c0-1.108 0.892-2 2-2z" fill="#d0cfd0" /><path d="m17 16c-0.34203-1.5806-1.2428-2.6682-3-3v3z" fill="#0985a9" /><path d="m6.8027 7a4 10 0 0 0-0.80273 6v3h8v-3a4 10 0 0 0-0.80078-6z" fill="#46d4c4" /><path d="m3 16c0.33184-1.7572 1.4194-2.658 3-3v3z" fill="#0985a9" /><path d="m10 3c-1.3174 1.2463-2.6196 2.2858-3.1973 4h6.3965c-0.41414-1.74-1.9822-2.7829-3.1992-4z" fill="#f75668" /><circle cx="10" cy="10.5" r="2.5" fill="#0985a9" /><circle cx="10" cy="10.5" r="1.5" fill="#fff" /></svg>