<?xml version="1.0" encoding="UTF-8" standalone="no"?>
<!-- Created with Inkscape (http://www.inkscape.org/) -->

<svg
   width="132"
   height="38"
   viewBox="0 0 132 37.999999"
   version="1.1"
   id="svg1"
   xml:space="preserve"
   xmlns="http://www.w3.org/2000/svg"
   xmlns:svg="http://www.w3.org/2000/svg"><defs
     id="defs1" /><path
     id="path39"
     style="fill:#919191;fill-opacity:1;fill-rule:evenodd;stroke-linecap:square;stroke-miterlimit:5;paint-order:markers stroke fill"
     d="M 7,8.6181644e-6 H 2 C 0.892,8.6181644e-6 0,0.89200862 0,2.0000086 V 34.000009 c 0,1.108 0.892,2 2,2 h 5 z" /><path
     id="path40"
     style="fill:#ffffff;fill-opacity:1;fill-rule:evenodd;stroke-linecap:square;stroke-miterlimit:5;paint-order:markers stroke fill"
     d="M 7,8.6181644e-6 V 36.000009 h 123 c 1.108,0 2,-0.892 2,-2 V 2.0000086 C 132,0.89200862 131.108,8.6181644e-6 130,8.6181644e-6 Z" /><rect
     style="fill:#848484;fill-opacity:1;fill-rule:evenodd;stroke-linecap:square;stroke-miterlimit:5;paint-order:markers stroke fill"
     id="rect40"
     width="51"
     height="29"
     x="77"
     y="2.9999933" /><rect
     style="fill:#919191;fill-opacity:1;fill-rule:evenodd;stroke-linecap:square;stroke-miterlimit:5;paint-order:markers stroke fill"
     id="rect41"
     width="49"
     height="27"
     x="78"
     y="3.9999933" /><path
     id="path41"
     style="fill:#898989;fill-opacity:1;fill-rule:evenodd;stroke-linecap:square;stroke-miterlimit:5;paint-order:markers stroke fill"
     d="m 78,5.0000086 v 1 h 49 v -1 z m 0,2 v 1 h 49 v -1 z m 0,2 v 1.0000004 h 49 V 9.0000086 Z m 0,2.0000004 v 1 h 49 v -1 z m 0,2 v 1 h 49 v -1 z m 0,2 v 1 h 49 v -1 z m 0,2 v 1 h 49 v -1 z m 0,2 v 1 h 49 v -1 z m 0,2 v 1 h 49 v -1 z m 0,2 v 1 h 49 v -1 z m 0,2 v 1 h 49 v -1 z m 0,2 v 1 h 49 v -1 z m 0,2 v 1 h 49 v -1 z" /></svg>
