<?xml version="1.0" encoding="UTF-8"?><svg version="1.1" viewBox="0 0 20 22" xmlns="http://www.w3.org/2000/svg"><rect y="12" width="20" height="10" rx="4" ry="4" fill-opacity=".21569" /><rect y="7.9863e-8" width="20" height="20" rx="4" ry="4" fill="#fff" fill-opacity=".96429" /><path d="m4.5 3a0.5 0.5 0 0 0-0.5 0.5 0.80902 0.80902 0 0 0 0.44727 0.72266l0.55273 0.27734v1.5a1 1 0 0 0 1 1v6c0 1.662 1.338 3 3 3h2c1.662 0 3-1.338 3-3v-6a1 1 0 0 0 1-1v-1.5l0.55273-0.27734a0.80902 0.80902 0 0 0 0.44727-0.72266 0.5 0.5 0 0 0-0.5-0.5h-1a1.2071 1.2071 0 0 0-0.85352 0.35352l-0.93945 0.93945a2.4142 2.4142 0 0 0-0.70703 1.707h-4a2.4142 2.4142 0 0 0-0.70703-1.707l-0.93945-0.93945a1.2071 1.2071 0 0 0-0.85352-0.35352z" fill="#f0a078" /><rect x="8" y="7.5" width="1" height="2" rx=".5" ry=".5" fill="#fff" /><rect x="11" y="7.5" width="1" height="2" rx=".5" ry=".5" fill="#fff" /><circle cx="8.5" cy="9" r=".5" /><circle cx="11.5" cy="9" r=".5" /><rect x="8" y="13.5" width="4" height="1" rx=".5" ry=".5" /><rect x="9" y="11.5" width="2" height="1.5" rx=".75" ry=".75" /><rect x="9.625" y="12.5" width=".75" height="1.5" ry="0" /></svg>