<?xml version="1.0" encoding="UTF-8"?><svg version="1.1" viewBox="0 0 23 25" xmlns="http://www.w3.org/2000/svg"><g transform="translate(0 -.00030144)" stroke-width="2"><rect y="15" width="23" height="10" rx="4" ry="4" fill-opacity=".21569" /><rect y=".00030144" width="23" height="23" rx="4" ry="4" fill="#fff" /><path d="m10.5 4.0003a6.5 6.5 0 0 0-6.5 6.5 6.5 6.5 0 0 0 6.5 6.5 6.5 6.5 0 0 0 2.9941-0.74805l-0.0352 0.03516 2.127 2.127c0.78101 0.78085 2.0471 0.78085 2.8281 0 0.78085-0.78101 0.78085-2.0471 0-2.8281l-2.127-2.127-0.0352 0.03516a6.5 6.5 0 0 0 0.74813-2.9941 6.5 6.5 0 0 0-6.5-6.5zm0 2a4.5 4.5 0 0 1 4.5 4.5 4.5 4.5 0 0 1-4.5 4.5 4.5 4.5 0 0 1-4.5-4.5 4.5 4.5 0 0 1 4.5-4.5z" fill="#a8a8a8" /><path d="m10.5 5.0003a5.5 5.5 0 0 0-5.5 5.5 5.5 5.5 0 0 0 5.5 5.5 5.5 5.5 0 0 0 5.5-5.5 5.5 5.5 0 0 0-5.5-5.5zm0 1a4.5 4.5 0 0 1 4.5 4.5 4.5 4.5 0 0 1-4.5 4.5 4.5 4.5 0 0 1-4.5-4.5 4.5 4.5 0 0 1 4.5-4.5z" fill="#949494" /><path d="m17.012 14.184c-0.66933 1.1813-1.6468 2.1588-2.8281 2.8281l1.4023 1.4023c0.78102 0.78085 2.0471 0.78085 2.8281 0 0.78085-0.78101 0.78085-2.0471 0-2.8281-0.47096-0.46346-0.93562-0.9343-1.4023-1.4023z" fill="#f2b617" /></g></svg>