<svg xmlns="http://www.w3.org/2000/svg" viewBox="0 0 20 22"><rect width="20" height="20" y="2" fill-opacity=".216" rx="4" ry="4"/><rect width="20" height="20" fill="#fff" rx="4" ry="4"/><path fill="#d0cfd0" d="M4 1C2.338 1 1 2.338 1 4v12c0 1.662 1.338 3 3 3h12c1.662 0 3-1.338 3-3V4c0-1.662-1.338-3-3-3zm0 1h12c1.108 0 2 .892 2 2v12c0 1.108-.892 2-2 2H4c-1.108 0-2-.892-2-2V4c0-1.108.892-2 2-2"/><path fill="#0985a9" d="M17 16c-.342-1.58-1.243-2.668-3-3v3z"/><path fill="#46d4c4" d="M6.803 7A4 10 0 0 0 6 13v3h8v-3a4 10 0 0 0-.8-6z"/><path fill="#0985a9" d="M3 16c.332-1.757 1.42-2.658 3-3v3z"/><path fill="#f75668" d="M10 3C8.683 4.246 7.38 5.286 6.803 7h6.396C12.785 5.26 11.217 4.217 10 3"/><circle cx="10" cy="10.5" r="2.5" fill="#0985a9"/><circle cx="10" cy="10.5" r="1.5" fill="#fff"/></svg>