<?xml version="1.0" encoding="UTF-8"?><svg version="1.1" viewBox="0 0 11 9" xmlns="http://www.w3.org/2000/svg"><path d="m5 0a3 3 0 0 0-3 3v1a3 3 0 0 0 3 3h1a3 3 0 0 0 3-3v-1a3 3 0 0 0-3-3zm0 1h1a2 2 0 0 1 2 2v1a2 2 0 0 1-2 2h-1a2 2 0 0 1-2-2v-1a2 2 0 0 1 2-2z" fill="#fdfdfd" fill-opacity=".56078" /><path d="m5 1a2 2 0 0 0-2 2v1a2 2 0 0 0 2 2h1a2 2 0 0 0 2-2v-1a2 2 0 0 0-2-2z" fill="#fefefe" fill-opacity=".33726" /><path d="m3 0a3 3 0 0 0-3 3v1a5 5 0 0 0 5 5h1a5 5 0 0 0 5-5v-1a3 3 0 0 0-3-3h-2a3 3 0 0 1 3 3v1a3 3 0 0 1-3 3h-1a3 3 0 0 1-3-3v-1a3 3 0 0 1 3-3z" fill-opacity=".13726" /></svg>