<svg xmlns="http://www.w3.org/2000/svg" viewBox="0 0 11 9"><path fill="#fdfdfd" fill-opacity=".561" d="M5 0a3 3 0 0 0-3 3v1a3 3 0 0 0 3 3h1a3 3 0 0 0 3-3V3a3 3 0 0 0-3-3zm0 1h1a2 2 0 0 1 2 2v1a2 2 0 0 1-2 2H5a2 2 0 0 1-2-2V3a2 2 0 0 1 2-2"/><path fill="#fefefe" fill-opacity=".337" d="M5 1a2 2 0 0 0-2 2v1a2 2 0 0 0 2 2h1a2 2 0 0 0 2-2V3a2 2 0 0 0-2-2z"/><path fill-opacity=".137" d="M3 0a3 3 0 0 0-3 3v1a5 5 0 0 0 5 5h1a5 5 0 0 0 5-5V3a3 3 0 0 0-3-3H6a3 3 0 0 1 3 3v1a3 3 0 0 1-3 3H5a3 3 0 0 1-3-3V3a3 3 0 0 1 3-3z"/></svg>