<svg xmlns="http://www.w3.org/2000/svg" xml:space="preserve" width="180" height="252" viewBox="0 0 180 252"><path d="m842.84.09 5.614 10.19 10.68 4.617-7.957 8.489-1.091 11.583-10.532-4.944-11.353 2.542 1.447-11.544-5.926-10.012 11.426-2.19z" style="fill:#ff0;stroke:#ffd600;stroke-width:36.4805;stroke-linecap:round;stroke-linejoin:miter;stroke-miterlimit:5;stroke-dasharray:none;stroke-opacity:1;paint-order:markers stroke fill" transform="matrix(-.00804 .01167 -.01166 -.00804 157.994 226.249)"/><path d="m842.84.09 5.614 10.19 10.68 4.617-7.957 8.489-1.091 11.583-10.532-4.944-11.353 2.542 1.447-11.544-5.926-10.012 11.426-2.19z" style="fill:#ff0;stroke:#ffd600;stroke-width:18.794;stroke-linecap:round;stroke-linejoin:miter;stroke-miterlimit:5;stroke-dasharray:none;stroke-opacity:1;paint-order:markers stroke fill" transform="rotate(144.366 31.695 136.59)scale(.0275)skewY(-.033)"/><path d="m842.84.09 5.614 10.19 10.68 4.617-7.957 8.489-1.091 11.583-10.532-4.944-11.353 2.542 1.447-11.544-5.926-10.012 11.426-2.19z" style="fill:#ff0;stroke:#ffd600;stroke-width:14.552;stroke-linecap:round;stroke-linejoin:miter;stroke-miterlimit:5;stroke-dasharray:none;stroke-opacity:1;paint-order:markers stroke fill" transform="matrix(-.01482 .0323 -.03227 -.01483 128.409 209.133)"/><path d="m842.84.09 5.614 10.19 10.68 4.617-7.957 8.489-1.091 11.583-10.532-4.944-11.353 2.542 1.447-11.544-5.926-10.012 11.426-2.19z" style="fill:#ff0;stroke:#ffd600;stroke-width:29.7416;stroke-linecap:round;stroke-linejoin:miter;stroke-miterlimit:5;stroke-dasharray:none;stroke-opacity:1;paint-order:markers stroke fill" transform="rotate(203.217 76.769 115.3)scale(.01738)skewY(.025)"/><path d="m842.84.09 5.614 10.19 10.68 4.617-7.957 8.489-1.091 11.583-10.532-4.944-11.353 2.542 1.447-11.544-5.926-10.012 11.426-2.19z" style="fill:#ff0;stroke:#ffd600;stroke-width:12.8016;stroke-linecap:round;stroke-linejoin:miter;stroke-miterlimit:5;stroke-dasharray:none;stroke-opacity:1;paint-order:markers stroke fill" transform="matrix(-.03433 .02125 -.02123 -.03435 111.396 224.877)"/><path d="m842.84.09 5.614 10.19 10.68 4.617-7.957 8.489-1.091 11.583-10.532-4.944-11.353 2.542 1.447-11.544-5.926-10.012 11.426-2.19z" style="fill:#ff0;stroke:#ffd600;stroke-width:11.2702;stroke-linecap:round;stroke-linejoin:miter;stroke-miterlimit:5;stroke-dasharray:none;stroke-opacity:1;paint-order:markers stroke fill" transform="matrix(-.0175 .0424 -.04238 -.0175 95.003 200.628)"/><path d="m842.84.09 5.614 10.19 10.68 4.617-7.957 8.489-1.091 11.583-10.532-4.944-11.353 2.542 1.447-11.544-5.926-10.012 11.426-2.19z" style="fill:#ff0;stroke:#ffd600;stroke-width:23.4288;stroke-linecap:round;stroke-linejoin:miter;stroke-miterlimit:5;stroke-dasharray:none;stroke-opacity:1;paint-order:markers stroke fill" transform="matrix(-.02188 -.0028 .0028 -.0219 71.047 248.111)"/><path d="m842.84.09 5.614 10.19 10.68 4.617-7.957 8.489-1.091 11.583-10.532-4.944-11.353 2.542 1.447-11.544-5.926-10.012 11.426-2.19z" style="fill:#ff0;stroke:#ffd600;stroke-width:12.0778;stroke-linecap:round;stroke-linejoin:miter;stroke-miterlimit:5;stroke-dasharray:none;stroke-opacity:1;paint-order:markers stroke fill" transform="rotate(144.02 1.958 123.124)scale(.0428)skewX(-.033)"/><path d="m842.84.09 5.614 10.19 10.68 4.617-7.957 8.489-1.091 11.583-10.532-4.944-11.353 2.542 1.447-11.544-5.926-10.012 11.426-2.19z" style="fill:#ff0;stroke:#ffd600;stroke-width:10.7741;stroke-linecap:round;stroke-linejoin:miter;stroke-miterlimit:5;stroke-dasharray:none;stroke-opacity:1;paint-order:markers stroke fill" transform="matrix(-.01774 .04459 -.04456 -.01775 59.467 198.872)"/><path d="m842.84.09 5.614 10.19 10.68 4.617-7.957 8.489-1.091 11.583-10.532-4.944-11.353 2.542 1.447-11.544-5.926-10.012 11.426-2.19z" style="fill:#ff0;stroke:#ffd600;stroke-width:26.5459;stroke-linecap:round;stroke-linejoin:miter;stroke-miterlimit:5;stroke-dasharray:none;stroke-opacity:1;paint-order:markers stroke fill" transform="matrix(-.0157 -.01152 .01151 -.0157 37.144 253.38)"/><path d="m842.84.09 5.614 10.19 10.68 4.617-7.957 8.489-1.091 11.583-10.532-4.944-11.353 2.542 1.447-11.544-5.926-10.012 11.426-2.19z" style="fill:#ff0;stroke:#ffd600;stroke-width:16.1622;stroke-linecap:round;stroke-linejoin:miter;stroke-miterlimit:5;stroke-dasharray:none;stroke-opacity:1;paint-order:markers stroke fill" transform="matrix(-.03163 .00465 -.00465 -.03165 43.686 241.874)"/><path d="m842.84.09 5.614 10.19 10.68 4.617-7.957 8.489-1.091 11.583-10.532-4.944-11.353 2.542 1.447-11.544-5.926-10.012 11.426-2.19z" style="fill:#ff0;stroke:#ffd600;stroke-width:9.66104;stroke-linecap:round;stroke-linejoin:miter;stroke-miterlimit:5;stroke-dasharray:none;stroke-opacity:1;paint-order:markers stroke fill" transform="matrix(-.04117 .03417 -.03415 -.0412 45.884 214.137)"/><path d="m842.84.09 5.614 10.19 10.68 4.617-7.957 8.489-1.091 11.583-10.532-4.944-11.353 2.542 1.447-11.544-5.926-10.012 11.426-2.19z" style="fill:#ff0;stroke:#ffd600;stroke-width:7.83525;stroke-linecap:round;stroke-linejoin:miter;stroke-miterlimit:5;stroke-dasharray:none;stroke-opacity:1;paint-order:markers stroke fill" transform="matrix(-.02352 .06165 -.06162 -.02354 28.925 184.813)"/><path d="m842.84.09 5.614 10.19 10.68 4.617-7.957 8.489-1.091 11.583-10.532-4.944-11.353 2.542 1.447-11.544-5.926-10.012 11.426-2.19z" style="fill:#ff0;stroke:#ffd600;stroke-width:37.2434;stroke-linecap:round;stroke-linejoin:miter;stroke-miterlimit:5;stroke-dasharray:none;stroke-opacity:1;paint-order:markers stroke fill" transform="matrix(-.01387 .00037 -.00037 -.01388 184.059 200.42)"/><path d="m842.84.09 5.614 10.19 10.68 4.617-7.957 8.489-1.091 11.583-10.532-4.944-11.353 2.542 1.447-11.544-5.926-10.012 11.426-2.19z" style="fill:#ff0;stroke:#ffd600;stroke-width:16.2326;stroke-linecap:round;stroke-linejoin:miter;stroke-miterlimit:5;stroke-dasharray:none;stroke-opacity:1;paint-order:markers stroke fill" transform="matrix(-.0285 -.01418 .01417 -.02852 191.702 219.419)"/><path d="m842.84.09 5.614 10.19 10.68 4.617-7.957 8.489-1.091 11.583-10.532-4.944-11.353 2.542 1.447-11.544-5.926-10.012 11.426-2.19z" style="fill:#ff0;stroke:#ffd600;stroke-width:10.2689;stroke-linecap:round;stroke-linejoin:miter;stroke-miterlimit:5;stroke-dasharray:none;stroke-opacity:1;paint-order:markers stroke fill" transform="matrix(-.04979 .00732 -.00732 -.04982 202.901 203.785)"/><path d="m842.84.09 5.614 10.19 10.68 4.617-7.957 8.489-1.091 11.583-10.532-4.944-11.353 2.542 1.447-11.544-5.926-10.012 11.426-2.19z" style="fill:#ff0;stroke:#ffd600;stroke-width:6.67297;stroke-linecap:round;stroke-linejoin:miter;stroke-miterlimit:5;stroke-dasharray:none;stroke-opacity:1;paint-order:markers stroke fill" transform="matrix(-.06201 .04641 -.04639 -.06205 207.67 168.28)"/><path d="m842.84.09 5.614 10.19 10.68 4.617-7.957 8.489-1.091 11.583-10.532-4.944-11.353 2.542 1.447-11.544-5.926-10.012 11.426-2.19z" style="fill:#ff0;stroke:#ffd600;stroke-width:6.64217;stroke-linecap:round;stroke-linejoin:miter;stroke-miterlimit:5;stroke-dasharray:none;stroke-opacity:1;paint-order:markers stroke fill" transform="matrix(-.0262 .0733 -.07326 -.02622 175.394 139.341)"/><path d="m842.84.09 5.614 10.19 10.68 4.617-7.957 8.489-1.091 11.583-10.532-4.944-11.353 2.542 1.447-11.544-5.926-10.012 11.426-2.19z" style="fill:#ff0;stroke:#ffd600;stroke-width:36.1575;stroke-linecap:round;stroke-linejoin:miter;stroke-miterlimit:5;stroke-dasharray:none;stroke-opacity:1;paint-order:markers stroke fill" transform="rotate(210.334 99.54 79.434)scale(.0143)skewY(.03)"/><path d="m842.84.09 5.614 10.19 10.68 4.617-7.957 8.489-1.091 11.583-10.532-4.944-11.353 2.542 1.447-11.544-5.926-10.012 11.426-2.19z" style="fill:#ff0;stroke:#ffd600;stroke-width:16.9688;stroke-linecap:round;stroke-linejoin:miter;stroke-miterlimit:5;stroke-dasharray:none;stroke-opacity:1;paint-order:markers stroke fill" transform="matrix(-.02887 .0097 -.0097 -.02889 160.73 192.445)"/><path d="m842.84.09 5.614 10.19 10.68 4.617-7.957 8.489-1.091 11.583-10.532-4.944-11.353 2.542 1.447-11.544-5.926-10.012 11.426-2.19z" style="fill:#ff0;stroke:#ffd600;stroke-width:9.14693;stroke-linecap:round;stroke-linejoin:miter;stroke-miterlimit:5;stroke-dasharray:none;stroke-opacity:1;paint-order:markers stroke fill" transform="matrix(-.05282 -.02006 .02004 -.05285 176.233 224.375)"/><path d="m842.84.09 5.614 10.19 10.68 4.617-7.957 8.489-1.091 11.583-10.532-4.944-11.353 2.542 1.447-11.544-5.926-10.012 11.426-2.19z" style="fill:#ff0;stroke:#ffd600;stroke-width:7.37844;stroke-linecap:round;stroke-linejoin:miter;stroke-miterlimit:5;stroke-dasharray:none;stroke-opacity:1;paint-order:markers stroke fill" transform="matrix(-.06955 .00825 -.00824 -.0696 183.976 203.06)"/><path d="m842.84.09 5.614 10.19 10.68 4.617-7.957 8.489-1.091 11.583-10.532-4.944-11.353 2.542 1.447-11.544-5.926-10.012 11.426-2.19z" style="fill:#ff0;stroke:#ffd600;stroke-width:5.622;stroke-linecap:round;stroke-linejoin:miter;stroke-miterlimit:5;stroke-dasharray:none;stroke-opacity:1;paint-order:markers stroke fill" transform="matrix(-.0693 .06042 -.06038 -.06935 178.59 156.623)"/><path d="m842.84.09 5.614 10.19 10.68 4.617-7.957 8.489-1.091 11.583-10.532-4.944-11.353 2.542 1.447-11.544-5.926-10.012 11.426-2.19z" style="fill:#ff0;stroke:#ffd600;stroke-width:4.82571;stroke-linecap:round;stroke-linejoin:miter;stroke-miterlimit:5;stroke-dasharray:none;stroke-opacity:1;paint-order:markers stroke fill" transform="matrix(-.03337 .10182 -.10176 -.03339 146.375 115.639)"/><path d="m842.84.09 5.614 10.19 10.68 4.617-7.957 8.489-1.091 11.583-10.532-4.944-11.353 2.542 1.447-11.544-5.926-10.012 11.426-2.19z" style="fill:#ff0;stroke:#ffd600;stroke-width:21.2181;stroke-linecap:round;stroke-linejoin:miter;stroke-miterlimit:5;stroke-dasharray:none;stroke-opacity:1;paint-order:markers stroke fill" transform="matrix(.00935 -.0225 .02249 .00936 83.37 205.22)"/><path d="m842.84.09 5.614 10.19 10.68 4.617-7.957 8.489-1.091 11.583-10.532-4.944-11.353 2.542 1.447-11.544-5.926-10.012 11.426-2.19z" style="fill:#ff0;stroke:#ffd600;stroke-width:13.7635;stroke-linecap:round;stroke-linejoin:miter;stroke-miterlimit:5;stroke-dasharray:none;stroke-opacity:1;paint-order:markers stroke fill" transform="matrix(-.03686 -.00713 .00712 -.03689 129.071 198.232)"/><path d="m842.84.09 5.614 10.19 10.68 4.617-7.957 8.489-1.091 11.583-10.532-4.944-11.353 2.542 1.447-11.544-5.926-10.012 11.426-2.19z" style="fill:#ff0;stroke:#ffd600;stroke-width:9.23629;stroke-linecap:round;stroke-linejoin:miter;stroke-miterlimit:5;stroke-dasharray:none;stroke-opacity:1;paint-order:markers stroke fill" transform="matrix(-.05095 .02312 -.02311 -.05098 143.273 180.69)"/><path d="m842.84.09 5.614 10.19 10.68 4.617-7.957 8.489-1.091 11.583-10.532-4.944-11.353 2.542 1.447-11.544-5.926-10.012 11.426-2.19z" style="fill:#ff0;stroke:#ffd600;stroke-width:6.36685;stroke-linecap:round;stroke-linejoin:miter;stroke-miterlimit:5;stroke-dasharray:none;stroke-opacity:1;paint-order:markers stroke fill" transform="matrix(-.07685 -.02612 .0261 -.0769 160.497 229.123)"/><path d="m842.84.09 5.614 10.19 10.68 4.617-7.957 8.489-1.091 11.583-10.532-4.944-11.353 2.542 1.447-11.544-5.926-10.012 11.426-2.19z" style="fill:#ff0;stroke:#ffd600;stroke-width:5.55689;stroke-linecap:round;stroke-linejoin:miter;stroke-miterlimit:5;stroke-dasharray:none;stroke-opacity:1;paint-order:markers stroke fill" transform="matrix(-.09109 .01876 -.01874 -.09114 166.93 194.076)"/><path d="m842.84.09 5.614 10.19 10.68 4.617-7.957 8.489-1.091 11.583-10.532-4.944-11.353 2.542 1.447-11.544-5.926-10.012 11.426-2.19z" style="fill:#ff0;stroke:#ffd600;stroke-width:4.20367;stroke-linecap:round;stroke-linejoin:miter;stroke-miterlimit:5;stroke-dasharray:none;stroke-opacity:1;paint-order:markers stroke fill" transform="rotate(133.27 49.849 100.03)scale(.12297)skewX(-.033)"/><path d="m842.84.09 5.614 10.19 10.68 4.617-7.957 8.489-1.091 11.583-10.532-4.944-11.353 2.542 1.447-11.544-5.926-10.012 11.426-2.19z" style="fill:#ff0;stroke:#ffd600;stroke-width:3.79879;stroke-linecap:round;stroke-linejoin:miter;stroke-miterlimit:5;stroke-dasharray:none;stroke-opacity:1;paint-order:markers stroke fill" transform="matrix(-.02712 .13339 -.1333 -.02713 106.647 89.5)"/><path d="m842.84.09 5.614 10.19 10.68 4.617-7.957 8.489-1.091 11.583-10.532-4.944-11.353 2.542 1.447-11.544-5.926-10.012 11.426-2.19z" style="fill:#ff0;stroke:#ffd600;stroke-width:36.0719;stroke-linecap:round;stroke-linejoin:miter;stroke-miterlimit:5;stroke-dasharray:none;stroke-opacity:1;paint-order:markers stroke fill" transform="matrix(.01127 -.00885 .00884 .01128 37.106 194.48)"/><path d="m842.84.09 5.614 10.19 10.68 4.617-7.957 8.489-1.091 11.583-10.532-4.944-11.353 2.542 1.447-11.544-5.926-10.012 11.426-2.19z" style="fill:#ff0;stroke:#ffd600;stroke-width:15.0632;stroke-linecap:round;stroke-linejoin:miter;stroke-miterlimit:5;stroke-dasharray:none;stroke-opacity:1;paint-order:markers stroke fill" transform="matrix(-.024 -.02454 .02452 -.024 75.17 207.622)"/><path d="m842.84.09 5.614 10.19 10.68 4.617-7.957 8.489-1.091 11.583-10.532-4.944-11.353 2.542 1.447-11.544-5.926-10.012 11.426-2.19z" style="fill:#ff0;stroke:#ffd600;stroke-width:9.82215;stroke-linecap:round;stroke-linejoin:miter;stroke-miterlimit:5;stroke-dasharray:none;stroke-opacity:1;paint-order:markers stroke fill" transform="matrix(-.05166 -.00998 .00998 -.05169 105.332 200.75)"/><path d="m842.84.09 5.614 10.19 10.68 4.617-7.957 8.489-1.091 11.583-10.532-4.944-11.353 2.542 1.447-11.544-5.926-10.012 11.426-2.19z" style="fill:#ff0;stroke:#ffd600;stroke-width:8.42162;stroke-linecap:round;stroke-linejoin:miter;stroke-miterlimit:5;stroke-dasharray:none;stroke-opacity:1;paint-order:markers stroke fill" transform="matrix(-.05639 .02422 -.0242 -.05642 111.764 179.569)"/><path d="m842.84.09 5.614 10.19 10.68 4.617-7.957 8.489-1.091 11.583-10.532-4.944-11.353 2.542 1.447-11.544-5.926-10.012 11.426-2.19z" style="fill:#ff0;stroke:#ffd600;stroke-width:5.70946;stroke-linecap:round;stroke-linejoin:miter;stroke-miterlimit:5;stroke-dasharray:none;stroke-opacity:1;paint-order:markers stroke fill" transform="matrix(-.08578 -.0289 .02888 -.08583 132.065 231.319)"/><path d="m842.84.09 5.614 10.19 10.68 4.617-7.957 8.489-1.091 11.583-10.532-4.944-11.353 2.542 1.447-11.544-5.926-10.012 11.426-2.19z" style="fill:#ff0;stroke:#ffd600;stroke-width:5.21748;stroke-linecap:round;stroke-linejoin:miter;stroke-miterlimit:5;stroke-dasharray:none;stroke-opacity:1;paint-order:markers stroke fill" transform="matrix(-.0957 .0255 -.0255 -.09577 135.265 188.244)"/><path d="m842.84.09 5.614 10.19 10.68 4.617-7.957 8.489-1.091 11.583-10.532-4.944-11.353 2.542 1.447-11.544-5.926-10.012 11.426-2.19z" style="fill:#ff0;stroke:#ffd600;stroke-width:4.20367;stroke-linecap:round;stroke-linejoin:miter;stroke-miterlimit:5;stroke-dasharray:none;stroke-opacity:1;paint-order:markers stroke fill" transform="rotate(133.267 31.89 92.273)scale(.12297)skewX(-.035)"/><path d="m842.84.09 5.614 10.19 10.68 4.617-7.957 8.489-1.091 11.583-10.532-4.944-11.353 2.542 1.447-11.544-5.926-10.012 11.426-2.19z" style="fill:#ff0;stroke:#ffd600;stroke-width:3.79879;stroke-linecap:round;stroke-linejoin:miter;stroke-miterlimit:5;stroke-dasharray:none;stroke-opacity:1;paint-order:markers stroke fill" transform="matrix(-.02712 .13339 -.1333 -.02713 70.731 89.5)"/><path d="m842.84.09 5.614 10.19 10.68 4.617-7.957 8.489-1.091 11.583-10.532-4.944-11.353 2.542 1.447-11.544-5.926-10.012 11.426-2.19z" style="fill:#ff0;stroke:#ffd600;stroke-width:21.876;stroke-linecap:round;stroke-linejoin:miter;stroke-miterlimit:5;stroke-dasharray:none;stroke-opacity:1;paint-order:markers stroke fill" transform="matrix(.01278 -.01988 .01987 .0128 -.492 203.979)"/><path d="m842.84.09 5.614 10.19 10.68 4.617-7.957 8.489-1.091 11.583-10.532-4.944-11.353 2.542 1.447-11.544-5.926-10.012 11.426-2.19z" style="fill:#ff0;stroke:#ffd600;stroke-width:13.0314;stroke-linecap:round;stroke-linejoin:miter;stroke-miterlimit:5;stroke-dasharray:none;stroke-opacity:1;paint-order:markers stroke fill" transform="rotate(220.24 60.317 96.285)scale(.03967)skewY(.034)"/><path d="m842.84.09 5.614 10.19 10.68 4.617-7.957 8.489-1.091 11.583-10.532-4.944-11.353 2.542 1.447-11.544-5.926-10.012 11.426-2.19z" style="fill:#ff0;stroke:#ffd600;stroke-width:8.70114;stroke-linecap:round;stroke-linejoin:miter;stroke-miterlimit:5;stroke-dasharray:none;stroke-opacity:1;paint-order:markers stroke fill" transform="matrix(-.05881 -.00827 .00827 -.05885 75.123 199.37)"/><path d="m842.84.09 5.614 10.19 10.68 4.617-7.957 8.489-1.091 11.583-10.532-4.944-11.353 2.542 1.447-11.544-5.926-10.012 11.426-2.19z" style="fill:#ff0;stroke:#ffd600;stroke-width:7.2518;stroke-linecap:round;stroke-linejoin:miter;stroke-miterlimit:5;stroke-dasharray:none;stroke-opacity:1;paint-order:markers stroke fill" transform="matrix(-.06542 .02827 -.02825 -.06546 83.323 176.076)"/><path d="m842.84.09 5.614 10.19 10.68 4.617-7.957 8.489-1.091 11.583-10.532-4.944-11.353 2.542 1.447-11.544-5.926-10.012 11.426-2.19z" style="fill:#ff0;stroke:#ffd600;stroke-width:5.18167;stroke-linecap:round;stroke-linejoin:miter;stroke-miterlimit:5;stroke-dasharray:none;stroke-opacity:1;paint-order:markers stroke fill" transform="matrix(-.09625 -.02615 .02613 -.0963 105.025 228.904)"/><path d="m842.84.09 5.614 10.19 10.68 4.617-7.957 8.489-1.091 11.583-10.532-4.944-11.353 2.542 1.447-11.544-5.926-10.012 11.426-2.19z" style="fill:#ff0;stroke:#ffd600;stroke-width:4.76192;stroke-linecap:round;stroke-linejoin:miter;stroke-miterlimit:5;stroke-dasharray:none;stroke-opacity:1;paint-order:markers stroke fill" transform="matrix(-.1049 .02779 -.02777 -.10497 107.282 186.326)"/><path d="m842.84.09 5.614 10.19 10.68 4.617-7.957 8.489-1.091 11.583-10.532-4.944-11.353 2.542 1.447-11.544-5.926-10.012 11.426-2.19z" style="fill:#ff0;stroke:#ffd600;stroke-width:3.85997;stroke-linecap:round;stroke-linejoin:miter;stroke-miterlimit:5;stroke-dasharray:none;stroke-opacity:1;paint-order:markers stroke fill" transform="matrix(-.0918 .09752 -.09746 -.09185 91.702 125.664)"/><path d="m842.84.09 5.614 10.19 10.68 4.617-7.957 8.489-1.091 11.583-10.532-4.944-11.353 2.542 1.447-11.544-5.926-10.012 11.426-2.19z" style="fill:#ff0;stroke:#ffd600;stroke-width:3.2952;stroke-linecap:round;stroke-linejoin:miter;stroke-miterlimit:5;stroke-dasharray:none;stroke-opacity:1;paint-order:markers stroke fill" transform="matrix(-.02832 .15434 -.15425 -.02834 36.459 72.029)"/><path d="m842.84.09 5.614 10.19 10.68 4.617-7.957 8.489-1.091 11.583-10.532-4.944-11.353 2.542 1.447-11.544-5.926-10.012 11.426-2.19z" style="fill:#ff0;stroke:#ffd600;stroke-width:33.1639;stroke-linecap:round;stroke-linejoin:miter;stroke-miterlimit:5;stroke-dasharray:none;stroke-opacity:1;paint-order:markers stroke fill" transform="matrix(.01553 -.00128 .00128 .01554 135.139 159.223)"/><path d="m842.84.09 5.614 10.19 10.68 4.617-7.957 8.489-1.091 11.583-10.532-4.944-11.353 2.542 1.447-11.544-5.926-10.012 11.426-2.19z" style="fill:#ff0;stroke:#ffd600;stroke-width:17.1616;stroke-linecap:round;stroke-linejoin:miter;stroke-miterlimit:5;stroke-dasharray:none;stroke-opacity:1;paint-order:markers stroke fill" transform="matrix(-.0088 -.02882 .0288 -.0088 160.938 176.198)"/><path d="m842.84.09 5.614 10.19 10.68 4.617-7.957 8.489-1.091 11.583-10.532-4.944-11.353 2.542 1.447-11.544-5.926-10.012 11.426-2.19z" style="fill:#ff0;stroke:#ffd600;stroke-width:11.8474;stroke-linecap:round;stroke-linejoin:miter;stroke-miterlimit:5;stroke-dasharray:none;stroke-opacity:1;paint-order:markers stroke fill" transform="matrix(-.03362 -.0278 .02779 -.03364 190.29 174.778)"/><path d="m842.84.09 5.614 10.19 10.68 4.617-7.957 8.489-1.091 11.583-10.532-4.944-11.353 2.542 1.447-11.544-5.926-10.012 11.426-2.19z" style="fill:#ff0;stroke:#ffd600;stroke-width:6.91856;stroke-linecap:round;stroke-linejoin:miter;stroke-miterlimit:5;stroke-dasharray:none;stroke-opacity:1;paint-order:markers stroke fill" transform="matrix(-.07397 -.0104 .0104 -.07401 231.166 165.35)"/><path d="m842.84.09 5.614 10.19 10.68 4.617-7.957 8.489-1.091 11.583-10.532-4.944-11.353 2.542 1.447-11.544-5.926-10.012 11.426-2.19z" style="fill:#ff0;stroke:#ffd600;stroke-width:6.70576;stroke-linecap:round;stroke-linejoin:miter;stroke-miterlimit:5;stroke-dasharray:none;stroke-opacity:1;paint-order:markers stroke fill" transform="matrix(-.0706 .0309 -.03089 -.07065 231.231 137.714)"/><path d="m842.84.09 5.614 10.19 10.68 4.617-7.957 8.489-1.091 11.583-10.532-4.944-11.353 2.542 1.447-11.544-5.926-10.012 11.426-2.19z" style="fill:#ff0;stroke:#ffd600;stroke-width:5.31884;stroke-linecap:round;stroke-linejoin:miter;stroke-miterlimit:5;stroke-dasharray:none;stroke-opacity:1;paint-order:markers stroke fill" transform="matrix(-.09387 -.02507 .02506 -.09393 246.728 191.693)"/><path d="m842.84.09 5.614 10.19 10.68 4.617-7.957 8.489-1.091 11.583-10.532-4.944-11.353 2.542 1.447-11.544-5.926-10.012 11.426-2.19z" style="fill:#ff0;stroke:#ffd600;stroke-width:4.55064;stroke-linecap:round;stroke-linejoin:miter;stroke-miterlimit:5;stroke-dasharray:none;stroke-opacity:1;paint-order:markers stroke fill" transform="matrix(-.10922 .03113 -.03111 -.10928 254.834 147.368)"/><path d="m842.84.09 5.614 10.19 10.68 4.617-7.957 8.489-1.091 11.583-10.532-4.944-11.353 2.542 1.447-11.544-5.926-10.012 11.426-2.19z" style="fill:#ff0;stroke:#ffd600;stroke-width:3.55303;stroke-linecap:round;stroke-linejoin:miter;stroke-miterlimit:5;stroke-dasharray:none;stroke-opacity:1;paint-order:markers stroke fill" transform="matrix(-.09432 .11079 -.11072 -.09437 238.026 78.515)"/><path d="m842.84.09 5.614 10.19 10.68 4.617-7.957 8.489-1.091 11.583-10.532-4.944-11.353 2.542 1.447-11.544-5.926-10.012 11.426-2.19z" style="fill:#ff0;stroke:#ffd600;stroke-width:3.15447;stroke-linecap:round;stroke-linejoin:miter;stroke-miterlimit:5;stroke-dasharray:none;stroke-opacity:1;paint-order:markers stroke fill" transform="matrix(-.02255 .16236 -.16226 -.02257 175.626 29.346)"/><path d="m842.84.09 5.614 10.19 10.68 4.617-7.957 8.489-1.091 11.583-10.532-4.944-11.353 2.542 1.447-11.544-5.926-10.012 11.426-2.19z" style="fill:#ff0;stroke:#ffd600;stroke-width:26.82;stroke-linecap:round;stroke-linejoin:miter;stroke-miterlimit:5;stroke-dasharray:none;stroke-opacity:1;paint-order:markers stroke fill" transform="matrix(.01763 -.00779 .00779 .01764 97.653 174.473)"/><path d="m842.84.09 5.614 10.19 10.68 4.617-7.957 8.489-1.091 11.583-10.532-4.944-11.353 2.542 1.447-11.544-5.926-10.012 11.426-2.19z" style="fill:#ff0;stroke:#ffd600;stroke-width:14.9611;stroke-linecap:round;stroke-linejoin:miter;stroke-miterlimit:5;stroke-dasharray:none;stroke-opacity:1;paint-order:markers stroke fill" transform="matrix(.03376 -.0073 .00729 .03378 83.886 164.864)"/><path d="m842.84.09 5.614 10.19 10.68 4.617-7.957 8.489-1.091 11.583-10.532-4.944-11.353 2.542 1.447-11.544-5.926-10.012 11.426-2.19z" style="fill:#ff0;stroke:#ffd600;stroke-width:12.1398;stroke-linecap:round;stroke-linejoin:miter;stroke-miterlimit:5;stroke-dasharray:none;stroke-opacity:1;paint-order:markers stroke fill" transform="matrix(-.01598 -.03948 .03945 -.016 130.465 186.073)"/><path d="m842.84.09 5.614 10.19 10.68 4.617-7.957 8.489-1.091 11.583-10.532-4.944-11.353 2.542 1.447-11.544-5.926-10.012 11.426-2.19z" style="fill:#ff0;stroke:#ffd600;stroke-width:7.66204;stroke-linecap:round;stroke-linejoin:miter;stroke-miterlimit:5;stroke-dasharray:none;stroke-opacity:1;paint-order:markers stroke fill" transform="matrix(-.05684 -.03632 .0363 -.05688 172.953 182.628)"/><path d="m842.84.09 5.614 10.19 10.68 4.617-7.957 8.489-1.091 11.583-10.532-4.944-11.353 2.542 1.447-11.544-5.926-10.012 11.426-2.19z" style="fill:#ff0;stroke:#ffd600;stroke-width:5.4328;stroke-linecap:round;stroke-linejoin:miter;stroke-miterlimit:5;stroke-dasharray:none;stroke-opacity:1;paint-order:markers stroke fill" transform="matrix(-.08483 -.00489 .00489 -.08488 203.765 160.742)"/><path d="m842.84.09 5.614 10.19 10.68 4.617-7.957 8.489-1.091 11.583-10.532-4.944-11.353 2.542 1.447-11.544-5.926-10.012 11.426-2.19z" style="fill:#ff0;stroke:#ffd600;stroke-width:5.96884;stroke-linecap:round;stroke-linejoin:miter;stroke-miterlimit:5;stroke-dasharray:none;stroke-opacity:1;paint-order:markers stroke fill" transform="matrix(-.07615 .04122 -.0412 -.0762 199.718 128.599)"/><path d="m842.84.09 5.614 10.19 10.68 4.617-7.957 8.489-1.091 11.583-10.532-4.944-11.353 2.542 1.447-11.544-5.926-10.012 11.426-2.19z" style="fill:#ff0;stroke:#ffd600;stroke-width:4.56481;stroke-linecap:round;stroke-linejoin:miter;stroke-miterlimit:5;stroke-dasharray:none;stroke-opacity:1;paint-order:markers stroke fill" transform="matrix(-.11077 -.02337 .02335 -.11084 225.088 189.88)"/><path d="m842.84.09 5.614 10.19 10.68 4.617-7.957 8.489-1.091 11.583-10.532-4.944-11.353 2.542 1.447-11.544-5.926-10.012 11.426-2.19z" style="fill:#ff0;stroke:#ffd600;stroke-width:4.00871;stroke-linecap:round;stroke-linejoin:miter;stroke-miterlimit:5;stroke-dasharray:none;stroke-opacity:1;paint-order:markers stroke fill" transform="matrix(-.12034 .04625 -.04622 -.12041 228.987 134.326)"/><path d="m842.84.09 5.614 10.19 10.68 4.617-7.957 8.489-1.091 11.583-10.532-4.944-11.353 2.542 1.447-11.544-5.926-10.012 11.426-2.19z" style="fill:#ff0;stroke:#ffd600;stroke-width:3.0036;stroke-linecap:round;stroke-linejoin:miter;stroke-miterlimit:5;stroke-dasharray:none;stroke-opacity:1;paint-order:markers stroke fill" transform="matrix(-.10479 .13654 -.13646 -.10485 212.082 56.904)"/><path d="m842.84.09 5.614 10.19 10.68 4.617-7.957 8.489-1.091 11.583-10.532-4.944-11.353 2.542 1.447-11.544-5.926-10.012 11.426-2.19z" style="fill:#ff0;stroke:#ffd600;stroke-width:2.52476;stroke-linecap:round;stroke-linejoin:miter;stroke-miterlimit:5;stroke-dasharray:none;stroke-opacity:1;paint-order:markers stroke fill" transform="matrix(-.01703 .2041 -.20397 -.01704 136.445 -5.68)"/><path d="m842.84.09 5.614 10.19 10.68 4.617-7.957 8.489-1.091 11.583-10.532-4.944-11.353 2.542 1.447-11.544-5.926-10.012 11.426-2.19z" style="fill:#ff0;stroke:#ffd600;stroke-width:25.7614;stroke-linecap:round;stroke-linejoin:miter;stroke-miterlimit:5;stroke-dasharray:none;stroke-opacity:1;paint-order:markers stroke fill" transform="matrix(-.01924 -.00568 .00567 -.01925 100.099 180.438)"/><path d="m842.84.09 5.614 10.19 10.68 4.617-7.957 8.489-1.091 11.583-10.532-4.944-11.353 2.542 1.447-11.544-5.926-10.012 11.426-2.19z" style="fill:#ff0;stroke:#ffd600;stroke-width:15.4919;stroke-linecap:round;stroke-linejoin:miter;stroke-miterlimit:5;stroke-dasharray:none;stroke-opacity:1;paint-order:markers stroke fill" transform="matrix(-.01666 -.02892 .0289 -.01667 90.842 193.627)"/><path d="m842.84.09 5.614 10.19 10.68 4.617-7.957 8.489-1.091 11.583-10.532-4.944-11.353 2.542 1.447-11.544-5.926-10.012 11.426-2.19z" style="fill:#ff0;stroke:#ffd600;stroke-width:9.60726;stroke-linecap:round;stroke-linejoin:miter;stroke-miterlimit:5;stroke-dasharray:none;stroke-opacity:1;paint-order:markers stroke fill" transform="matrix(.00582 -.0535 .05347 .00583 70.634 205.153)"/><path d="m842.84.09 5.614 10.19 10.68 4.617-7.957 8.489-1.091 11.583-10.532-4.944-11.353 2.542 1.447-11.544-5.926-10.012 11.426-2.19z" style="fill:#ff0;stroke:#ffd600;stroke-width:7.73272;stroke-linecap:round;stroke-linejoin:miter;stroke-miterlimit:5;stroke-dasharray:none;stroke-opacity:1;paint-order:markers stroke fill" transform="matrix(-.03099 -.05925 .05921 -.031 106.276 203.807)"/><path d="m842.84.09 5.614 10.19 10.68 4.617-7.957 8.489-1.091 11.583-10.532-4.944-11.353 2.542 1.447-11.544-5.926-10.012 11.426-2.19z" style="fill:#ff0;stroke:#ffd600;stroke-width:6.37522;stroke-linecap:round;stroke-linejoin:miter;stroke-miterlimit:5;stroke-dasharray:none;stroke-opacity:1;paint-order:markers stroke fill" transform="matrix(-.07042 -.04018 .04015 -.07046 147.488 186.48)"/><path d="m842.84.09 5.614 10.19 10.68 4.617-7.957 8.489-1.091 11.583-10.532-4.944-11.353 2.542 1.447-11.544-5.926-10.012 11.426-2.19z" style="fill:#ff0;stroke:#ffd600;stroke-width:5.4328;stroke-linecap:round;stroke-linejoin:miter;stroke-miterlimit:5;stroke-dasharray:none;stroke-opacity:1;paint-order:markers stroke fill" transform="rotate(179.33 87.417 78.322)scale(.09512 .09518)"/><path d="m842.84.09 5.614 10.19 10.68 4.617-7.957 8.489-1.091 11.583-10.532-4.944-11.353 2.542 1.447-11.544-5.926-10.012 11.426-2.19z" style="fill:#ff0;stroke:#ffd600;stroke-width:4.58725;stroke-linecap:round;stroke-linejoin:miter;stroke-miterlimit:5;stroke-dasharray:none;stroke-opacity:1;paint-order:markers stroke fill" transform="matrix(-.09412 .06195 -.0619 -.09417 178.693 110.802)"/><path d="m842.84.09 5.614 10.19 10.68 4.617-7.957 8.489-1.091 11.583-10.532-4.944-11.353 2.542 1.447-11.544-5.926-10.012 11.426-2.19z" style="fill:#ff0;stroke:#ffd600;stroke-width:3.81672;stroke-linecap:round;stroke-linejoin:miter;stroke-miterlimit:5;stroke-dasharray:none;stroke-opacity:1;paint-order:markers stroke fill" transform="matrix(-.13418 -.01815 .01814 -.13426 208.927 185.104)"/><path d="m842.84.09 5.614 10.19 10.68 4.617-7.957 8.489-1.091 11.583-10.532-4.944-11.353 2.542 1.447-11.544-5.926-10.012 11.426-2.19z" style="fill:#ff0;stroke:#ffd600;stroke-width:3.09442;stroke-linecap:round;stroke-linejoin:miter;stroke-miterlimit:5;stroke-dasharray:none;stroke-opacity:1;paint-order:markers stroke fill" transform="matrix(-.1517 .06987 -.06983 -.1518 220.28 114.433)"/><path d="m842.84.09 5.614 10.19 10.68 4.617-7.957 8.489-1.091 11.583-10.532-4.944-11.353 2.542 1.447-11.544-5.926-10.012 11.426-2.19z" style="fill:#ff0;stroke:#ffd600;stroke-width:2.4686;stroke-linecap:round;stroke-linejoin:miter;stroke-miterlimit:5;stroke-dasharray:none;stroke-opacity:1;paint-order:markers stroke fill" transform="matrix(-.114 .17568 -.17557 -.11408 185.244 23.937)"/><path d="m842.84.09 5.614 10.19 10.68 4.617-7.957 8.489-1.091 11.583-10.532-4.944-11.353 2.542 1.447-11.544-5.926-10.012 11.426-2.19z" style="fill:#ff0;stroke:#ffd600;stroke-width:2.1884;stroke-linecap:round;stroke-linejoin:miter;stroke-miterlimit:5;stroke-dasharray:none;stroke-opacity:1;paint-order:markers stroke fill" transform="rotate(90.185 60.408 27.552)scale(.23628 .23614)"/><path d="m842.84.09 5.614 10.19 10.68 4.617-7.957 8.489-1.091 11.583-10.532-4.944-11.353 2.542 1.447-11.544-5.926-10.012 11.426-2.19z" style="fill:#ff0;stroke:#ffd600;stroke-width:39.0578;stroke-linecap:round;stroke-linejoin:miter;stroke-miterlimit:5;stroke-dasharray:none;stroke-opacity:1;paint-order:markers stroke fill" transform="matrix(-.00631 .01164 -.01163 -.00631 63.35 165.88)"/><path d="m842.84.09 5.614 10.19 10.68 4.617-7.957 8.489-1.091 11.583-10.532-4.944-11.353 2.542 1.447-11.544-5.926-10.012 11.426-2.19z" style="fill:#ff0;stroke:#ffd600;stroke-width:21.0986;stroke-linecap:round;stroke-linejoin:miter;stroke-miterlimit:5;stroke-dasharray:none;stroke-opacity:1;paint-order:markers stroke fill" transform="matrix(-.024 -.0049 .0049 -.02401 68.737 179.853)"/><path d="m842.84.09 5.614 10.19 10.68 4.617-7.957 8.489-1.091 11.583-10.532-4.944-11.353 2.542 1.447-11.544-5.926-10.012 11.426-2.19z" style="fill:#ff0;stroke:#ffd600;stroke-width:14.6027;stroke-linecap:round;stroke-linejoin:miter;stroke-miterlimit:5;stroke-dasharray:none;stroke-opacity:1;paint-order:markers stroke fill" transform="rotate(229.55 74.752 82.208)scale(.0354)skewY(.034)"/><path d="m842.84.09 5.614 10.19 10.68 4.617-7.957 8.489-1.091 11.583-10.532-4.944-11.353 2.542 1.447-11.544-5.926-10.012 11.426-2.19z" style="fill:#ff0;stroke:#ffd600;stroke-width:8.7675;stroke-linecap:round;stroke-linejoin:miter;stroke-miterlimit:5;stroke-dasharray:none;stroke-opacity:1;paint-order:markers stroke fill" transform="matrix(.00457 -.0588 .05876 .00457 35.72 210.146)"/><path d="m842.84.09 5.614 10.19 10.68 4.617-7.957 8.489-1.091 11.583-10.532-4.944-11.353 2.542 1.447-11.544-5.926-10.012 11.426-2.19z" style="fill:#ff0;stroke:#ffd600;stroke-width:6.96382;stroke-linecap:round;stroke-linejoin:miter;stroke-miterlimit:5;stroke-dasharray:none;stroke-opacity:1;paint-order:markers stroke fill" transform="matrix(-.03748 -.06408 .06405 -.0375 75.507 208.419)"/><path d="m842.84.09 5.614 10.19 10.68 4.617-7.957 8.489-1.091 11.583-10.532-4.944-11.353 2.542 1.447-11.544-5.926-10.012 11.426-2.19z" style="fill:#ff0;stroke:#ffd600;stroke-width:5.79042;stroke-linecap:round;stroke-linejoin:miter;stroke-miterlimit:5;stroke-dasharray:none;stroke-opacity:1;paint-order:markers stroke fill" transform="matrix(-.07822 -.043 .04297 -.07827 117.7 189.23)"/><path d="m842.84.09 5.614 10.19 10.68 4.617-7.957 8.489-1.091 11.583-10.532-4.944-11.353 2.542 1.447-11.544-5.926-10.012 11.426-2.19z" style="fill:#ff0;stroke:#ffd600;stroke-width:4.96092;stroke-linecap:round;stroke-linejoin:miter;stroke-miterlimit:5;stroke-dasharray:none;stroke-opacity:1;paint-order:markers stroke fill" transform="matrix(-.10402 .00548 -.00547 -.10409 146.981 152.076)"/><path d="m842.84.09 5.614 10.19 10.68 4.617-7.957 8.489-1.091 11.583-10.532-4.944-11.353 2.542 1.447-11.544-5.926-10.012 11.426-2.19z" style="fill:#ff0;stroke:#ffd600;stroke-width:4.36626;stroke-linecap:round;stroke-linejoin:miter;stroke-miterlimit:5;stroke-dasharray:none;stroke-opacity:1;paint-order:markers stroke fill" transform="matrix(-.09822 .06607 -.06603 -.09828 146.069 107.146)"/><path d="m842.84.09 5.614 10.19 10.68 4.617-7.957 8.489-1.091 11.583-10.532-4.944-11.353 2.542 1.447-11.544-5.926-10.012 11.426-2.19z" style="fill:#ff0;stroke:#ffd600;stroke-width:3.47004;stroke-linecap:round;stroke-linejoin:miter;stroke-miterlimit:5;stroke-dasharray:none;stroke-opacity:1;paint-order:markers stroke fill" transform="matrix(-.14823 -.01437 .01436 -.14832 184.844 181.825)"/><path d="m842.84.09 5.614 10.19 10.68 4.617-7.957 8.489-1.091 11.583-10.532-4.944-11.353 2.542 1.447-11.544-5.926-10.012 11.426-2.19z" style="fill:#ff0;stroke:#ffd600;stroke-width:2.85858;stroke-linecap:round;stroke-linejoin:miter;stroke-miterlimit:5;stroke-dasharray:none;stroke-opacity:1;paint-order:markers stroke fill" transform="matrix(-.16235 .07957 -.07952 -.16245 193.697 106.133)"/><path d="m842.84.09 5.614 10.19 10.68 4.617-7.957 8.489-1.091 11.583-10.532-4.944-11.353 2.542 1.447-11.544-5.926-10.012 11.426-2.19z" style="fill:#ff0;stroke:#ffd600;stroke-width:2.28722;stroke-linecap:round;stroke-linejoin:miter;stroke-miterlimit:5;stroke-dasharray:none;stroke-opacity:1;paint-order:markers stroke fill" transform="matrix(-.11756 .19306 -.19295 -.11763 153.064 9.215)"/><path d="m842.84.09 5.614 10.19 10.68 4.617-7.957 8.489-1.091 11.583-10.532-4.944-11.353 2.542 1.447-11.544-5.926-10.012 11.426-2.19z" style="fill:#ff0;stroke:#ffd600;stroke-width:2.11874;stroke-linecap:round;stroke-linejoin:miter;stroke-miterlimit:5;stroke-dasharray:none;stroke-opacity:1;paint-order:markers stroke fill" transform="rotate(89.78 45.373 6.086)scale(.24405 .2439)"/><path d="m842.84.09 5.614 10.19 10.68 4.617-7.957 8.489-1.091 11.583-10.532-4.944-11.353 2.542 1.447-11.544-5.926-10.012 11.426-2.19z" style="fill:#ff0;stroke:#ffd600;stroke-width:39.0578;stroke-linecap:round;stroke-linejoin:miter;stroke-miterlimit:5;stroke-dasharray:none;stroke-opacity:1;paint-order:markers stroke fill" transform="matrix(-.00236 .01303 -.01302 -.00236 31.74 157.565)"/><path d="m842.84.09 5.614 10.19 10.68 4.617-7.957 8.489-1.091 11.583-10.532-4.944-11.353 2.542 1.447-11.544-5.926-10.012 11.426-2.19z" style="fill:#ff0;stroke:#ffd600;stroke-width:16.6311;stroke-linecap:round;stroke-linejoin:miter;stroke-miterlimit:5;stroke-dasharray:none;stroke-opacity:1;paint-order:markers stroke fill" transform="matrix(-.02703 .01533 -.01532 -.02705 45.666 162.436)"/><path d="m842.84.09 5.614 10.19 10.68 4.617-7.957 8.489-1.091 11.583-10.532-4.944-11.353 2.542 1.447-11.544-5.926-10.012 11.426-2.19z" style="fill:#ff0;stroke:#ffd600;stroke-width:11.3163;stroke-linecap:round;stroke-linejoin:miter;stroke-miterlimit:5;stroke-dasharray:none;stroke-opacity:1;paint-order:markers stroke fill" transform="matrix(-.04474 -.00915 .00914 -.04477 51.193 183.805)"/><path d="m842.84.09 5.614 10.19 10.68 4.617-7.957 8.489-1.091 11.583-10.532-4.944-11.353 2.542 1.447-11.544-5.926-10.012 11.426-2.19z" style="fill:#ff0;stroke:#ffd600;stroke-width:9.10569;stroke-linecap:round;stroke-linejoin:miter;stroke-miterlimit:5;stroke-dasharray:none;stroke-opacity:1;paint-order:markers stroke fill" transform="rotate(231.17 67.698 95.34)scale(.05677)skewY(.034)"/><path d="m842.84.09 5.614 10.19 10.68 4.617-7.957 8.489-1.091 11.583-10.532-4.944-11.353 2.542 1.447-11.544-5.926-10.012 11.426-2.19z" style="fill:#ff0;stroke:#ffd600;stroke-width:7.10334;stroke-linecap:round;stroke-linejoin:miter;stroke-miterlimit:5;stroke-dasharray:none;stroke-opacity:1;paint-order:markers stroke fill" transform="matrix(.0011 -.07279 .07274 .0011 2.801 222.82)"/><path d="m842.84.09 5.614 10.19 10.68 4.617-7.957 8.489-1.091 11.583-10.532-4.944-11.353 2.542 1.447-11.544-5.926-10.012 11.426-2.19z" style="fill:#ff0;stroke:#ffd600;stroke-width:5.54936;stroke-linecap:round;stroke-linejoin:miter;stroke-miterlimit:5;stroke-dasharray:none;stroke-opacity:1;paint-order:markers stroke fill" transform="matrix(-.05134 -.07774 .0777 -.05137 50.658 221.103)"/><path d="m842.84.09 5.614 10.19 10.68 4.617-7.957 8.489-1.091 11.583-10.532-4.944-11.353 2.542 1.447-11.544-5.926-10.012 11.426-2.19z" style="fill:#ff0;stroke:#ffd600;stroke-width:5.03857;stroke-linecap:round;stroke-linejoin:miter;stroke-miterlimit:5;stroke-dasharray:none;stroke-opacity:1;paint-order:markers stroke fill" transform="matrix(-.09194 -.04548 .04545 -.092 92.421 192.053)"/><path d="m842.84.09 5.614 10.19 10.68 4.617-7.957 8.489-1.091 11.583-10.532-4.944-11.353 2.542 1.447-11.544-5.926-10.012 11.426-2.19z" style="fill:#ff0;stroke:#ffd600;stroke-width:4.18127;stroke-linecap:round;stroke-linejoin:miter;stroke-miterlimit:5;stroke-dasharray:none;stroke-opacity:1;paint-order:markers stroke fill" transform="matrix(-.12252 .01621 -.0162 -.1226 125.888 143.355)"/><path d="m842.84.09 5.614 10.19 10.68 4.617-7.957 8.489-1.091 11.583-10.532-4.944-11.353 2.542 1.447-11.544-5.926-10.012 11.426-2.19z" style="fill:#ff0;stroke:#ffd600;stroke-width:3.24585;stroke-linecap:round;stroke-linejoin:miter;stroke-miterlimit:5;stroke-dasharray:none;stroke-opacity:1;paint-order:markers stroke fill" transform="matrix(-.1224 .10188 -.10182 -.12247 130.427 76.909)"/><path d="m842.84.09 5.614 10.19 10.68 4.617-7.957 8.489-1.091 11.583-10.532-4.944-11.353 2.542 1.447-11.544-5.926-10.012 11.426-2.19z" style="fill:#ff0;stroke:#ffd600;stroke-width:2.81656;stroke-linecap:round;stroke-linejoin:miter;stroke-miterlimit:5;stroke-dasharray:none;stroke-opacity:1;paint-order:markers stroke fill" transform="rotate(180.233 89.49 84.926)scale(.18348 .18359)"/><path d="m842.84.09 5.614 10.19 10.68 4.617-7.957 8.489-1.091 11.583-10.532-4.944-11.353 2.542 1.447-11.544-5.926-10.012 11.426-2.19z" style="fill:#ff0;stroke:#ffd600;stroke-width:2.30406;stroke-linecap:round;stroke-linejoin:miter;stroke-miterlimit:5;stroke-dasharray:none;stroke-opacity:1;paint-order:markers stroke fill" transform="matrix(-.19024 .11888 -.1188 -.19035 182.338 72.83)"/><path d="m842.84.09 5.614 10.19 10.68 4.617-7.957 8.489-1.091 11.583-10.532-4.944-11.353 2.542 1.447-11.544-5.926-10.012 11.426-2.19z" style="fill:#ff0;stroke:#ffd600;stroke-width:1.99777;stroke-linecap:round;stroke-linejoin:miter;stroke-miterlimit:5;stroke-dasharray:none;stroke-opacity:1;paint-order:markers stroke fill" transform="matrix(-.11514 .23178 -.23164 -.1152 116.501 -23.838)"/><path d="m842.84.09 5.614 10.19 10.68 4.617-7.957 8.489-1.091 11.583-10.532-4.944-11.353 2.542 1.447-11.544-5.926-10.012 11.426-2.19z" style="fill:#ff0;stroke:#ffd600;stroke-width:3.13072;stroke-linecap:round;stroke-linejoin:miter;stroke-miterlimit:5;stroke-dasharray:none;stroke-opacity:1;paint-order:markers stroke fill" transform="matrix(.0118 .16474 -.16464 .0118 5.463 27.29)"/><path d="m842.84.09 5.614 10.19 10.68 4.617-7.957 8.489-1.091 11.583-10.532-4.944-11.353 2.542 1.447-11.544-5.926-10.012 11.426-2.19z" style="fill:#ff0;stroke:#ffd600;stroke-width:30.52;stroke-linecap:round;stroke-linejoin:miter;stroke-miterlimit:5;stroke-dasharray:none;stroke-opacity:1;paint-order:markers stroke fill" transform="rotate(88.41 26.215 148.217)scale(.01695 .01694)"/><path d="m842.84.09 5.614 10.19 10.68 4.617-7.957 8.489-1.091 11.583-10.532-4.944-11.353 2.542 1.447-11.544-5.926-10.012 11.426-2.19z" style="fill:#ff0;stroke:#ffd600;stroke-width:14.4826;stroke-linecap:round;stroke-linejoin:miter;stroke-miterlimit:5;stroke-dasharray:none;stroke-opacity:1;paint-order:markers stroke fill" transform="rotate(144.81 76.533 91.5)scale(.0357)skewX(-.022)"/><path d="m842.84.09 5.614 10.19 10.68 4.617-7.957 8.489-1.091 11.583-10.532-4.944-11.353 2.542 1.447-11.544-5.926-10.012 11.426-2.19z" style="fill:#ff0;stroke:#ffd600;stroke-width:10.3331;stroke-linecap:round;stroke-linejoin:miter;stroke-miterlimit:5;stroke-dasharray:none;stroke-opacity:1;paint-order:markers stroke fill" transform="matrix(-.04974 -.00524 .00524 -.04977 199.482 145.048)"/><path d="m842.84.09 5.614 10.19 10.68 4.617-7.957 8.489-1.091 11.583-10.532-4.944-11.353 2.542 1.447-11.544-5.926-10.012 11.426-2.19z" style="fill:#ff0;stroke:#ffd600;stroke-width:7.6359;stroke-linecap:round;stroke-linejoin:miter;stroke-miterlimit:5;stroke-dasharray:none;stroke-opacity:1;paint-order:markers stroke fill" transform="rotate(226.73 132.52 47.677)scale(.0677)skewY(.035)"/><path d="m842.84.09 5.614 10.19 10.68 4.617-7.957 8.489-1.091 11.583-10.532-4.944-11.353 2.542 1.447-11.544-5.926-10.012 11.426-2.19z" style="fill:#ff0;stroke:#ffd600;stroke-width:6.71414;stroke-linecap:round;stroke-linejoin:miter;stroke-miterlimit:5;stroke-dasharray:none;stroke-opacity:1;paint-order:markers stroke fill" transform="matrix(-.00484 -.07686 .07681 -.00485 151.2 190.883)"/><path d="m842.84.09 5.614 10.19 10.68 4.617-7.957 8.489-1.091 11.583-10.532-4.944-11.353 2.542 1.447-11.544-5.926-10.012 11.426-2.19z" style="fill:#ff0;stroke:#ffd600;stroke-width:5.07868;stroke-linecap:round;stroke-linejoin:miter;stroke-miterlimit:5;stroke-dasharray:none;stroke-opacity:1;paint-order:markers stroke fill" transform="matrix(-.059 -.08295 .0829 -.05903 200.34 189.859)"/><path d="m842.84.09 5.614 10.19 10.68 4.617-7.957 8.489-1.091 11.583-10.532-4.944-11.353 2.542 1.447-11.544-5.926-10.012 11.426-2.19z" style="fill:#ff0;stroke:#ffd600;stroke-width:4.5373;stroke-linecap:round;stroke-linejoin:miter;stroke-miterlimit:5;stroke-dasharray:none;stroke-opacity:1;paint-order:markers stroke fill" transform="matrix(-.10547 -.043 .04298 -.10554 247.131 154.3)"/><path d="m842.84.09 5.614 10.19 10.68 4.617-7.957 8.489-1.091 11.583-10.532-4.944-11.353 2.542 1.447-11.544-5.926-10.012 11.426-2.19z" style="fill:#ff0;stroke:#ffd600;stroke-width:3.81062;stroke-linecap:round;stroke-linejoin:miter;stroke-miterlimit:5;stroke-dasharray:none;stroke-opacity:1;paint-order:markers stroke fill" transform="matrix(-.13384 .02184 -.02183 -.13393 278.898 102.643)"/><path d="m842.84.09 5.614 10.19 10.68 4.617-7.957 8.489-1.091 11.583-10.532-4.944-11.353 2.542 1.447-11.544-5.926-10.012 11.426-2.19z" style="fill:#ff0;stroke:#ffd600;stroke-width:3.02783;stroke-linecap:round;stroke-linejoin:miter;stroke-miterlimit:5;stroke-dasharray:none;stroke-opacity:1;paint-order:markers stroke fill" transform="matrix(-.1247 .1166 -.11653 -.12477 276.269 28.35)"/><path d="m842.84.09 5.614 10.19 10.68 4.617-7.957 8.489-1.091 11.583-10.532-4.944-11.353 2.542 1.447-11.544-5.926-10.012 11.426-2.19z" style="fill:#ff0;stroke:#ffd600;stroke-width:2.50311;stroke-linecap:round;stroke-linejoin:miter;stroke-miterlimit:5;stroke-dasharray:none;stroke-opacity:1;paint-order:markers stroke fill" transform="rotate(179.522 170.603 66.917)scale(.20645 .20658)"/><path d="m842.84.09 5.614 10.19 10.68 4.617-7.957 8.489-1.091 11.583-10.532-4.944-11.353 2.542 1.447-11.544-5.926-10.012 11.426-2.19z" style="fill:#ff0;stroke:#ffd600;stroke-width:2.2406;stroke-linecap:round;stroke-linejoin:miter;stroke-miterlimit:5;stroke-dasharray:none;stroke-opacity:1;paint-order:markers stroke fill" transform="matrix(-.19324 .12598 -.1259 -.19336 328.824 30.888)"/><path d="m842.84.09 5.614 10.19 10.68 4.617-7.957 8.489-1.091 11.583-10.532-4.944-11.353 2.542 1.447-11.544-5.926-10.012 11.426-2.19z" style="fill:#ff0;stroke:#ffd600;stroke-width:2.45258;stroke-linecap:round;stroke-linejoin:miter;stroke-miterlimit:5;stroke-dasharray:none;stroke-opacity:1;paint-order:markers stroke fill" transform="matrix(-.08805 .19154 -.19143 -.0881 236.918 -26.399)"/><path d="m842.84.09 5.614 10.19 10.68 4.617-7.957 8.489-1.091 11.583-10.532-4.944-11.353 2.542 1.447-11.544-5.926-10.012 11.426-2.19z" style="fill:#ff0;stroke:#ffd600;stroke-width:4.16307;stroke-linecap:round;stroke-linejoin:miter;stroke-miterlimit:5;stroke-dasharray:none;stroke-opacity:1;paint-order:markers stroke fill" transform="matrix(.01718 .12301 -.12294 .01719 144.142 26.352)"/><path d="m842.84.09 5.614 10.19 10.68 4.617-7.957 8.489-1.091 11.583-10.532-4.944-11.353 2.542 1.447-11.544-5.926-10.012 11.426-2.19z" style="fill:#ff0;stroke:#ffd600;stroke-width:56.238;stroke-linecap:round;stroke-linejoin:miter;stroke-miterlimit:5;stroke-dasharray:none;stroke-opacity:1;paint-order:markers stroke fill" transform="matrix(.00349 .0085 -.0085 .0035 136.04 114.584)"/><path d="m842.84.09 5.614 10.19 10.68 4.617-7.957 8.489-1.091 11.583-10.532-4.944-11.353 2.542 1.447-11.544-5.926-10.012 11.426-2.19z" style="fill:#ff0;stroke:#ffd600;stroke-width:18.8687;stroke-linecap:round;stroke-linejoin:miter;stroke-miterlimit:5;stroke-dasharray:none;stroke-opacity:1;paint-order:markers stroke fill" transform="matrix(-.00211 .02732 -.0273 -.00211 140.467 108.857)"/><path d="m842.84.09 5.614 10.19 10.68 4.617-7.957 8.489-1.091 11.583-10.532-4.944-11.353 2.542 1.447-11.544-5.926-10.012 11.426-2.19z" style="fill:#ff0;stroke:#ffd600;stroke-width:11.0903;stroke-linecap:round;stroke-linejoin:miter;stroke-miterlimit:5;stroke-dasharray:none;stroke-opacity:1;paint-order:markers stroke fill" transform="matrix(-.03832 .02653 -.02651 -.03834 164.385 117.278)"/><path d="m842.84.09 5.614 10.19 10.68 4.617-7.957 8.489-1.091 11.583-10.532-4.944-11.353 2.542 1.447-11.544-5.926-10.012 11.426-2.19z" style="fill:#ff0;stroke:#ffd600;stroke-width:8.34945;stroke-linecap:round;stroke-linejoin:miter;stroke-miterlimit:5;stroke-dasharray:none;stroke-opacity:1;paint-order:markers stroke fill" transform="matrix(-.0618 -.00353 .00353 -.06183 174.145 144.16)"/><path d="m842.84.09 5.614 10.19 10.68 4.617-7.957 8.489-1.091 11.583-10.532-4.944-11.353 2.542 1.447-11.544-5.926-10.012 11.426-2.19z" style="fill:#ff0;stroke:#ffd600;stroke-width:7.12063;stroke-linecap:round;stroke-linejoin:miter;stroke-miterlimit:5;stroke-dasharray:none;stroke-opacity:1;paint-order:markers stroke fill" transform="rotate(-136 114.92 57.318)scale(.0726)skewX(.035)"/><path d="m842.84.09 5.614 10.19 10.68 4.617-7.957 8.489-1.091 11.583-10.532-4.944-11.353 2.542 1.447-11.544-5.926-10.012 11.426-2.19z" style="fill:#ff0;stroke:#ffd600;stroke-width:6.19479;stroke-linecap:round;stroke-linejoin:miter;stroke-miterlimit:5;stroke-dasharray:none;stroke-opacity:1;paint-order:markers stroke fill" transform="matrix(-.0078 -.0831 .08305 -.0078 117.497 196.605)"/><path d="m842.84.09 5.614 10.19 10.68 4.617-7.957 8.489-1.091 11.583-10.532-4.944-11.353 2.542 1.447-11.544-5.926-10.012 11.426-2.19z" style="fill:#ff0;stroke:#ffd600;stroke-width:4.95305;stroke-linecap:round;stroke-linejoin:miter;stroke-miterlimit:5;stroke-dasharray:none;stroke-opacity:1;paint-order:markers stroke fill" transform="matrix(-.0605 -.08506 .085 -.06053 165.261 191.929)"/><path d="m842.84.09 5.614 10.19 10.68 4.617-7.957 8.489-1.091 11.583-10.532-4.944-11.353 2.542 1.447-11.544-5.926-10.012 11.426-2.19z" style="fill:#ff0;stroke:#ffd600;stroke-width:4.06618;stroke-linecap:round;stroke-linejoin:miter;stroke-miterlimit:5;stroke-dasharray:none;stroke-opacity:1;paint-order:markers stroke fill" transform="matrix(-.11943 -.04348 .04346 -.1195 222.541 154.944)"/><path d="m842.84.09 5.614 10.19 10.68 4.617-7.957 8.489-1.091 11.583-10.532-4.944-11.353 2.542 1.447-11.544-5.926-10.012 11.426-2.19z" style="fill:#ff0;stroke:#ffd600;stroke-width:3.33774;stroke-linecap:round;stroke-linejoin:miter;stroke-miterlimit:5;stroke-dasharray:none;stroke-opacity:1;paint-order:markers stroke fill" transform="matrix(-.15133 .03275 -.03273 -.15142 257.589 93.573)"/><path d="m842.84.09 5.614 10.19 10.68 4.617-7.957 8.489-1.091 11.583-10.532-4.944-11.353 2.542 1.447-11.544-5.926-10.012 11.426-2.19z" style="fill:#ff0;stroke:#ffd600;stroke-width:2.76189;stroke-linecap:round;stroke-linejoin:miter;stroke-miterlimit:5;stroke-dasharray:none;stroke-opacity:1;paint-order:markers stroke fill" transform="matrix(-.1332 .13148 -.1314 -.13329 247.638 15.697)"/><path d="m842.84.09 5.614 10.19 10.68 4.617-7.957 8.489-1.091 11.583-10.532-4.944-11.353 2.542 1.447-11.544-5.926-10.012 11.426-2.19z" style="fill:#ff0;stroke:#ffd600;stroke-width:2.31304;stroke-linecap:round;stroke-linejoin:miter;stroke-miterlimit:5;stroke-dasharray:none;stroke-opacity:1;paint-order:markers stroke fill" transform="matrix(-.22294 .01465 -.01464 -.22307 320.024 121.482)"/><path d="m842.84.09 5.614 10.19 10.68 4.617-7.957 8.489-1.091 11.583-10.532-4.944-11.353 2.542 1.447-11.544-5.926-10.012 11.426-2.19z" style="fill:#ff0;stroke:#ffd600;stroke-width:2.0394;stroke-linecap:round;stroke-linejoin:miter;stroke-miterlimit:5;stroke-dasharray:none;stroke-opacity:1;paint-order:markers stroke fill" transform="matrix(-.2038 .15068 -.15059 -.20392 302.363 10.061)"/><path d="m842.84.09 5.614 10.19 10.68 4.617-7.957 8.489-1.091 11.583-10.532-4.944-11.353 2.542 1.447-11.544-5.926-10.012 11.426-2.19z" style="fill:#ff0;stroke:#ffd600;stroke-width:3.07115;stroke-linecap:round;stroke-linejoin:miter;stroke-miterlimit:5;stroke-dasharray:none;stroke-opacity:1;paint-order:markers stroke fill" transform="matrix(-.07031 .15296 -.15287 -.07036 185.458 5.731)"/><path d="m842.84.09 5.614 10.19 10.68 4.617-7.957 8.489-1.091 11.583-10.532-4.944-11.353 2.542 1.447-11.544-5.926-10.012 11.426-2.19z" style="fill:#ff0;stroke:#ffd600;stroke-width:6.19813;stroke-linecap:round;stroke-linejoin:miter;stroke-miterlimit:5;stroke-dasharray:none;stroke-opacity:1;paint-order:markers stroke fill" transform="matrix(.0165 .08177 -.08172 .01652 108.232 61.147)"/><path d="m842.84.09 5.614 10.19 10.68 4.617-7.957 8.489-1.091 11.583-10.532-4.944-11.353 2.542 1.447-11.544-5.926-10.012 11.426-2.19z" style="fill:#ff0;stroke:#ffd600;stroke-width:17.434;stroke-linecap:round;stroke-linejoin:miter;stroke-miterlimit:5;stroke-dasharray:none;stroke-opacity:1;paint-order:markers stroke fill" transform="matrix(.0164 .0247 -.02469 .01641 89.366 99.061)"/><path d="m842.84.09 5.614 10.19 10.68 4.617-7.957 8.489-1.091 11.583-10.532-4.944-11.353 2.542 1.447-11.544-5.926-10.012 11.426-2.19z" style="fill:#ff0;stroke:#ffd600;stroke-width:12.4655;stroke-linecap:round;stroke-linejoin:miter;stroke-miterlimit:5;stroke-dasharray:none;stroke-opacity:1;paint-order:markers stroke fill" transform="matrix(-.00787 .04073 -.0407 -.00787 110.622 96.4)"/><path d="m842.84.09 5.614 10.19 10.68 4.617-7.957 8.489-1.091 11.583-10.532-4.944-11.353 2.542 1.447-11.544-5.926-10.012 11.426-2.19z" style="fill:#ff0;stroke:#ffd600;stroke-width:8.29153;stroke-linecap:round;stroke-linejoin:miter;stroke-miterlimit:5;stroke-dasharray:none;stroke-opacity:1;paint-order:markers stroke fill" transform="rotate(136.41 47.374 78.792)scale(.06234)skewX(-.035)"/><path d="m842.84.09 5.614 10.19 10.68 4.617-7.957 8.489-1.091 11.583-10.532-4.944-11.353 2.542 1.447-11.544-5.926-10.012 11.426-2.19z" style="fill:#ff0;stroke:#ffd600;stroke-width:6.64308;stroke-linecap:round;stroke-linejoin:miter;stroke-miterlimit:5;stroke-dasharray:none;stroke-opacity:1;paint-order:markers stroke fill" transform="rotate(179.551 76.337 71.046)scale(.0778 .07784)"/><path d="m842.84.09 5.614 10.19 10.68 4.617-7.957 8.489-1.091 11.583-10.532-4.944-11.353 2.542 1.447-11.544-5.926-10.012 11.426-2.19z" style="fill:#ff0;stroke:#ffd600;stroke-width:5.93708;stroke-linecap:round;stroke-linejoin:miter;stroke-miterlimit:5;stroke-dasharray:none;stroke-opacity:1;paint-order:markers stroke fill" transform="matrix(-.06992 -.05187 .05184 -.06996 137.428 181.142)"/><path d="m842.84.09 5.614 10.19 10.68 4.617-7.957 8.489-1.091 11.583-10.532-4.944-11.353 2.542 1.447-11.544-5.926-10.012 11.426-2.19z" style="fill:#ff0;stroke:#ffd600;stroke-width:5.10106;stroke-linecap:round;stroke-linejoin:miter;stroke-miterlimit:5;stroke-dasharray:none;stroke-opacity:1;paint-order:markers stroke fill" transform="matrix(-.019 -.09957 .09951 -.019 90.542 212.13)"/><path d="m842.84.09 5.614 10.19 10.68 4.617-7.957 8.489-1.091 11.583-10.532-4.944-11.353 2.542 1.447-11.544-5.926-10.012 11.426-2.19z" style="fill:#ff0;stroke:#ffd600;stroke-width:4.13364;stroke-linecap:round;stroke-linejoin:miter;stroke-miterlimit:5;stroke-dasharray:none;stroke-opacity:1;paint-order:markers stroke fill" transform="matrix(-.08415 -.0925 .09245 -.0842 148.196 199.558)"/><path d="m842.84.09 5.614 10.19 10.68 4.617-7.957 8.489-1.091 11.583-10.532-4.944-11.353 2.542 1.447-11.544-5.926-10.012 11.426-2.19z" style="fill:#ff0;stroke:#ffd600;stroke-width:3.30882;stroke-linecap:round;stroke-linejoin:miter;stroke-miterlimit:5;stroke-dasharray:none;stroke-opacity:1;paint-order:markers stroke fill" transform="matrix(-.15112 -.03944 .03942 -.15121 212.234 152.389)"/><path d="m842.84.09 5.614 10.19 10.68 4.617-7.957 8.489-1.091 11.583-10.532-4.944-11.353 2.542 1.447-11.544-5.926-10.012 11.426-2.19z" style="fill:#ff0;stroke:#ffd600;stroke-width:2.69918;stroke-linecap:round;stroke-linejoin:miter;stroke-miterlimit:5;stroke-dasharray:none;stroke-opacity:1;paint-order:markers stroke fill" transform="matrix(-.18116 .06197 -.06193 -.18127 246.33 69.185)"/><path d="m842.84.09 5.614 10.19 10.68 4.617-7.957 8.489-1.091 11.583-10.532-4.944-11.353 2.542 1.447-11.544-5.926-10.012 11.426-2.19z" style="fill:#ff0;stroke:#ffd600;stroke-width:2.31199;stroke-linecap:round;stroke-linejoin:miter;stroke-miterlimit:5;stroke-dasharray:none;stroke-opacity:1;paint-order:markers stroke fill" transform="matrix(-.14392 .17112 -.17102 -.144 220.985 -18.183)"/><path d="m842.84.09 5.614 10.19 10.68 4.617-7.957 8.489-1.091 11.583-10.532-4.944-11.353 2.542 1.447-11.544-5.926-10.012 11.426-2.19z" style="fill:#ff0;stroke:#ffd600;stroke-width:1.96809;stroke-linecap:round;stroke-linejoin:miter;stroke-miterlimit:5;stroke-dasharray:none;stroke-opacity:1;paint-order:markers stroke fill" transform="matrix(-.25805 .04857 -.04854 -.2582 314.217 92.707)"/><path d="m842.84.09 5.614 10.19 10.68 4.617-7.957 8.489-1.091 11.583-10.532-4.944-11.353 2.542 1.447-11.544-5.926-10.012 11.426-2.19z" style="fill:#ff0;stroke:#ffd600;stroke-width:3.0446;stroke-linecap:round;stroke-linejoin:miter;stroke-miterlimit:5;stroke-dasharray:none;stroke-opacity:1;paint-order:markers stroke fill" transform="matrix(-.12659 .11314 -.11307 -.12666 201.24 39.581)"/><path d="m842.84.09 5.614 10.19 10.68 4.617-7.957 8.489-1.091 11.583-10.532-4.944-11.353 2.542 1.447-11.544-5.926-10.012 11.426-2.19z" style="fill:#ff0;stroke:#ffd600;stroke-width:6.19813;stroke-linecap:round;stroke-linejoin:miter;stroke-miterlimit:5;stroke-dasharray:none;stroke-opacity:1;paint-order:markers stroke fill" transform="matrix(-.01945 .08112 -.08107 -.01946 106.206 64.748)"/><path d="m842.84.09 5.614 10.19 10.68 4.617-7.957 8.489-1.091 11.583-10.532-4.944-11.353 2.542 1.447-11.544-5.926-10.012 11.426-2.19z" style="fill:#ff0;stroke:#ffd600;stroke-width:10.3353;stroke-linecap:round;stroke-linejoin:miter;stroke-miterlimit:5;stroke-dasharray:none;stroke-opacity:1;paint-order:markers stroke fill" transform="matrix(.0321 .03836 -.03834 .03212 39.835 84.801)"/><path d="m842.84.09 5.614 10.19 10.68 4.617-7.957 8.489-1.091 11.583-10.532-4.944-11.353 2.542 1.447-11.544-5.926-10.012 11.426-2.19z" style="fill:#ff0;stroke:#ffd600;stroke-width:9.17694;stroke-linecap:round;stroke-linejoin:miter;stroke-miterlimit:5;stroke-dasharray:none;stroke-opacity:1;paint-order:markers stroke fill" transform="matrix(.00185 .05632 -.05628 .00185 67.772 80.92)"/><path d="m842.84.09 5.614 10.19 10.68 4.617-7.957 8.489-1.091 11.583-10.532-4.944-11.353 2.542 1.447-11.544-5.926-10.012 11.426-2.19z" style="fill:#ff0;stroke:#ffd600;stroke-width:6.42543;stroke-linecap:round;stroke-linejoin:miter;stroke-miterlimit:5;stroke-dasharray:none;stroke-opacity:1;paint-order:markers stroke fill" transform="matrix(-.04825 .06438 -.06434 -.04828 105.095 84.045)"/><path d="m842.84.09 5.614 10.19 10.68 4.617-7.957 8.489-1.091 11.583-10.532-4.944-11.353 2.542 1.447-11.544-5.926-10.012 11.426-2.19z" style="fill:#ff0;stroke:#ffd600;stroke-width:5.1232;stroke-linecap:round;stroke-linejoin:miter;stroke-miterlimit:5;stroke-dasharray:none;stroke-opacity:1;paint-order:markers stroke fill" transform="matrix(-.09951 .0165 -.01648 -.09957 138.072 128.875)"/><path d="m842.84.09 5.614 10.19 10.68 4.617-7.957 8.489-1.091 11.583-10.532-4.944-11.353 2.542 1.447-11.544-5.926-10.012 11.426-2.19z" style="fill:#ff0;stroke:#ffd600;stroke-width:4.65835;stroke-linecap:round;stroke-linejoin:miter;stroke-miterlimit:5;stroke-dasharray:none;stroke-opacity:1;paint-order:markers stroke fill" transform="matrix(-.09765 -.05267 .05264 -.0977 126.273 183.88)"/><path d="m842.84.09 5.614 10.19 10.68 4.617-7.957 8.489-1.091 11.583-10.532-4.944-11.353 2.542 1.447-11.544-5.926-10.012 11.426-2.19z" style="fill:#ff0;stroke:#ffd600;stroke-width:3.95112;stroke-linecap:round;stroke-linejoin:miter;stroke-miterlimit:5;stroke-dasharray:none;stroke-opacity:1;paint-order:markers stroke fill" transform="matrix(-.04392 -.12327 .1232 -.04395 75.482 234.548)"/><path d="m842.84.09 5.614 10.19 10.68 4.617-7.957 8.489-1.091 11.583-10.532-4.944-11.353 2.542 1.447-11.544-5.926-10.012 11.426-2.19z" style="fill:#ff0;stroke:#ffd600;stroke-width:3.08247;stroke-linecap:round;stroke-linejoin:miter;stroke-miterlimit:5;stroke-dasharray:none;stroke-opacity:1;paint-order:markers stroke fill" transform="matrix(-.1341 -.10067 .10061 -.13418 153.356 209.02)"/><path d="m842.84.09 5.614 10.19 10.68 4.617-7.957 8.489-1.091 11.583-10.532-4.944-11.353 2.542 1.447-11.544-5.926-10.012 11.426-2.19z" style="fill:#ff0;stroke:#ffd600;stroke-width:2.5284;stroke-linecap:round;stroke-linejoin:miter;stroke-miterlimit:5;stroke-dasharray:none;stroke-opacity:1;paint-order:markers stroke fill" transform="matrix(-.20344 -.01965 .01964 -.20356 219.172 137.521)"/><path d="m842.84.09 5.614 10.19 10.68 4.617-7.957 8.489-1.091 11.583-10.532-4.944-11.353 2.542 1.447-11.544-5.926-10.012 11.426-2.19z" style="fill:#ff0;stroke:#ffd600;stroke-width:2.18066;stroke-linecap:round;stroke-linejoin:miter;stroke-miterlimit:5;stroke-dasharray:none;stroke-opacity:1;paint-order:markers stroke fill" transform="matrix(-.21253 .1049 -.10483 -.21266 236.05 33.478)"/><path d="m842.84.09 5.614 10.19 10.68 4.617-7.957 8.489-1.091 11.583-10.532-4.944-11.353 2.542 1.447-11.544-5.926-10.012 11.426-2.19z" style="fill:#ff0;stroke:#ffd600;stroke-width:2.48549;stroke-linecap:round;stroke-linejoin:miter;stroke-miterlimit:5;stroke-dasharray:none;stroke-opacity:1;paint-order:markers stroke fill" transform="matrix(-.1051 .1795 -.1794 -.10517 151.323 -26.854)"/><path d="m842.84.09 5.614 10.19 10.68 4.617-7.957 8.489-1.091 11.583-10.532-4.944-11.353 2.542 1.447-11.544-5.926-10.012 11.426-2.19z" style="fill:#ff0;stroke:#ffd600;stroke-width:4.23137;stroke-linecap:round;stroke-linejoin:miter;stroke-miterlimit:5;stroke-dasharray:none;stroke-opacity:1;paint-order:markers stroke fill" transform="matrix(-.11521 .04053 -.0405 -.11528 157.549 95.635)"/><path d="m842.84.09 5.614 10.19 10.68 4.617-7.957 8.489-1.091 11.583-10.532-4.944-11.353 2.542 1.447-11.544-5.926-10.012 11.426-2.19z" style="fill:#ff0;stroke:#ffd600;stroke-width:14.7043;stroke-linecap:round;stroke-linejoin:miter;stroke-miterlimit:5;stroke-dasharray:none;stroke-opacity:1;paint-order:markers stroke fill" transform="matrix(-.02289 .02668 -.02667 -.0229 76.782 108.937)"/><path d="m842.84.09 5.614 10.19 10.68 4.617-7.957 8.489-1.091 11.583-10.532-4.944-11.353 2.542 1.447-11.544-5.926-10.012 11.426-2.19z" style="fill:#ff0;stroke:#ffd600;stroke-width:7.68294;stroke-linecap:round;stroke-linejoin:miter;stroke-miterlimit:5;stroke-dasharray:none;stroke-opacity:1;paint-order:markers stroke fill" transform="matrix(.04888 .04623 -.0462 .0489 -10.84 76.221)"/><path d="m842.84.09 5.614 10.19 10.68 4.617-7.957 8.489-1.091 11.583-10.532-4.944-11.353 2.542 1.447-11.544-5.926-10.012 11.426-2.19z" style="fill:#ff0;stroke:#ffd600;stroke-width:6.65952;stroke-linecap:round;stroke-linejoin:miter;stroke-miterlimit:5;stroke-dasharray:none;stroke-opacity:1;paint-order:markers stroke fill" transform="matrix(.00706 .07732 -.07728 .00707 28.212 61.332)"/><path d="m842.84.09 5.614 10.19 10.68 4.617-7.957 8.489-1.091 11.583-10.532-4.944-11.353 2.542 1.447-11.544-5.926-10.012 11.426-2.19z" style="fill:#ff0;stroke:#ffd600;stroke-width:5.26556;stroke-linecap:round;stroke-linejoin:miter;stroke-miterlimit:5;stroke-dasharray:none;stroke-opacity:1;paint-order:markers stroke fill" transform="matrix(-.05371 .08219 -.08214 -.05374 75.298 68.136)"/><path d="m842.84.09 5.614 10.19 10.68 4.617-7.957 8.489-1.091 11.583-10.532-4.944-11.353 2.542 1.447-11.544-5.926-10.012 11.426-2.19z" style="fill:#ff0;stroke:#ffd600;stroke-width:4.59012;stroke-linecap:round;stroke-linejoin:miter;stroke-miterlimit:5;stroke-dasharray:none;stroke-opacity:1;paint-order:markers stroke fill" transform="matrix(-.10815 .0313 -.03129 -.10821 111.148 116.42)"/><path d="m842.84.09 5.614 10.19 10.68 4.617-7.957 8.489-1.091 11.583-10.532-4.944-11.353 2.542 1.447-11.544-5.926-10.012 11.426-2.19z" style="fill:#ff0;stroke:#ffd600;stroke-width:3.91436;stroke-linecap:round;stroke-linejoin:miter;stroke-miterlimit:5;stroke-dasharray:none;stroke-opacity:1;paint-order:markers stroke fill" transform="matrix(-.121 -.05284 .0528 -.12107 111.224 185.123)"/><path d="m842.84.09 5.614 10.19 10.68 4.617-7.957 8.489-1.091 11.583-10.532-4.944-11.353 2.542 1.447-11.544-5.926-10.012 11.426-2.19z" style="fill:#ff0;stroke:#ffd600;stroke-width:3.13115;stroke-linecap:round;stroke-linejoin:miter;stroke-miterlimit:5;stroke-dasharray:none;stroke-opacity:1;paint-order:markers stroke fill" transform="matrix(-.07384 -.1477 .1476 -.07388 64.833 256.766)"/><path d="m842.84.09 5.614 10.19 10.68 4.617-7.957 8.489-1.091 11.583-10.532-4.944-11.353 2.542 1.447-11.544-5.926-10.012 11.426-2.19z" style="fill:#ff0;stroke:#ffd600;stroke-width:2.54166;stroke-linecap:round;stroke-linejoin:miter;stroke-miterlimit:5;stroke-dasharray:none;stroke-opacity:1;paint-order:markers stroke fill" transform="matrix(-.1741 -.10507 .10501 -.1742 150.75 214.684)"/><path d="m842.84.09 5.614 10.19 10.68 4.617-7.957 8.489-1.091 11.583-10.532-4.944-11.353 2.542 1.447-11.544-5.926-10.012 11.426-2.19z" style="fill:#ff0;stroke:#ffd600;stroke-width:2.19596;stroke-linecap:round;stroke-linejoin:miter;stroke-miterlimit:5;stroke-dasharray:none;stroke-opacity:1;paint-order:markers stroke fill" transform="rotate(179.402 104.542 60.762)scale(.23533 .23547)"/><path d="m842.84.09 5.614 10.19 10.68 4.617-7.957 8.489-1.091 11.583-10.532-4.944-11.353 2.542 1.447-11.544-5.926-10.012 11.426-2.19z" style="fill:#ff0;stroke:#ffd600;stroke-width:2.38124;stroke-linecap:round;stroke-linejoin:miter;stroke-miterlimit:5;stroke-dasharray:none;stroke-opacity:1;paint-order:markers stroke fill" transform="matrix(-.18149 .11906 -.11899 -.1816 173.193 21.33)"/><path d="m842.84.09 5.614 10.19 10.68 4.617-7.957 8.489-1.091 11.583-10.532-4.944-11.353 2.542 1.447-11.544-5.926-10.012 11.426-2.19z" style="fill:#ff0;stroke:#ffd600;stroke-width:4.12303;stroke-linecap:round;stroke-linejoin:miter;stroke-miterlimit:5;stroke-dasharray:none;stroke-opacity:1;paint-order:markers stroke fill" transform="matrix(-.05238 .11394 -.11387 -.0524 68.884 26.994)"/><path d="m842.84.09 5.614 10.19 10.68 4.617-7.957 8.489-1.091 11.583-10.532-4.944-11.353 2.542 1.447-11.544-5.926-10.012 11.426-2.19z" style="fill:#ff0;stroke:#ffd600;stroke-width:17.1548;stroke-linecap:round;stroke-linejoin:miter;stroke-miterlimit:5;stroke-dasharray:none;stroke-opacity:1;paint-order:markers stroke fill" transform="matrix(-.0253 .01635 -.01634 -.02532 44.877 113.392)"/><path d="m842.84.09 5.614 10.19 10.68 4.617-7.957 8.489-1.091 11.583-10.532-4.944-11.353 2.542 1.447-11.544-5.926-10.012 11.426-2.19z" style="fill:#ff0;stroke:#ffd600;stroke-width:6.9839;stroke-linecap:round;stroke-linejoin:miter;stroke-miterlimit:5;stroke-dasharray:none;stroke-opacity:1;paint-order:markers stroke fill" transform="matrix(.05807 .04589 -.04586 .0581 124.573 39.702)"/><path d="m842.84.09 5.614 10.19 10.68 4.617-7.957 8.489-1.091 11.583-10.532-4.944-11.353 2.542 1.447-11.544-5.926-10.012 11.426-2.19z" style="fill:#ff0;stroke:#ffd600;stroke-width:6.09715;stroke-linecap:round;stroke-linejoin:miter;stroke-miterlimit:5;stroke-dasharray:none;stroke-opacity:1;paint-order:markers stroke fill" transform="matrix(.01047 .08416 -.0841 .01048 169.198 18.749)"/><path d="m842.84.09 5.614 10.19 10.68 4.617-7.957 8.489-1.091 11.583-10.532-4.944-11.353 2.542 1.447-11.544-5.926-10.012 11.426-2.19z" style="fill:#ff0;stroke:#ffd600;stroke-width:4.90541;stroke-linecap:round;stroke-linejoin:miter;stroke-miterlimit:5;stroke-dasharray:none;stroke-opacity:1;paint-order:markers stroke fill" transform="matrix(-.05122 .09211 -.09206 -.05125 217.588 23.256)"/><path d="m842.84.09 5.614 10.19 10.68 4.617-7.957 8.489-1.091 11.583-10.532-4.944-11.353 2.542 1.447-11.544-5.926-10.012 11.426-2.19z" style="fill:#ff0;stroke:#ffd600;stroke-width:4.17684;stroke-linecap:round;stroke-linejoin:miter;stroke-miterlimit:5;stroke-dasharray:none;stroke-opacity:1;paint-order:markers stroke fill" transform="matrix(-.11616 .04263 -.0426 -.11623 262.472 70.93)"/><path d="m842.84.09 5.614 10.19 10.68 4.617-7.957 8.489-1.091 11.583-10.532-4.944-11.353 2.542 1.447-11.544-5.926-10.012 11.426-2.19z" style="fill:#ff0;stroke:#ffd600;stroke-width:3.32587;stroke-linecap:round;stroke-linejoin:miter;stroke-miterlimit:5;stroke-dasharray:none;stroke-opacity:1;paint-order:markers stroke fill" transform="matrix(-.14561 -.05425 .05422 -.1457 276.207 151.05)"/><path d="m842.84.09 5.614 10.19 10.68 4.617-7.957 8.489-1.091 11.583-10.532-4.944-11.353 2.542 1.447-11.544-5.926-10.012 11.426-2.19z" style="fill:#ff0;stroke:#ffd600;stroke-width:2.84675;stroke-linecap:round;stroke-linejoin:miter;stroke-miterlimit:5;stroke-dasharray:none;stroke-opacity:1;paint-order:markers stroke fill" transform="matrix(-.0917 -.16147 .16137 -.09175 223.541 233.289)"/><path d="m842.84.09 5.614 10.19 10.68 4.617-7.957 8.489-1.091 11.583-10.532-4.944-11.353 2.542 1.447-11.544-5.926-10.012 11.426-2.19z" style="fill:#ff0;stroke:#ffd600;stroke-width:2.36862;stroke-linecap:round;stroke-linejoin:miter;stroke-miterlimit:5;stroke-dasharray:none;stroke-opacity:1;paint-order:markers stroke fill" transform="matrix(-.19305 -.1017 .10164 -.19317 310.38 176.88)"/><path d="m842.84.09 5.614 10.19 10.68 4.617-7.957 8.489-1.091 11.583-10.532-4.944-11.353 2.542 1.447-11.544-5.926-10.012 11.426-2.19z" style="fill:#ff0;stroke:#ffd600;stroke-width:1.9944;stroke-linecap:round;stroke-linejoin:miter;stroke-miterlimit:5;stroke-dasharray:none;stroke-opacity:1;paint-order:markers stroke fill" transform="matrix(-.2587 .01455 -.01454 -.25886 372.97 75.302)"/><path d="m842.84.09 5.614 10.19 10.68 4.617-7.957 8.489-1.091 11.583-10.532-4.944-11.353 2.542 1.447-11.544-5.926-10.012 11.426-2.19z" style="fill:#ff0;stroke:#ffd600;stroke-width:3.0912;stroke-linecap:round;stroke-linejoin:miter;stroke-miterlimit:5;stroke-dasharray:none;stroke-opacity:1;paint-order:markers stroke fill" transform="matrix(-.13508 .09856 -.0985 -.13516 277.02 2.078)"/><path d="m842.84.09 5.614 10.19 10.68 4.617-7.957 8.489-1.091 11.583-10.532-4.944-11.353 2.542 1.447-11.544-5.926-10.012 11.426-2.19z" style="fill:#ff0;stroke:#ffd600;stroke-width:6.22611;stroke-linecap:round;stroke-linejoin:miter;stroke-miterlimit:5;stroke-dasharray:none;stroke-opacity:1;paint-order:markers stroke fill" transform="matrix(-.02831 .07807 -.07802 -.02833 191.124 20.764)"/><path d="m842.84.09 5.614 10.19 10.68 4.617-7.957 8.489-1.091 11.583-10.532-4.944-11.353 2.542 1.447-11.544-5.926-10.012 11.426-2.19z" style="fill:#ff0;stroke:#ffd600;stroke-width:5.51552;stroke-linecap:round;stroke-linejoin:miter;stroke-miterlimit:5;stroke-dasharray:none;stroke-opacity:1;paint-order:markers stroke fill" transform="matrix(.07672 .05382 -.05379 .07676 71.981 31.357)"/><path d="m842.84.09 5.614 10.19 10.68 4.617-7.957 8.489-1.091 11.583-10.532-4.944-11.353 2.542 1.447-11.544-5.926-10.012 11.426-2.19z" style="fill:#ff0;stroke:#ffd600;stroke-width:4.95412;stroke-linecap:round;stroke-linejoin:miter;stroke-miterlimit:5;stroke-dasharray:none;stroke-opacity:1;paint-order:markers stroke fill" transform="matrix(.02913 .10022 -.10016 .02915 117.48 3.287)"/><path d="m842.84.09 5.614 10.19 10.68 4.617-7.957 8.489-1.091 11.583-10.532-4.944-11.353 2.542 1.447-11.544-5.926-10.012 11.426-2.19z" style="fill:#ff0;stroke:#ffd600;stroke-width:4.27645;stroke-linecap:round;stroke-linejoin:miter;stroke-miterlimit:5;stroke-dasharray:none;stroke-opacity:1;paint-order:markers stroke fill" transform="matrix(-.04828 .11085 -.11078 -.0483 180.364 6.013)"/><path d="m842.84.09 5.614 10.19 10.68 4.617-7.957 8.489-1.091 11.583-10.532-4.944-11.353 2.542 1.447-11.544-5.926-10.012 11.426-2.19z" style="fill:#ff0;stroke:#ffd600;stroke-width:3.53594;stroke-linecap:round;stroke-linejoin:miter;stroke-miterlimit:5;stroke-dasharray:none;stroke-opacity:1;paint-order:markers stroke fill" transform="matrix(-.13036 .06612 -.06608 -.13044 240.332 50.92)"/><path d="m842.84.09 5.614 10.19 10.68 4.617-7.957 8.489-1.091 11.583-10.532-4.944-11.353 2.542 1.447-11.544-5.926-10.012 11.426-2.19z" style="fill:#ff0;stroke:#ffd600;stroke-width:2.80627;stroke-linecap:round;stroke-linejoin:miter;stroke-miterlimit:5;stroke-dasharray:none;stroke-opacity:1;paint-order:markers stroke fill" transform="matrix(-.17862 -.04483 .0448 -.17872 269.56 144.056)"/><path d="m842.84.09 5.614 10.19 10.68 4.617-7.957 8.489-1.091 11.583-10.532-4.944-11.353 2.542 1.447-11.544-5.926-10.012 11.426-2.19z" style="fill:#ff0;stroke:#ffd600;stroke-width:2.3861;stroke-linecap:round;stroke-linejoin:miter;stroke-miterlimit:5;stroke-dasharray:none;stroke-opacity:1;paint-order:markers stroke fill" transform="matrix(-.12807 -.17476 .17465 -.12814 218.977 246.046)"/><path d="m842.84.09 5.614 10.19 10.68 4.617-7.957 8.489-1.091 11.583-10.532-4.944-11.353 2.542 1.447-11.544-5.926-10.012 11.426-2.19z" style="fill:#ff0;stroke:#ffd600;stroke-width:2.00399;stroke-linecap:round;stroke-linejoin:miter;stroke-miterlimit:5;stroke-dasharray:none;stroke-opacity:1;paint-order:markers stroke fill" transform="matrix(-.23998 -.09443 .09437 -.24013 314.523 172.796)"/><path d="m842.84.09 5.614 10.19 10.68 4.617-7.957 8.489-1.091 11.583-10.532-4.944-11.353 2.542 1.447-11.544-5.926-10.012 11.426-2.19z" style="fill:#ff0;stroke:#ffd600;stroke-width:3.13921;stroke-linecap:round;stroke-linejoin:miter;stroke-miterlimit:5;stroke-dasharray:none;stroke-opacity:1;paint-order:markers stroke fill" transform="matrix(-.16208 .0288 -.02878 -.16218 255.71 62.652)"/><path d="m842.84.09 5.614 10.19 10.68 4.617-7.957 8.489-1.091 11.583-10.532-4.944-11.353 2.542 1.447-11.544-5.926-10.012 11.426-2.19z" style="fill:#ff0;stroke:#ffd600;stroke-width:6.30842;stroke-linecap:round;stroke-linejoin:miter;stroke-miterlimit:5;stroke-dasharray:none;stroke-opacity:1;paint-order:markers stroke fill" transform="rotate(136.75 80.62 53.489)scale(.08194)skewX(-.04)"/><path d="m842.84.09 5.614 10.19 10.68 4.617-7.957 8.489-1.091 11.583-10.532-4.944-11.353 2.542 1.447-11.544-5.926-10.012 11.426-2.19z" style="fill:#ff0;stroke:#ffd600;stroke-width:5.39653;stroke-linecap:round;stroke-linejoin:miter;stroke-miterlimit:5;stroke-dasharray:none;stroke-opacity:1;paint-order:markers stroke fill" transform="matrix(.08025 .05227 -.05224 .0803 32.405 32.026)"/><path d="m842.84.09 5.614 10.19 10.68 4.617-7.957 8.489-1.091 11.583-10.532-4.944-11.353 2.542 1.447-11.544-5.926-10.012 11.426-2.19z" style="fill:#ff0;stroke:#ffd600;stroke-width:4.33933;stroke-linecap:round;stroke-linejoin:miter;stroke-miterlimit:5;stroke-dasharray:none;stroke-opacity:1;paint-order:markers stroke fill" transform="matrix(.03805 .11292 -.11285 .03808 74.078 -8.367)"/><path d="m842.84.09 5.614 10.19 10.68 4.617-7.957 8.489-1.091 11.583-10.532-4.944-11.353 2.542 1.447-11.544-5.926-10.012 11.426-2.19z" style="fill:#ff0;stroke:#ffd600;stroke-width:3.83998;stroke-linecap:round;stroke-linejoin:miter;stroke-miterlimit:5;stroke-dasharray:none;stroke-opacity:1;paint-order:markers stroke fill" transform="matrix(-.05297 .12379 -.12371 -.053 148.925 -5.454)"/><path d="m842.84.09 5.614 10.19 10.68 4.617-7.957 8.489-1.091 11.583-10.532-4.944-11.353 2.542 1.447-11.544-5.926-10.012 11.426-2.19z" style="fill:#ff0;stroke:#ffd600;stroke-width:2.98645;stroke-linecap:round;stroke-linejoin:miter;stroke-miterlimit:5;stroke-dasharray:none;stroke-opacity:1;paint-order:markers stroke fill" transform="matrix(-.15185 .08301 -.08296 -.15194 223.443 36.753)"/><path d="m842.84.09 5.614 10.19 10.68 4.617-7.957 8.489-1.091 11.583-10.532-4.944-11.353 2.542 1.447-11.544-5.926-10.012 11.426-2.19z" style="fill:#ff0;stroke:#ffd600;stroke-width:2.51848;stroke-linecap:round;stroke-linejoin:miter;stroke-miterlimit:5;stroke-dasharray:none;stroke-opacity:1;paint-order:markers stroke fill" transform="matrix(-.20123 -.04014 .04011 -.20135 253.518 140.557)"/><path d="m842.84.09 5.614 10.19 10.68 4.617-7.957 8.489-1.091 11.583-10.532-4.944-11.353 2.542 1.447-11.544-5.926-10.012 11.426-2.19z" style="fill:#ff0;stroke:#ffd600;stroke-width:2.19702;stroke-linecap:round;stroke-linejoin:miter;stroke-miterlimit:5;stroke-dasharray:none;stroke-opacity:1;paint-order:markers stroke fill" transform="matrix(-.148 -.18293 .18282 -.14808 200.242 253.583)"/><path d="m842.84.09 5.614 10.19 10.68 4.617-7.957 8.489-1.091 11.583-10.532-4.944-11.353 2.542 1.447-11.544-5.926-10.012 11.426-2.19z" style="fill:#ff0;stroke:#ffd600;stroke-width:2.47689;stroke-linecap:round;stroke-linejoin:miter;stroke-miterlimit:5;stroke-dasharray:none;stroke-opacity:1;paint-order:markers stroke fill" transform="matrix(-.19873 -.06357 .06353 -.19885 244.687 146.7)"/><path d="m842.84.09 5.614 10.19 10.68 4.617-7.957 8.489-1.091 11.583-10.532-4.944-11.353 2.542 1.447-11.544-5.926-10.012 11.426-2.19z" style="fill:#ff0;stroke:#ffd600;stroke-width:4.14383;stroke-linecap:round;stroke-linejoin:miter;stroke-miterlimit:5;stroke-dasharray:none;stroke-opacity:1;paint-order:markers stroke fill" transform="matrix(-.12143 .02841 -.0284 -.1215 185.541 62.953)"/><path d="m842.84.09 5.614 10.19 10.68 4.617-7.957 8.489-1.091 11.583-10.532-4.944-11.353 2.542 1.447-11.544-5.926-10.012 11.426-2.19z" style="fill:#ff0;stroke:#ffd600;stroke-width:12.364;stroke-linecap:round;stroke-linejoin:miter;stroke-miterlimit:5;stroke-dasharray:none;stroke-opacity:1;paint-order:markers stroke fill" transform="matrix(-.02629 .03251 -.0325 -.0263 111.184 56.879)"/><path d="m842.84.09 5.614 10.19 10.68 4.617-7.957 8.489-1.091 11.583-10.532-4.944-11.353 2.542 1.447-11.544-5.926-10.012 11.426-2.19z" style="fill:#ff0;stroke:#ffd600;stroke-width:5.06037;stroke-linecap:round;stroke-linejoin:miter;stroke-miterlimit:5;stroke-dasharray:none;stroke-opacity:1;paint-order:markers stroke fill" transform="matrix(.09052 .0473 -.04728 .09057 -12.94 35.5)"/><path d="m842.84.09 5.614 10.19 10.68 4.617-7.957 8.489-1.091 11.583-10.532-4.944-11.353 2.542 1.447-11.544-5.926-10.012 11.426-2.19z" style="fill:#ff0;stroke:#ffd600;stroke-width:4.25;stroke-linecap:round;stroke-linejoin:miter;stroke-miterlimit:5;stroke-dasharray:none;stroke-opacity:1;paint-order:markers stroke fill" transform="matrix(.04588 .11267 -.1126 .04591 31.579 -9.14)"/><path d="m842.84.09 5.614 10.19 10.68 4.617-7.957 8.489-1.091 11.583-10.532-4.944-11.353 2.542 1.447-11.544-5.926-10.012 11.426-2.19z" style="fill:#ff0;stroke:#ffd600;stroke-width:3.27692;stroke-linecap:round;stroke-linejoin:miter;stroke-miterlimit:5;stroke-dasharray:none;stroke-opacity:1;paint-order:markers stroke fill" transform="matrix(-.05136 .1492 -.1491 -.05139 112.324 -27.625)"/><path d="m842.84.09 5.614 10.19 10.68 4.617-7.957 8.489-1.091 11.583-10.532-4.944-11.353 2.542 1.447-11.544-5.926-10.012 11.426-2.19z" style="fill:#ff0;stroke:#ffd600;stroke-width:2.78119;stroke-linecap:round;stroke-linejoin:miter;stroke-miterlimit:5;stroke-dasharray:none;stroke-opacity:1;paint-order:markers stroke fill" transform="matrix(-.15567 .1015 -.10145 -.15577 191.644 20.693)"/><path d="m842.84.09 5.614 10.19 10.68 4.617-7.957 8.489-1.091 11.583-10.532-4.944-11.353 2.542 1.447-11.544-5.926-10.012 11.426-2.19z" style="fill:#ff0;stroke:#ffd600;stroke-width:2.31832;stroke-linecap:round;stroke-linejoin:miter;stroke-miterlimit:5;stroke-dasharray:none;stroke-opacity:1;paint-order:markers stroke fill" transform="matrix(-.22054 -.0324 .03239 -.22068 234.802 134.287)"/><path d="m842.84.09 5.614 10.19 10.68 4.617-7.957 8.489-1.091 11.583-10.532-4.944-11.353 2.542 1.447-11.544-5.926-10.012 11.426-2.19z" style="fill:#ff0;stroke:#ffd600;stroke-width:2.01953;stroke-linecap:round;stroke-linejoin:miter;stroke-miterlimit:5;stroke-dasharray:none;stroke-opacity:1;paint-order:markers stroke fill" transform="matrix(-.17011 -.19127 .19115 -.17022 183.385 261.31)"/><path d="m842.84.09 5.614 10.19 10.68 4.617-7.957 8.489-1.091 11.583-10.532-4.944-11.353 2.542 1.447-11.544-5.926-10.012 11.426-2.19z" style="fill:#ff0;stroke:#ffd600;stroke-width:3.18035;stroke-linecap:round;stroke-linejoin:miter;stroke-miterlimit:5;stroke-dasharray:none;stroke-opacity:1;paint-order:markers stroke fill" transform="matrix(-.15545 -.04735 .04732 -.15554 173.097 132.853)"/><path d="m842.84.09 5.614 10.19 10.68 4.617-7.957 8.489-1.091 11.583-10.532-4.944-11.353 2.542 1.447-11.544-5.926-10.012 11.426-2.19z" style="fill:#ff0;stroke:#ffd600;stroke-width:6.31594;stroke-linecap:round;stroke-linejoin:miter;stroke-miterlimit:5;stroke-dasharray:none;stroke-opacity:1;paint-order:markers stroke fill" transform="matrix(-.07827 .02385 -.02384 -.07832 113.348 66.625)"/><path d="m842.84.09 5.614 10.19 10.68 4.617-7.957 8.489-1.091 11.583-10.532-4.944-11.353 2.542 1.447-11.544-5.926-10.012 11.426-2.19z" style="fill:#ff0;stroke:#ffd600;stroke-width:4.82288;stroke-linecap:round;stroke-linejoin:miter;stroke-miterlimit:5;stroke-dasharray:none;stroke-opacity:1;paint-order:markers stroke fill" transform="matrix(.09617 .04728 -.04725 .09623 -54.406 35.007)"/><path d="m842.84.09 5.614 10.19 10.68 4.617-7.957 8.489-1.091 11.583-10.532-4.944-11.353 2.542 1.447-11.544-5.926-10.012 11.426-2.19z" style="fill:#ff0;stroke:#ffd600;stroke-width:3.82439;stroke-linecap:round;stroke-linejoin:miter;stroke-miterlimit:5;stroke-dasharray:none;stroke-opacity:1;paint-order:markers stroke fill" transform="matrix(.0556 .12323 -.12316 .05563 -12.635 -18.89)"/><path d="m842.84.09 5.614 10.19 10.68 4.617-7.957 8.489-1.091 11.583-10.532-4.944-11.353 2.542 1.447-11.544-5.926-10.012 11.426-2.19z" style="fill:#ff0;stroke:#ffd600;stroke-width:3.10278;stroke-linecap:round;stroke-linejoin:miter;stroke-miterlimit:5;stroke-dasharray:none;stroke-opacity:1;paint-order:markers stroke fill" transform="matrix(-.04162 .16136 -.16127 -.04165 68.575 -38.766)"/><path d="m842.84.09 5.614 10.19 10.68 4.617-7.957 8.489-1.091 11.583-10.532-4.944-11.353 2.542 1.447-11.544-5.926-10.012 11.426-2.19z" style="fill:#ff0;stroke:#ffd600;stroke-width:2.5292;stroke-linecap:round;stroke-linejoin:miter;stroke-miterlimit:5;stroke-dasharray:none;stroke-opacity:1;paint-order:markers stroke fill" transform="matrix(-.16564 .1197 -.11962 -.16574 164.958 5.057)"/><path d="m842.84.09 5.614 10.19 10.68 4.617-7.957 8.489-1.091 11.583-10.532-4.944-11.353 2.542 1.447-11.544-5.926-10.012 11.426-2.19z" style="fill:#ff0;stroke:#ffd600;stroke-width:2.17385;stroke-linecap:round;stroke-linejoin:miter;stroke-miterlimit:5;stroke-dasharray:none;stroke-opacity:1;paint-order:markers stroke fill" transform="matrix(-.23669 -.02216 .02215 -.23683 213.345 125.63)"/><path d="m842.84.09 5.614 10.19 10.68 4.617-7.957 8.489-1.091 11.583-10.532-4.944-11.353 2.542 1.447-11.544-5.926-10.012 11.426-2.19z" style="fill:#ff0;stroke:#ffd600;stroke-width:2.47369;stroke-linecap:round;stroke-linejoin:miter;stroke-miterlimit:5;stroke-dasharray:none;stroke-opacity:1;paint-order:markers stroke fill" transform="matrix(-.1491 -.14641 .14632 -.1492 131.35 223.46)"/><path d="m842.84.09 5.614 10.19 10.68 4.617-7.957 8.489-1.091 11.583-10.532-4.944-11.353 2.542 1.447-11.544-5.926-10.012 11.426-2.19z" style="fill:#ff0;stroke:#ffd600;stroke-width:4.18462;stroke-linecap:round;stroke-linejoin:miter;stroke-miterlimit:5;stroke-dasharray:none;stroke-opacity:1;paint-order:markers stroke fill" transform="matrix(-.12047 -.02715 .02714 -.12055 108.611 115.8)"/><path d="m842.84.09 5.614 10.19 10.68 4.617-7.957 8.489-1.091 11.583-10.532-4.944-11.353 2.542 1.447-11.544-5.926-10.012 11.426-2.19z" style="fill:#ff0;stroke:#ffd600;stroke-width:14.0955;stroke-linecap:round;stroke-linejoin:miter;stroke-miterlimit:5;stroke-dasharray:none;stroke-opacity:1;paint-order:markers stroke fill" transform="matrix(-.03551 .00912 -.00911 -.03553 41.387 78.949)"/><path d="m842.84.09 5.614 10.19 10.68 4.617-7.957 8.489-1.091 11.583-10.532-4.944-11.353 2.542 1.447-11.544-5.926-10.012 11.426-2.19z" style="fill:#ff0;stroke:#ffd600;stroke-width:3.75699;stroke-linecap:round;stroke-linejoin:miter;stroke-miterlimit:5;stroke-dasharray:none;stroke-opacity:1;paint-order:markers stroke fill" transform="matrix(.13029 .04413 -.0441 .13036 58.877 .43)"/><path d="m842.84.09 5.614 10.19 10.68 4.617-7.957 8.489-1.091 11.583-10.532-4.944-11.353 2.542 1.447-11.544-5.926-10.012 11.426-2.19z" style="fill:#ff0;stroke:#ffd600;stroke-width:3.05771;stroke-linecap:round;stroke-linejoin:miter;stroke-miterlimit:5;stroke-dasharray:none;stroke-opacity:1;paint-order:markers stroke fill" transform="matrix(.09037 .1429 -.14281 .09043 101.23 -73.352)"/><path d="m842.84.09 5.614 10.19 10.68 4.617-7.957 8.489-1.091 11.583-10.532-4.944-11.353 2.542 1.447-11.544-5.926-10.012 11.426-2.19z" style="fill:#ff0;stroke:#ffd600;stroke-width:2.59719;stroke-linecap:round;stroke-linejoin:miter;stroke-miterlimit:5;stroke-dasharray:none;stroke-opacity:1;paint-order:markers stroke fill" transform="matrix(-.0299 .19683 -.19671 -.02991 203.055 -106.292)"/><path d="m842.84.09 5.614 10.19 10.68 4.617-7.957 8.489-1.091 11.583-10.532-4.944-11.353 2.542 1.447-11.544-5.926-10.012 11.426-2.19z" style="fill:#ff0;stroke:#ffd600;stroke-width:2.21455;stroke-linecap:round;stroke-linejoin:miter;stroke-miterlimit:5;stroke-dasharray:none;stroke-opacity:1;paint-order:markers stroke fill" transform="matrix(-.17477 .15472 -.15463 -.17487 317.768 -61.49)"/><path d="m842.84.09 5.614 10.19 10.68 4.617-7.957 8.489-1.091 11.583-10.532-4.944-11.353 2.542 1.447-11.544-5.926-10.012 11.426-2.19z" style="fill:#ff0;stroke:#ffd600;stroke-width:2.46711;stroke-linecap:round;stroke-linejoin:miter;stroke-miterlimit:5;stroke-dasharray:none;stroke-opacity:1;paint-order:markers stroke fill" transform="rotate(179.709 167.816 34.99)scale(.20946 .20959)"/><path d="m842.84.09 5.614 10.19 10.68 4.617-7.957 8.489-1.091 11.583-10.532-4.944-11.353 2.542 1.447-11.544-5.926-10.012 11.426-2.19z" style="fill:#ff0;stroke:#ffd600;stroke-width:4.18008;stroke-linecap:round;stroke-linejoin:miter;stroke-miterlimit:5;stroke-dasharray:none;stroke-opacity:1;paint-order:markers stroke fill" transform="matrix(-.09741 -.07617 .07612 -.09747 234.296 127.67)"/><path d="m842.84.09 5.614 10.19 10.68 4.617-7.957 8.489-1.091 11.583-10.532-4.944-11.353 2.542 1.447-11.544-5.926-10.012 11.426-2.19z" style="fill:#ff0;stroke:#ffd600;stroke-width:20.0714;stroke-linecap:round;stroke-linejoin:miter;stroke-miterlimit:5;stroke-dasharray:none;stroke-opacity:1;paint-order:markers stroke fill" transform="matrix(-.02553 -.00331 .00331 -.02555 174.233 58.743)"/><path d="m842.84.09 5.614 10.19 10.68 4.617-7.957 8.489-1.091 11.583-10.532-4.944-11.353 2.542 1.447-11.544-5.926-10.012 11.426-2.19z" style="fill:#ff0;stroke:#ffd600;stroke-width:3.11277;stroke-linecap:round;stroke-linejoin:miter;stroke-miterlimit:5;stroke-dasharray:none;stroke-opacity:1;paint-order:markers stroke fill" transform="matrix(.16268 .03313 -.03311 .16278 -6.223 8.815)"/><path d="m842.84.09 5.614 10.19 10.68 4.617-7.957 8.489-1.091 11.583-10.532-4.944-11.353 2.542 1.447-11.544-5.926-10.012 11.426-2.19z" style="fill:#ff0;stroke:#ffd600;stroke-width:2.49955;stroke-linecap:round;stroke-linejoin:miter;stroke-miterlimit:5;stroke-dasharray:none;stroke-opacity:1;paint-order:markers stroke fill" transform="matrix(.12396 .16556 -.16546 .12404 36.204 -94.137)"/><path d="m842.84.09 5.614 10.19 10.68 4.617-7.957 8.489-1.091 11.583-10.532-4.944-11.353 2.542 1.447-11.544-5.926-10.012 11.426-2.19z" style="fill:#ff0;stroke:#ffd600;stroke-width:2.4907;stroke-linecap:round;stroke-linejoin:miter;stroke-miterlimit:5;stroke-dasharray:none;stroke-opacity:1;paint-order:markers stroke fill" transform="matrix(-.13808 .15496 -.15486 -.13816 251.45 -63.921)"/><path d="m842.84.09 5.614 10.19 10.68 4.617-7.957 8.489-1.091 11.583-10.532-4.944-11.353 2.542 1.447-11.544-5.926-10.012 11.426-2.19z" style="fill:#ff0;stroke:#ffd600;stroke-width:4.17298;stroke-linecap:round;stroke-linejoin:miter;stroke-miterlimit:5;stroke-dasharray:none;stroke-opacity:1;paint-order:markers stroke fill" transform="matrix(-.12301 .01428 -.01427 -.12309 228.62 55.388)"/><path d="m842.84.09 5.614 10.19 10.68 4.617-7.957 8.489-1.091 11.583-10.532-4.944-11.353 2.542 1.447-11.544-5.926-10.012 11.426-2.19z" style="fill:#ff0;stroke:#ffd600;stroke-width:15.8528;stroke-linecap:round;stroke-linejoin:miter;stroke-miterlimit:5;stroke-dasharray:none;stroke-opacity:1;paint-order:markers stroke fill" transform="rotate(212.46 82.34 17.588)scale(.0326)skewY(.04)"/><path d="m842.84.09 5.614 10.19 10.68 4.617-7.957 8.489-1.091 11.583-10.532-4.944-11.353 2.542 1.447-11.544-5.926-10.012 11.426-2.19z" style="fill:#ff0;stroke:#ffd600;stroke-width:2.22922;stroke-linecap:round;stroke-linejoin:miter;stroke-miterlimit:5;stroke-dasharray:none;stroke-opacity:1;paint-order:markers stroke fill" transform="matrix(-.00733 .23184 -.2317 -.00733 148.275 -137.745)"/><path d="m842.84.09 5.614 10.19 10.68 4.617-7.957 8.489-1.091 11.583-10.532-4.944-11.353 2.542 1.447-11.544-5.926-10.012 11.426-2.19z" style="fill:#ff0;stroke:#ffd600;stroke-width:2.55844;stroke-linecap:round;stroke-linejoin:miter;stroke-miterlimit:5;stroke-dasharray:none;stroke-opacity:1;paint-order:markers stroke fill" transform="matrix(.2005 .0244 -.0244 .20063 -75.867 15.519)"/><path d="m842.84.09 5.614 10.19 10.68 4.617-7.957 8.489-1.091 11.583-10.532-4.944-11.353 2.542 1.447-11.544-5.926-10.012 11.426-2.19z" style="fill:#ff0;stroke:#ffd600;stroke-width:2.1596;stroke-linecap:round;stroke-linejoin:miter;stroke-miterlimit:5;stroke-dasharray:none;stroke-opacity:1;paint-order:markers stroke fill" transform="matrix(.16645 .172 -.1719 .16656 -36.795 -101.224)"/><path d="m842.84.09 5.614 10.19 10.68 4.617-7.957 8.489-1.091 11.583-10.532-4.944-11.353 2.542 1.447-11.544-5.926-10.012 11.426-2.19z" style="fill:#ff0;stroke:#ffd600;stroke-width:2.41015;stroke-linecap:round;stroke-linejoin:miter;stroke-miterlimit:5;stroke-dasharray:none;stroke-opacity:1;paint-order:markers stroke fill" transform="matrix(.01425 .21407 -.21394 .01426 93.147 -124.735)"/><path d="m842.84.09 5.614 10.19 10.68 4.617-7.957 8.489-1.091 11.583-10.532-4.944-11.353 2.542 1.447-11.544-5.926-10.012 11.426-2.19z" style="fill:#ff0;stroke:#ffd600;stroke-width:4.09449;stroke-linecap:round;stroke-linejoin:miter;stroke-miterlimit:5;stroke-dasharray:none;stroke-opacity:1;paint-order:markers stroke fill" transform="matrix(-.07824 .09909 -.09903 -.0783 164.22 -19.757)"/><path d="m842.84.09 5.614 10.19 10.68 4.617-7.957 8.489-1.091 11.583-10.532-4.944-11.353 2.542 1.447-11.544-5.926-10.012 11.426-2.19z" style="fill:#ff0;stroke:#ffd600;stroke-width:12.2142;stroke-linecap:round;stroke-linejoin:miter;stroke-miterlimit:5;stroke-dasharray:none;stroke-opacity:1;paint-order:markers stroke fill" transform="matrix(-.04157 .0079 -.0079 -.0416 125.03 57.695)"/><path d="m842.84.09 5.614 10.19 10.68 4.617-7.957 8.489-1.091 11.583-10.532-4.944-11.353 2.542 1.447-11.544-5.926-10.012 11.426-2.19z" style="fill:#ff0;stroke:#ffd600;stroke-width:2.15237;stroke-linecap:round;stroke-linejoin:miter;stroke-miterlimit:5;stroke-dasharray:none;stroke-opacity:1;paint-order:markers stroke fill" transform="matrix(.24001 .00627 -.00626 .24016 -147.094 30.696)"/><path d="m842.84.09 5.614 10.19 10.68 4.617-7.957 8.489-1.091 11.583-10.532-4.944-11.353 2.542 1.447-11.544-5.926-10.012 11.426-2.19z" style="fill:#ff0;stroke:#ffd600;stroke-width:2.48924;stroke-linecap:round;stroke-linejoin:miter;stroke-miterlimit:5;stroke-dasharray:none;stroke-opacity:1;paint-order:markers stroke fill" transform="matrix(.15684 .1361 -.13602 .15693 -67.032 -71.26)"/><path d="m842.84.09 5.614 10.19 10.68 4.617-7.957 8.489-1.091 11.583-10.532-4.944-11.353 2.542 1.447-11.544-5.926-10.012 11.426-2.19z" style="fill:#ff0;stroke:#ffd600;stroke-width:4.40034;stroke-linecap:round;stroke-linejoin:miter;stroke-miterlimit:5;stroke-dasharray:none;stroke-opacity:1;paint-order:markers stroke fill" transform="matrix(.01876 .116 -.11593 .01877 50.36 -43.693)"/><path d="m842.84.09 5.614 10.19 10.68 4.617-7.957 8.489-1.091 11.583-10.532-4.944-11.353 2.542 1.447-11.544-5.926-10.012 11.426-2.19z" style="fill:#ff0;stroke:#ffd600;stroke-width:12.0183;stroke-linecap:round;stroke-linejoin:miter;stroke-miterlimit:5;stroke-dasharray:none;stroke-opacity:1;paint-order:markers stroke fill" transform="matrix(-.0219 .03702 -.037 -.02192 79.225 29.617)"/><path d="m842.84.09 5.614 10.19 10.68 4.617-7.957 8.489-1.091 11.583-10.532-4.944-11.353 2.542 1.447-11.544-5.926-10.012 11.426-2.19z" style="fill:#ff0;stroke:#ffd600;stroke-width:1.99086;stroke-linecap:round;stroke-linejoin:miter;stroke-miterlimit:5;stroke-dasharray:none;stroke-opacity:1;paint-order:markers stroke fill" transform="matrix(.2592 -.01395 .01394 .25935 -200.274 47.803)"/><path d="m842.84.09 5.614 10.19 10.68 4.617-7.957 8.489-1.091 11.583-10.532-4.944-11.353 2.542 1.447-11.544-5.926-10.012 11.426-2.19z" style="fill:#ff0;stroke:#ffd600;stroke-width:3.07483;stroke-linecap:round;stroke-linejoin:miter;stroke-miterlimit:5;stroke-dasharray:none;stroke-opacity:1;paint-order:markers stroke fill" transform="matrix(.13353 .10211 -.10205 .13361 -84.91 -42.247)"/><path d="m842.84.09 5.614 10.19 10.68 4.617-7.957 8.489-1.091 11.583-10.532-4.944-11.353 2.542 1.447-11.544-5.926-10.012 11.426-2.19z" style="fill:#ff0;stroke:#ffd600;stroke-width:7.247;stroke-linecap:round;stroke-linejoin:miter;stroke-miterlimit:5;stroke-dasharray:none;stroke-opacity:1;paint-order:markers stroke fill" transform="matrix(.01758 .06915 -.0691 .0176 13.735 -4.8)"/><path d="m842.84.09 5.614 10.19 10.68 4.617-7.957 8.489-1.091 11.583-10.532-4.944-11.353 2.542 1.447-11.544-5.926-10.012 11.426-2.19z" style="fill:#ff0;stroke:#ffd600;stroke-width:2.41395;stroke-linecap:round;stroke-linejoin:miter;stroke-miterlimit:5;stroke-dasharray:none;stroke-opacity:1;paint-order:markers stroke fill" transform="matrix(.21296 -.02185 .02183 .21309 -18.614 19.941)"/><path d="m842.84.09 5.614 10.19 10.68 4.617-7.957 8.489-1.091 11.583-10.532-4.944-11.353 2.542 1.447-11.544-5.926-10.012 11.426-2.19z" style="fill:#ff0;stroke:#ffd600;stroke-width:4.18663;stroke-linecap:round;stroke-linejoin:miter;stroke-miterlimit:5;stroke-dasharray:none;stroke-opacity:1;paint-order:markers stroke fill" transform="matrix(.10159 .07016 -.07011 .10165 84.033 -50.564)"/><path d="m842.84.09 5.614 10.19 10.68 4.617-7.957 8.489-1.091 11.583-10.532-4.944-11.353 2.542 1.447-11.544-5.926-10.012 11.426-2.19z" style="fill:#ff0;stroke:#ffd600;stroke-width:15.195;stroke-linecap:round;stroke-linejoin:miter;stroke-miterlimit:5;stroke-dasharray:none;stroke-opacity:1;paint-order:markers stroke fill" transform="matrix(.01212 .0318 -.03178 .01212 160.344 -9.527)"/><path d="m842.84.09 5.614 10.19 10.68 4.617-7.957 8.489-1.091 11.583-10.532-4.944-11.353 2.542 1.447-11.544-5.926-10.012 11.426-2.19z" style="fill:#ff0;stroke:#ffd600;stroke-width:3.1232;stroke-linecap:round;stroke-linejoin:miter;stroke-miterlimit:5;stroke-dasharray:none;stroke-opacity:1;paint-order:markers stroke fill" transform="matrix(.16821 -.02649 .02647 .16832 -17.704 25.385)"/><path d="m842.84.09 5.614 10.19 10.68 4.617-7.957 8.489-1.091 11.583-10.532-4.944-11.353 2.542 1.447-11.544-5.926-10.012 11.426-2.19z" style="fill:#ff0;stroke:#ffd600;stroke-width:6.35864;stroke-linecap:round;stroke-linejoin:miter;stroke-miterlimit:5;stroke-dasharray:none;stroke-opacity:1;paint-order:markers stroke fill" transform="matrix(.0695 .04214 -.04212 .06955 73.59 -26.175)"/><path d="m842.84.09 5.614 10.19 10.68 4.617-7.957 8.489-1.091 11.583-10.532-4.944-11.353 2.542 1.447-11.544-5.926-10.012 11.426-2.19z" style="fill:#ff0;stroke:#ffd600;stroke-width:4.11078;stroke-linecap:round;stroke-linejoin:miter;stroke-miterlimit:5;stroke-dasharray:none;stroke-opacity:1;paint-order:markers stroke fill" transform="matrix(.12314 -.02531 .0253 .12321 -16.273 26.006)"/><path d="m842.84.09 5.614 10.19 10.68 4.617-7.957 8.489-1.091 11.583-10.532-4.944-11.353 2.542 1.447-11.544-5.926-10.012 11.426-2.19z" style="fill:#ff0;stroke:#ffd600;stroke-width:14.8241;stroke-linecap:round;stroke-linejoin:miter;stroke-miterlimit:5;stroke-dasharray:none;stroke-opacity:1;paint-order:markers stroke fill" transform="matrix(-.01587 -.03106 .03104 -.01588 107.157 37.308)"/><path d="m842.84.09 5.614 10.19 10.68 4.617-7.957 8.489-1.091 11.583-10.532-4.944-11.353 2.542 1.447-11.544-5.926-10.012 11.426-2.19z" style="fill:#ff0;stroke:#ffd600;stroke-width:6.41024;stroke-linecap:round;stroke-linejoin:miter;stroke-miterlimit:5;stroke-dasharray:none;stroke-opacity:1;paint-order:markers stroke fill" transform="matrix(.07803 -.02026 .02025 .07808 -14.693 23.565)"/><path d="m842.84.09 5.614 10.19 10.68 4.617-7.957 8.489-1.091 11.583-10.532-4.944-11.353 2.542 1.447-11.544-5.926-10.012 11.426-2.19z" style="fill:#ff0;stroke:#ffd600;stroke-width:11.9355;stroke-linecap:round;stroke-linejoin:miter;stroke-miterlimit:5;stroke-dasharray:none;stroke-opacity:1;paint-order:markers stroke fill" transform="matrix(.0416 -.012 .01199 .04163 -20.177 18.377)"/></svg>