<svg xmlns="http://www.w3.org/2000/svg" xml:space="preserve" width="46" height="44" viewBox="0 0 46 44"><g transform="translate(-118 -13)"><path d="M118 37v4c0 2.216 1.784 4 4 4h24c2.216 0 4-1.784 4-4v-4h-1v2c0 1.662-1.338 3-3 3h-24c-1.662 0-3-1.338-3-3v-2z" style="opacity:1;vector-effect:non-scaling-stroke;fill:#000;fill-opacity:.22;stroke-linecap:square;stroke-miterlimit:5;-inkscape-stroke:hairline;paint-order:markers fill stroke"/><path d="M122 13c-2.216 0-4 1.784-4 4v22c0 2.216 1.784 4 4 4h24c2.216 0 4-1.784 4-4V17c0-2.216-1.784-4-4-4zm0 2h24c1.108 0 2 .892 2 2v22c0 1.108-.892 2-2 2h-24c-1.108 0-2-.892-2-2V17c0-1.108.892-2 2-2" style="vector-effect:non-scaling-stroke;fill:#fff;stroke-linecap:square;stroke-miterlimit:5;-inkscape-stroke:hairline;paint-order:markers fill stroke"/><circle cx="161.5" cy="54.5" r="2.5" style="opacity:1;vector-effect:non-scaling-stroke;fill:#fff;stroke-linecap:square;stroke-miterlimit:5;-inkscape-stroke:hairline;paint-order:markers fill stroke"/><path d="m162.333 53.667-1.666 1.666-13-13 1.666-1.666z" style="opacity:1;vector-effect:non-scaling-stroke;fill:#fff;stroke-linecap:square;stroke-miterlimit:5;-inkscape-stroke:hairline;paint-order:markers fill stroke"/><rect width="28" height="26" x="120" y="15" ry="2" style="opacity:1;vector-effect:non-scaling-stroke;fill:#000;fill-opacity:.729412;stroke-linecap:square;stroke-miterlimit:5;-inkscape-stroke:hairline;paint-order:markers fill stroke"/></g></svg>