<svg xmlns="http://www.w3.org/2000/svg" xml:space="preserve" width="73" height="25.949" viewBox="0 0 73 25.949"><path d="m10 8.949-3 3v4l3 3h4l1 1v2l-1 1h-3l-1-1H7v1l3 3h5l3-3v-4l-3-3h-4l-1-1v-2l1-1h3l1 1h3v-1l-3-3zm11 0v14l3 3h5l3-3v-14h-3v13l-1 1h-3l-1-1v-13Zm14 0v17h3v-7h5l3-3v-4l-3-3zm14 0v17h10v-3h-7v-4h6v-3h-6v-4h7v-3Zm13 0v17h3v-7h4l1 1v6h3v-7l-1.5-1.5 1.5-1.5v-4l-3-3zm-24 3h4l1 1v2l-1 1h-4zm27 0h4l1 1v2l-1 1h-4z" style="opacity:1;fill:#fff;stroke-linejoin:round;paint-order:markers fill stroke"/><path d="M8.72.334a6 6 0 0 0-.94.072C3.17 1.132 2 4.949 2 4.949s-.94 2.01.555 1c1.495-1.011 2.446 0 3.064.672C6.24 7.293 5 9.949 5 9.949l12.496-2c-.049-3.037-.098-2.381-1.496-4C14.733 2.482 11.748.333 8.72.334" style="opacity:1;fill:#ff2a2a;fill-opacity:1;stroke:#cb1f1f;stroke-width:.667;stroke-linecap:round;stroke-linejoin:round;stroke-dasharray:none;stroke-opacity:1;paint-order:markers fill stroke"/><path d="M2.167 4.449a1.5 1.5 0 0 0-1.5 1.5 1.5 1.5 0 0 0 1.5 1.5 1.5 1.5 0 0 0 1.5-1.5 1.5 1.5 0 0 0-1.5-1.5M12.29 5.718c-1.055-.001-2.067.085-3.006.316-2.513.62-3.862 2.388-4.862 3.721a1.5 1.5 0 0 0 .3 2.1 1.5 1.5 0 0 0 2.099-.3c1-1.332 1.65-2.23 3.18-2.606 1.538-.38 4.478-.134 7.455.197a1.5 1.5 0 0 0 1.656-1.324 1.5 1.5 0 0 0-1.324-1.657c-1.49-.166-2.99-.352-4.43-.42q-.54-.026-1.068-.027" style="color:#000;display:inline;fill:#fff;stroke:#b1b1b1;stroke-width:1.333;stroke-linecap:round;stroke-linejoin:round;stroke-dasharray:none;stroke-opacity:1;paint-order:stroke markers fill"/></svg>