<svg xmlns="http://www.w3.org/2000/svg" xml:space="preserve" width="74" height="14" viewBox="0 0 74 14"><path d="M3 0C1.338 0 0 1.338 0 3v8c0 1.662 1.338 3 3 3h68c1.662 0 3-1.338 3-3V3c0-1.662-1.338-3-3-3zm0 1h68c1.108 0 2 .892 2 2v8c0 1.108-.892 2-2 2H3c-1.108 0-2-.892-2-2V3c0-1.108.892-2 2-2" style="opacity:1;fill:#fff;fill-opacity:1;stroke-width:.667;stroke-linecap:round;stroke-linejoin:round;paint-order:markers fill stroke"/><rect width="72" height="12" x="1" y="1" rx="2" ry="2" style="opacity:1;fill:#fff;fill-opacity:.121569;stroke-linejoin:round;paint-order:markers fill stroke"/><path d="M9 4v6h1l1.5-1.5L13 10h1V4h-1v4.5L11.5 7 10 8.5V4Zm7 0-1 1v4l1 1h2l1-1V5l-1-1Zm4 0v6h1V8h1.5l.5.5V10h1V8l-.5-.5.5-.5V5l-1-1Zm5 0v6h4V9h-3V4Zm5 0v6h3l1-1V5l-1-1ZM16.5 5h1l.5.5v3l-.5.5h-1l-.5-.5v-3zM21 5h1.5l.5.5v1l-.5.5H21Zm10 0h1.5l.5.5v3l-.5.5H31Z" style="opacity:1;fill:#fff;fill-opacity:1;stroke-linejoin:round;paint-order:markers fill stroke"/><path d="M39 4v6h4V9h-3V7h2V6h-2V5h3V4Zm5 0v6h1V5.5l2 2V10h1V4h-1v2l-2-2Zm6 0-1 1v4l1 1h2l1-1V7h-2v1h1v.5l-.5.5h-1l-.5-.5v-3l.5-.5h1l.5.5V6h1V5l-1-1Zm4 0v6h1V4Zm2 0v6h1V5.5l2 2V10h1V4h-1v2l-2-2Zm5 0v6h4V9h-3V7h2V6h-2V5h3V4Z" style="opacity:1;fill:#e5172a;fill-opacity:1;stroke-linejoin:round;paint-order:markers fill stroke"/></svg>