<svg xmlns="http://www.w3.org/2000/svg" xml:space="preserve" width="384" height="216" viewBox="0 0 384 216"><path d="M32 80h32v64H32z" style="fill:#00f;stroke-width:2.08869;stroke-linecap:square;stroke-miterlimit:5;paint-order:markers fill stroke;fill-opacity:.49624062"/><path d="M32 178h32v64H32zm-66-34h64v32h-64zm100 0h64v32H66z" style="fill:#00f;fill-opacity:.496241;stroke-width:2.08869;stroke-linecap:square;stroke-miterlimit:5;paint-order:markers fill stroke"/><path d="M320 158h64v64h-64zm0-128h64v64h-64zm-64 128h64v64h-64z" style="fill:#00f;fill-opacity:.496241;stroke-width:2.95385;stroke-linecap:square;stroke-miterlimit:5;paint-order:markers fill stroke"/><path d="M336 0h32v32h-32z" style="fill:#00f;fill-opacity:.496241;stroke-width:1.47693;stroke-linecap:square;stroke-miterlimit:5;paint-order:markers fill stroke"/><path d="M320 94h64v64h-64z" style="fill:#00f;fill-opacity:.496241;stroke-width:2.95385;stroke-linecap:square;stroke-miterlimit:5;paint-order:markers fill stroke"/><circle cx="16" cy="16" r="16" style="opacity:1;fill:#000;fill-opacity:1;stroke-width:3;stroke-linecap:square;stroke-miterlimit:5;paint-order:markers fill stroke"/><circle cx="16" cy="16" r="13" style="opacity:1;fill:#fff;fill-opacity:1;stroke-width:3;stroke-linecap:square;stroke-miterlimit:5;paint-order:markers fill stroke"/><circle cx="16" cy="16" r="11" style="opacity:1;fill:#000;fill-opacity:1;stroke-width:3;stroke-linecap:square;stroke-miterlimit:5;paint-order:markers fill stroke"/><path d="m15 10-3 3v9h2v-4h4v4h2v-9l-3-3zm.666 2h.668L18 13.666V16h-4v-2.332z" style="opacity:1;fill:#fff;fill-opacity:1;stroke-width:3;stroke-linecap:square;stroke-miterlimit:5;paint-order:markers fill stroke"/><circle cx="352" cy="190" r="16" style="opacity:1;fill:#fff;fill-opacity:1;stroke-width:3;stroke-linecap:square;stroke-miterlimit:5;paint-order:markers fill stroke"/><circle cx="352" cy="190" r="13" style="opacity:1;fill:#000;fill-opacity:1;stroke-width:3;stroke-linecap:square;stroke-miterlimit:5;paint-order:markers fill stroke"/><circle cx="352" cy="190" r="11" style="opacity:1;fill:#fff;fill-opacity:1;stroke-width:3;stroke-linecap:square;stroke-miterlimit:5;paint-order:markers fill stroke"/><path d="M348.333 184v12h6l2-2v-3l-1-1 1-1v-3l-2-2zm2 2h3.332l.668.668v1.664l-.668.668h-3.332Zm0 5h3.332l.668.668v1.664l-.668.668h-3.332Z" style="opacity:1;fill:#000;fill-opacity:1;stroke-width:3;stroke-linecap:square;stroke-miterlimit:5;paint-order:markers fill stroke"/><circle cx="351" cy="126" r="16" style="opacity:1;fill:#fff;fill-opacity:1;stroke-width:3;stroke-linecap:square;stroke-miterlimit:5;paint-order:markers fill stroke"/><circle cx="351" cy="126" r="13" style="opacity:1;fill:#000;fill-opacity:1;stroke-width:3;stroke-linecap:square;stroke-miterlimit:5;paint-order:markers fill stroke"/><circle cx="351" cy="126" r="11" style="opacity:1;fill:#fff;fill-opacity:1;stroke-width:3;stroke-linecap:square;stroke-miterlimit:5;paint-order:markers fill stroke"/><path d="M342.333 120v12h6l2-2v-3l-1-1 1-1v-3l-2-2zm2 2h3.332l.668.668v1.664l-.668.668h-3.332zm0 5h3.332l.668.668v1.664l-.668.668h-3.332zm9.334-5h3.332l.668.668v1.664l-.668.668h-3.332zm0 5h3.332l.668.668V132h2v-5l-1-1 1-1v-3l-2-2h-6v12h2" style="opacity:1;fill:#000;fill-opacity:1;stroke-width:3;stroke-linecap:square;stroke-miterlimit:5;paint-order:markers fill stroke"/><circle cx="351" cy="62" r="16" style="opacity:1;fill:#fff;fill-opacity:1;stroke-width:3;stroke-linecap:square;stroke-miterlimit:5;paint-order:markers fill stroke"/><circle cx="351" cy="62" r="13" style="opacity:1;fill:#000;fill-opacity:1;stroke-width:3;stroke-linecap:square;stroke-miterlimit:5;paint-order:markers fill stroke"/><circle cx="351" cy="62" r="11" style="opacity:1;fill:#fff;fill-opacity:1;stroke-width:3;stroke-linecap:square;stroke-miterlimit:5;paint-order:markers fill stroke"/><path d="M349.333 58h3.332l.668.668v1.664l-.668.668h-3.332Zm0 5h4l2-2v-3l-2-2h-6v12h2" style="opacity:1;fill:#000;fill-opacity:1;stroke-width:3;stroke-linecap:square;stroke-miterlimit:5;paint-order:markers fill stroke"/></svg>