<svg xmlns="http://www.w3.org/2000/svg" width="512" height="512" viewBox="0 0 512 512"><defs><clipPath id="a" clipPathUnits="userSpaceOnUse"><path d="M129.142 118.387h24.328v24.328h-24.328z" style="fill:#fc0;stroke-width:.543843;stroke-linecap:round;stroke-linejoin:round;paint-order:markers fill stroke" transform="rotate(-15)"/></clipPath></defs><path d="M155 75h30v30h-30z" style="fill:#fc0;stroke-width:.667;stroke-linecap:round;stroke-linejoin:round;paint-order:markers fill stroke"/><path d="M140 78.666c-2.334 0-4.668.667-5.834 1.841-1.167 1.175-1.167 2.825-1 4.159.061.493.147.94.246 1.334h13.175q.152-.593.247-1.334c.166-1.334.166-3-1-4.166-1.167-1.167-3.501-1.834-5.834-1.834" style="fill:#ffd42a;stroke-width:.667;stroke-linecap:round;stroke-linejoin:round;paint-order:markers fill stroke" transform="translate(30 3)"/><path d="M140 77.168c-.834 0-1.666.166-2.082.416-.417.25-.418.582-.418 1.332s0 1.918-.916 3.668c-.47.897-1.179 1.947-1.524 2.916h9.881c-.345-.969-1.053-2.019-1.523-2.916-.917-1.75-.918-2.918-.918-3.668s0-1.082-.416-1.332c-.417-.25-1.251-.416-2.084-.416" style="fill:#fd5;stroke-width:.667;stroke-linecap:round;stroke-linejoin:round;paint-order:markers fill stroke" transform="translate(30 3.5)"/><path d="M141.667 82.917c.333.416.333 1.25 0 1.666-.334.417-1 .417-1.667.417s-1.333 0-1.667-.417c-.333-.416-.333-1.25 0-1.666.334-.417 1-.417 1.667-.417s1.333 0 1.667.417" style="fill:#fff;stroke-width:.667;stroke-linecap:round;stroke-linejoin:round;paint-order:markers fill stroke" transform="translate(30)"/><path d="M177 89c-2.333-1-4.667-2-7-2s-4.667 1-7 2" style="fill:#d4aa00;stroke-width:.667;stroke-linecap:round;stroke-linejoin:round;paint-order:markers fill stroke"/><path d="M176 89c.333 1 .667 2 .5 3.333s-.833 3-2 4.167-2.833 1.833-4.5 1.833-3.333-.666-4.5-1.833-1.833-2.833-2-4.167.167-2.333.5-3.333" style="fill:#fca;stroke-width:.667;stroke-linecap:round;stroke-linejoin:round;paint-order:markers fill stroke"/><path d="M165.434 93.214a1.05 1.7 26.78 0 0 1.185-.114 1.018 1.752 15.612 0 0 .508 1.283 1.018 1.752 15.612 0 0 1.12-.474 1.002 1.78 5.164 0 0 .77 1.08 1.002 1.78 5.164 0 0 .98-.803 1.78 1.002 84.932 0 0 .978.808 1.78 1.002 84.932 0 0 .77-1.076 1.753 1.018 74.488 0 0 1.122.479 1.753 1.018 74.488 0 0 .51-1.28 1.7 1.05 63.33 0 0 1.187.119 1.7 1.05 63.33 0 0-.118-2.142 1.7 1.05 63.33 0 0-.063-.093 6 7.137 0 0 1-8.035.8 6 7.137 0 0 1-.737-.801 1.05 1.7 26.78 0 0-.055.075 1.05 1.7 26.78 0 0-.122 2.14" style="fill:#000;stroke-width:.727439;stroke-linecap:round;stroke-linejoin:round;paint-order:markers fill stroke"/><path d="M160 80h20v20h-20z" style="fill:#fc0;stroke-width:.447085;stroke-linecap:round;stroke-linejoin:round;paint-order:markers fill stroke" transform="translate(40)"/><g clip-path="url(#a)" transform="rotate(15 112.713 347.71)scale(.82208)"><path d="M177.982 67.086a27 27 0 0 0-6.933.914l6.933 25.982zm13.49 3.611-13.468 23.278 19.02-19.02a27 27 0 0 0-5.551-4.258m-32.517 4.287a27 27 0 0 0-4.258 5.551l23.278 13.469zm45.053 12.065-25.983 6.933h26.897a27 27 0 0 0-.914-6.933m-25.975 6.955 19.02 19.02a27 27 0 0 0 4.258-5.551zm-26.947.021c0 2.342.309 4.672.914 6.934l25.982-6.934zm26.94 0v26.897a27 27 0 0 0 6.933-.914zm-.022.008-19.02 19.02a27 27 0 0 0 5.551 4.258z" clip-path="none" style="fill:#ffd42a;fill-opacity:1;stroke-width:3.58806;stroke-linecap:round;stroke-linejoin:round;paint-order:markers fill stroke" transform="translate(-7.706 -4.316)"/><path d="M170 80.868c-.833 0-1.665.166-2.082.416s-.418.582-.418 1.332 0 1.918-.916 3.668c-.202.385-.445.799-.686 1.22 1.185-.403 2.405-.694 3.653-.79 1.576-.087 3.09.303 4.566.814-.245-.43-.494-.852-.699-1.244-.917-1.75-.918-2.918-.918-3.668s0-1.082-.416-1.332c-.417-.25-1.25-.416-2.084-.416m-2.945 1.363c-1.195.311-2.23.812-2.889 1.477-1.167 1.175-1.167 2.825-1 4.158q.048.378.113.719a27 27 0 0 1 1.899-.82c1.085-1.642 1.89-3.545 1.877-5.534m5.902.002c-.016 1.669.521 3.314 1.408 4.73.114.258.317.538.485.825.52.193 1.035.394 1.546.588.112.01.23.047.342.105.035-.197.07-.4.096-.615.167-1.333.167-3-1-4.166-.658-.658-1.687-1.157-2.877-1.467m-3.205.467H170c.667 0 1.335 0 1.668.416.333.417.333 1.251 0 1.668s-1.001.416-1.668.416-1.333 0-1.666-.416c-.333-.417-.333-1.251 0-1.668.292-.364.84-.41 1.418-.416m.248 4.5c-2.333 0-4.667 1-7 2h14c-2.333-1-4.667-2-7-2m6.154 2.484c-4.031.035-8.073.007-12.107.022q-.102.03-.223.041c-.26.828-.46 1.695-.324 2.787.167 1.333.833 3 2 4.166s2.833 1.834 4.5 1.834 3.333-.667 4.5-1.834 1.833-2.833 2-4.166c.14-1.12-.076-2.002-.346-2.85m-2.486 2.368a2 1.5 44.956 0 1 .234.2 2 1.5 44.956 0 1 .356 2.475 2 1.5 44.956 0 1-1.688.182 2 1.5 74.956 0 1-1.006 1.389 2 1.5 74.956 0 1-1.552-.686 1.5 2 14.956 0 1-1.563.7 1.5 2 14.956 0 1-1.004-1.374 1.5 2 44.956 0 1-1.703-.173 1.5 2 44.956 0 1 .352-2.475 1.5 2 44.956 0 1 .215-.193 4 4 0 0 0 .847 1.252 4 4 0 0 0 5.657-.004 4 4 0 0 0 .855-1.293" style="fill:#d4aa00;stroke-width:.667001;stroke-linecap:round;stroke-linejoin:round;paint-order:markers fill stroke"/><path d="M146.154 86.484c-4.031.035-8.073.007-12.107.022q-.102.03-.223.04c-.26.829-.46 1.696-.324 2.788.166 1.333.833 2.999 2 4.166 1.166 1.166 2.833 1.834 4.5 1.834s3.333-.668 4.5-1.834c1.166-1.167 1.833-2.833 2-4.166.14-1.12-.077-2.003-.346-2.85m-2.486 2.367a2 1.5 44.957 0 1 .234.201 2 1.5 44.957 0 1 .355 2.475 2 1.5 44.957 0 1-1.687.182 2 1.5 74.956 0 1-1.006 1.388 2 1.5 74.956 0 1-1.553-.685 1.5 2 14.956 0 1-1.562.699 1.5 2 14.956 0 1-1.004-1.373 1.5 2 44.956 0 1-1.703-.174 1.5 2 44.956 0 1 .351-2.474 1.5 2 44.956 0 1 .215-.194 4 4 0 0 0 .848 1.252 4 4 0 0 0 5.656-.004 4 4 0 0 0 .856-1.293m-.711-9.818c-.016 1.668.521 3.314 1.408 4.73.113.258.317.537.484.825.52.192 1.035.393 1.547.587.111.01.229.047.342.106q.054-.294.096-.615c.166-1.334.166-3-1-4.166-.658-.658-1.687-1.157-2.877-1.467m-5.903-.003c-1.195.312-2.229.813-2.888 1.477-1.167 1.175-1.167 2.825-1 4.159q.048.378.113.718c.62-.294 1.252-.573 1.898-.82 1.086-1.641 1.89-3.544 1.877-5.533" style="fill:#fff;stroke-width:.667;stroke-linecap:round;stroke-linejoin:round;paint-order:markers fill stroke" transform="translate(30 3)"/><path d="M140 77.668c-.834 0-1.666.166-2.082.416-.417.25-.418.582-.418 1.332s0 1.918-.916 3.668c-.202.384-.445.798-.686 1.22 1.184-.403 2.405-.695 3.652-.79 1.577-.087 3.09.303 4.567.814-.246-.43-.494-.852-.7-1.244-.916-1.75-.917-2.918-.917-3.668s0-1.082-.416-1.332c-.417-.25-1.251-.416-2.084-.416m-.248 1.832H140c.666 0 1.334-.001 1.668.416.333.416.333 1.251 0 1.668-.334.416-1.002.416-1.668.416-.667 0-1.333 0-1.666-.416-.334-.417-.334-1.252 0-1.668.291-.365.839-.41 1.418-.416" style="fill:#fff;stroke-width:.667;stroke-linecap:round;stroke-linejoin:round;paint-order:markers fill stroke" transform="translate(30 3)"/><path d="M177 89c-2.333-1-4.667-2-7-2s-4.667 1-7 2" style="fill:#ffe680;stroke-width:.667;stroke-linecap:round;stroke-linejoin:round;paint-order:markers fill stroke"/></g></svg>