<?xml version="1.0" encoding="UTF-8" standalone="no"?>
<!-- Created with Inkscape (http://www.inkscape.org/) -->

<svg
   width="512"
   height="512"
   viewBox="0 0 512 511.99999"
   version="1.1"
   id="svg1"
   inkscape:version="1.3.2 (091e20e, 2023-11-25, custom)"
   sodipodi:docname="g.svg"
   xmlns:inkscape="http://www.inkscape.org/namespaces/inkscape"
   xmlns:sodipodi="http://sodipodi.sourceforge.net/DTD/sodipodi-0.dtd"
   xmlns="http://www.w3.org/2000/svg"
   xmlns:svg="http://www.w3.org/2000/svg">
  <sodipodi:namedview
     id="namedview1"
     pagecolor="#ffffff"
     bordercolor="#000000"
     borderopacity="0.25"
     inkscape:showpageshadow="2"
     inkscape:pageopacity="0.0"
     inkscape:pagecheckerboard="0"
     inkscape:deskcolor="#d1d1d1"
     inkscape:document-units="px"
     showgrid="false"
     showguides="false"
     inkscape:zoom="16"
     inkscape:cx="205"
     inkscape:cy="92.53125"
     inkscape:window-width="1920"
     inkscape:window-height="991"
     inkscape:window-x="2391"
     inkscape:window-y="246"
     inkscape:window-maximized="1"
     inkscape:current-layer="g64">
    <inkscape:grid
       id="grid1"
       units="px"
       originx="0"
       originy="0"
       spacingx="1"
       spacingy="0.99999998"
       empcolor="#0099e5"
       empopacity="0.30196078"
       color="#0099e5"
       opacity="0.14901961"
       empspacing="5"
       dotted="false"
       gridanglex="30"
       gridanglez="30"
       visible="false" />
  </sodipodi:namedview>
  <defs
     id="defs1">
    <inkscape:path-effect
       effect="bspline"
       id="path-effect85"
       is_visible="true"
       lpeversion="1.3"
       weight="33.333333"
       steps="2"
       helper_size="0"
       apply_no_weight="true"
       apply_with_weight="true"
       only_selected="false"
       uniform="false" />
    <inkscape:path-effect
       effect="bspline"
       id="path-effect77"
       is_visible="true"
       lpeversion="1.3"
       weight="33.333333"
       steps="2"
       helper_size="0"
       apply_no_weight="true"
       apply_with_weight="true"
       only_selected="false"
       uniform="false" />
    <inkscape:path-effect
       effect="bspline"
       id="path-effect70"
       is_visible="true"
       lpeversion="1.3"
       weight="33.333333"
       steps="2"
       helper_size="0"
       apply_no_weight="true"
       apply_with_weight="true"
       only_selected="false"
       uniform="false" />
    <inkscape:path-effect
       effect="bspline"
       id="path-effect69"
       is_visible="true"
       lpeversion="1.3"
       weight="33.333333"
       steps="2"
       helper_size="0"
       apply_no_weight="true"
       apply_with_weight="true"
       only_selected="false"
       uniform="false" />
    <inkscape:path-effect
       effect="bspline"
       id="path-effect67"
       is_visible="true"
       lpeversion="1.3"
       weight="33.333333"
       steps="2"
       helper_size="0"
       apply_no_weight="true"
       apply_with_weight="true"
       only_selected="false"
       uniform="false" />
    <inkscape:path-effect
       effect="bspline"
       id="path-effect65"
       is_visible="true"
       lpeversion="1.3"
       weight="33.333333"
       steps="2"
       helper_size="0"
       apply_no_weight="true"
       apply_with_weight="true"
       only_selected="false"
       uniform="false" />
    <inkscape:path-effect
       effect="bspline"
       id="path-effect48"
       is_visible="true"
       lpeversion="1.3"
       weight="33.333333"
       steps="2"
       helper_size="0"
       apply_no_weight="true"
       apply_with_weight="true"
       only_selected="false"
       uniform="false" />
    <inkscape:path-effect
       effect="bspline"
       id="path-effect47"
       is_visible="true"
       lpeversion="1.3"
       weight="33.333333"
       steps="2"
       helper_size="0"
       apply_no_weight="true"
       apply_with_weight="true"
       only_selected="false"
       uniform="false" />
    <inkscape:path-effect
       effect="bspline"
       id="path-effect46"
       is_visible="true"
       lpeversion="1.3"
       weight="33.333333"
       steps="2"
       helper_size="0"
       apply_no_weight="true"
       apply_with_weight="true"
       only_selected="false"
       uniform="false" />
    <inkscape:path-effect
       effect="bspline"
       id="path-effect44"
       is_visible="true"
       lpeversion="1.3"
       weight="33.333333"
       steps="2"
       helper_size="0"
       apply_no_weight="true"
       apply_with_weight="true"
       only_selected="false"
       uniform="false" />
    <inkscape:path-effect
       effect="bspline"
       id="path-effect33"
       is_visible="true"
       lpeversion="1.3"
       weight="33.333333"
       steps="2"
       helper_size="0"
       apply_no_weight="true"
       apply_with_weight="true"
       only_selected="false"
       uniform="false" />
    <inkscape:path-effect
       effect="bspline"
       id="path-effect31"
       is_visible="true"
       lpeversion="1.3"
       weight="33.333333"
       steps="2"
       helper_size="0"
       apply_no_weight="true"
       apply_with_weight="true"
       only_selected="false"
       uniform="false" />
    <inkscape:path-effect
       effect="bspline"
       id="path-effect29"
       is_visible="true"
       lpeversion="1.3"
       weight="33.333333"
       steps="2"
       helper_size="0"
       apply_no_weight="true"
       apply_with_weight="true"
       only_selected="false"
       uniform="false" />
    <inkscape:path-effect
       effect="bspline"
       id="path-effect27"
       is_visible="true"
       lpeversion="1.3"
       weight="33.333333"
       steps="2"
       helper_size="0"
       apply_no_weight="true"
       apply_with_weight="true"
       only_selected="false"
       uniform="false" />
    <inkscape:path-effect
       effect="bspline"
       id="path-effect25"
       is_visible="true"
       lpeversion="1.3"
       weight="33.333333"
       steps="2"
       helper_size="0"
       apply_no_weight="true"
       apply_with_weight="true"
       only_selected="false"
       uniform="false" />
    <inkscape:path-effect
       effect="bspline"
       id="path-effect18"
       is_visible="true"
       lpeversion="1.3"
       weight="33.333333"
       steps="2"
       helper_size="0"
       apply_no_weight="true"
       apply_with_weight="true"
       only_selected="false"
       uniform="false" />
    <inkscape:path-effect
       effect="bspline"
       id="path-effect17"
       is_visible="true"
       lpeversion="1.3"
       weight="33.333333"
       steps="2"
       helper_size="0"
       apply_no_weight="true"
       apply_with_weight="true"
       only_selected="false"
       uniform="false" />
    <inkscape:path-effect
       effect="bspline"
       id="path-effect16"
       is_visible="true"
       lpeversion="1.3"
       weight="33.333333"
       steps="2"
       helper_size="0"
       apply_no_weight="true"
       apply_with_weight="true"
       only_selected="false"
       uniform="false" />
    <inkscape:path-effect
       effect="bspline"
       id="path-effect14"
       is_visible="true"
       lpeversion="1.3"
       weight="33.333333"
       steps="2"
       helper_size="0"
       apply_no_weight="true"
       apply_with_weight="true"
       only_selected="false"
       uniform="false" />
    <inkscape:path-effect
       effect="bspline"
       id="path-effect12"
       is_visible="true"
       lpeversion="1.3"
       weight="33.333333"
       steps="2"
       helper_size="0"
       apply_no_weight="true"
       apply_with_weight="true"
       only_selected="false"
       uniform="false" />
    <inkscape:path-effect
       effect="bspline"
       id="path-effect11"
       is_visible="true"
       lpeversion="1.3"
       weight="33.333333"
       steps="2"
       helper_size="0"
       apply_no_weight="true"
       apply_with_weight="true"
       only_selected="false"
       uniform="false" />
    <inkscape:path-effect
       effect="bspline"
       id="path-effect10"
       is_visible="true"
       lpeversion="1.3"
       weight="33.333333"
       steps="2"
       helper_size="0"
       apply_no_weight="true"
       apply_with_weight="true"
       only_selected="false"
       uniform="false" />
    <inkscape:path-effect
       effect="bspline"
       id="path-effect9"
       is_visible="true"
       lpeversion="1.3"
       weight="33.333333"
       steps="2"
       helper_size="0"
       apply_no_weight="true"
       apply_with_weight="true"
       only_selected="false"
       uniform="false" />
    <inkscape:path-effect
       effect="bspline"
       id="path-effect8"
       is_visible="true"
       lpeversion="1.3"
       weight="33.333333"
       steps="2"
       helper_size="0"
       apply_no_weight="true"
       apply_with_weight="true"
       only_selected="false"
       uniform="false" />
    <inkscape:path-effect
       effect="bspline"
       id="path-effect7"
       is_visible="true"
       lpeversion="1.3"
       weight="33.333333"
       steps="2"
       helper_size="0"
       apply_no_weight="true"
       apply_with_weight="true"
       only_selected="false"
       uniform="false" />
    <inkscape:path-effect
       effect="bspline"
       id="path-effect6"
       is_visible="true"
       lpeversion="1.3"
       weight="33.333333"
       steps="2"
       helper_size="0"
       apply_no_weight="true"
       apply_with_weight="true"
       only_selected="false"
       uniform="false" />
    <inkscape:path-effect
       effect="bspline"
       id="path-effect5"
       is_visible="true"
       lpeversion="1.3"
       weight="33.333333"
       steps="2"
       helper_size="0"
       apply_no_weight="true"
       apply_with_weight="true"
       only_selected="false"
       uniform="false" />
    <inkscape:path-effect
       effect="bspline"
       id="path-effect3"
       is_visible="true"
       lpeversion="1.3"
       weight="33.333333"
       steps="2"
       helper_size="0"
       apply_no_weight="true"
       apply_with_weight="true"
       only_selected="false"
       uniform="false" />
    <inkscape:path-effect
       effect="bspline"
       id="path-effect2"
       is_visible="true"
       lpeversion="1.3"
       weight="33.333333"
       steps="2"
       helper_size="0"
       apply_no_weight="true"
       apply_with_weight="true"
       only_selected="false"
       uniform="false" />
    <inkscape:path-effect
       effect="bspline"
       id="path-effect1"
       is_visible="true"
       lpeversion="1.3"
       weight="33.333333"
       steps="2"
       helper_size="0"
       apply_no_weight="true"
       apply_with_weight="true"
       only_selected="false"
       uniform="false" />
    <clipPath
       clipPathUnits="userSpaceOnUse"
       id="clipPath107">
      <rect
         style="fill:#ffcc00;stroke-width:0.543843;stroke-linecap:round;stroke-linejoin:round;paint-order:markers fill stroke"
         id="rect107"
         width="24.328409"
         height="24.328403"
         x="129.14157"
         y="118.3872"
         sodipodi:insensitive="true"
         transform="rotate(-15)" />
    </clipPath>
  </defs>
  <g
     inkscape:label="Layer 1"
     inkscape:groupmode="layer"
     id="layer1">
    <rect
       style="fill:#ffcc00;stroke-width:0.667;stroke-linecap:round;stroke-linejoin:round;paint-order:markers fill stroke"
       id="rect38"
       width="30"
       height="30"
       x="155"
       y="75"
       sodipodi:insensitive="true" />
    <path
       id="path20"
       style="fill:#ffd42a;stroke-width:0.667;stroke-linecap:round;stroke-linejoin:round;paint-order:markers fill stroke"
       d="M 139.99961 78.665685 C 137.66623 78.665685 135.3324 79.332639 134.16565 80.507482 C 132.99891 81.682326 132.99905 83.332421 133.16565 84.665685 C 133.22725 85.158629 133.31299 85.606268 133.41174 85.999669 L 146.58748 85.999669 C 146.68625 85.606267 146.77193 85.158644 146.83357 84.665685 C 147.00031 83.332381 147.00017 81.666351 145.83357 80.499669 C 144.66697 79.332987 142.33299 78.665685 139.99961 78.665685 z "
       transform="matrix(1.0000036,0,0,1,29.999886,3.0003307)" />
    <path
       id="path21"
       style="fill:#ffdd55;stroke-width:0.667;stroke-linecap:round;stroke-linejoin:round;paint-order:markers fill stroke"
       d="M 139.99961 77.167638 C 139.16627 77.167638 138.33426 77.333705 137.91759 77.583654 C 137.50091 77.833602 137.49962 78.165671 137.49962 78.915685 C 137.49962 79.665699 137.50032 80.83353 136.58361 82.583654 C 136.11351 83.481139 135.40548 84.531468 135.06017 85.499669 L 144.941 85.499669 C 144.59567 84.531393 143.88767 83.481152 143.41757 82.583654 C 142.50089 80.833578 142.4996 79.665701 142.4996 78.915685 C 142.4996 78.165669 142.50026 77.833603 142.08359 77.583654 C 141.66691 77.333704 140.83295 77.167638 139.99961 77.167638 z "
       transform="matrix(1.0000036,0,0,1,29.999886,3.5003307)" />
    <path
       style="fill:#ffffff;stroke-width:0.667;stroke-linecap:round;stroke-linejoin:round;paint-order:markers fill stroke"
       d="m 141.66666,82.916666 c 0.33334,0.416667 0.33334,1.250002 0,1.666669 -0.33334,0.416667 -0.99999,0.416667 -1.66666,0.416667 -0.66668,0 -1.33333,0 -1.66667,-0.416676 C 138,84.166651 138,83.333351 138.33334,82.916675 138.66668,82.5 139.33332,82.5 140,82.5 c 0.66668,0 1.33333,0 1.66666,0.416666 z"
       id="path24"
       sodipodi:nodetypes="ccsccsc"
       transform="translate(30.000358)"
       inkscape:original-d="m 142,82.5 c 0,0.833333 0,1.666668 0,2.500002 -0.66668,0 -1.33333,0 -2,0 -0.66668,0 -1.33333,0 -2,0 0,-0.833351 0,-1.666651 0,-2.500002 0.66668,0 1.33332,0 2,0 0.66668,0 1.33333,0 2,0 z"
       inkscape:path-effect="#path-effect31" />
    <path
       style="fill:#d4aa00;stroke-width:0.667;stroke-linecap:round;stroke-linejoin:round;paint-order:markers fill stroke"
       d="m 177,89.000002 c -2.33333,-0.999999 -4.66667,-2.000001 -7.00002,-1.999991 -2.33336,1.1e-5 -4.66665,0.999992 -6.99998,1.999991"
       id="path44"
       inkscape:path-effect="#path-effect44"
       inkscape:original-d="m 177,89.000002 c -2.33333,-1 -4.66667,-2 -7,-3 -2.33338,1.00002 -4.66667,2 -7,3" />
    <path
       style="fill:#ffccaa;stroke-width:0.667;stroke-linecap:round;stroke-linejoin:round;paint-order:markers fill stroke"
       d="m 176,89.000002 c 0.33333,0.999999 0.66667,2.000001 0.49999,3.333351 -0.16667,1.333349 -0.83332,2.999981 -2.00001,4.166655 -1.16668,1.166674 -2.83328,1.833314 -4.49998,1.833314 -1.6667,0 -3.33333,-0.666652 -4.50001,-1.833336 -1.16667,-1.166684 -1.83332,-2.833317 -1.99999,-4.16666 -0.16666,-1.333344 0.16667,-2.333325 0.5,-3.333324"
       id="path47"
       inkscape:path-effect="#path-effect48"
       inkscape:original-d="m 176,89.000002 c 0.33333,1 0.66667,2 1,3 -0.66668,1.6667 -1.33333,3.333333 -2,5 -1.6667,0.66668 -3.3333,1.333321 -5,2 -1.6667,-0.666679 -3.33333,-1.333333 -5,-2 -0.66668,-1.6667 -1.33333,-3.333334 -2,-5 0.33334,-1.00002 0.66667,-2 1,-3"
       sodipodi:nodetypes="ccccccc" />
    <path
       id="circle49"
       style="fill:#000000;stroke-width:0.727439;stroke-linecap:round;stroke-linejoin:round;paint-order:markers fill stroke"
       inkscape:transform-center-x="3.6941578"
       inkscape:transform-center-y="6.4310609"
       d="m 165.43351,93.2143 a 1.0497934,1.699531 26.779834 0 0 1.18524,-0.114281 1.0182807,1.7521264 15.611557 0 0 0.50836,1.282875 1.0182807,1.7521264 15.611557 0 0 1.11939,-0.47349 1.0020708,1.7804695 5.1638371 0 0 0.77022,1.079904 1.0020708,1.7804695 5.1638371 0 0 0.98019,-0.8031 1.7806036,1.0019953 84.9315 0 0 0.97851,0.807394 1.7806036,1.0019953 84.9315 0 0 0.7693,-1.0752 1.7525103,1.0180576 74.487853 0 0 1.12212,0.47864 1.7525103,1.0180576 74.487853 0 0 0.51006,-1.280164 1.7001098,1.049436 63.329269 0 0 1.18715,0.119011 1.7001098,1.049436 63.329269 0 0 -0.11789,-2.141932 1.7001098,1.049436 63.329269 0 0 -0.0631,-0.09292 6,7.1366257 0 0 1 -8.03497,0.799121 6,7.1366257 0 0 1 -0.73677,-0.800157 1.0497934,1.699531 26.779834 0 0 -0.0558,0.07492 1.0497934,1.699531 26.779834 0 0 -0.12197,2.139375 z" />
  </g>
  <g
     inkscape:label="Layer 1"
     inkscape:groupmode="layer"
     id="g64"
     transform="translate(40)">
    <rect
       style="fill:#ffcc00;stroke-width:0.447085;stroke-linecap:round;stroke-linejoin:round;paint-order:markers fill stroke"
       id="rect59"
       width="20"
       height="20.000002"
       x="160"
       y="80"
       sodipodi:insensitive="true"
       inkscape:export-filename="oversimplified.png"
       inkscape:export-xdpi="2400"
       inkscape:export-ydpi="2400" />
    <g
       id="g85"
       transform="matrix(0.7940723,0.21277103,-0.21277103,0.7940723,53.834758,-17.324231)"
       clip-path="url(#clipPath107)">
      <path
         id="path87"
         style="fill:#ffd42a;fill-opacity:1;stroke-width:3.58806;stroke-linecap:round;stroke-linejoin:round;paint-order:markers fill stroke"
         inkscape:transform-center-x="3.4882025"
         inkscape:transform-center-y="-13.469494"
         d="m 177.98242,67.086 c -2.34138,0.0015 -4.67176,0.308872 -6.93359,0.914062 l 6.93359,25.982422 z m 13.49024,3.611328 -13.46875,23.277343 19.01953,-19.019531 c -1.65632,-1.654904 -3.52351,-3.086398 -5.55078,-4.257812 z m -32.51758,4.287109 c -1.65455,1.656664 -3.0864,3.523493 -4.25781,5.550781 l 23.27734,13.46875 z m 45.05273,12.064453 -25.98242,6.933594 h 26.89649 c -10e-4,-2.341388 -0.30888,-4.671774 -0.91407,-6.933594 z m -25.97461,6.955078 19.01953,19.019532 c 1.65491,-1.65632 3.08641,-3.5235 4.25782,-5.55078 z m -26.94726,0.02148 c 0.001,2.34138 0.30887,4.671767 0.91406,6.933592 l 25.98242,-6.933592 z m 26.93945,0 v 26.896482 c 2.34139,-0.001 4.67177,-0.30888 6.93359,-0.91407 z m -0.0215,0.0078 -19.01953,19.019522 c 1.65631,1.6549 3.52349,3.0864 5.55078,4.25782 z"
         clip-path="none"
         transform="translate(-7.7061636,-4.316133)" />
      <path
         id="path80"
         style="fill:#d4aa00;stroke-width:0.667001;stroke-linecap:round;stroke-linejoin:round;paint-order:markers fill stroke"
         d="m 170,80.868 c -0.83334,0 -1.66536,0.166067 -2.08203,0.416016 -0.41668,0.249942 -0.41797,0.582023 -0.41797,1.332031 0,0.750008 7e-4,1.917851 -0.91601,3.667969 -0.20154,0.384759 -0.44458,0.798508 -0.68555,1.220703 1.18433,-0.403715 2.405,-0.695063 3.65234,-0.791016 1.57631,-0.08657 3.08995,0.303333 4.5664,0.814453 -0.24529,-0.430395 -0.49393,-0.852223 -0.69921,-1.24414 -0.91668,-1.75007 -0.91797,-2.917959 -0.91797,-3.667969 0,-0.75001 6.6e-4,-1.082088 -0.41601,-1.332031 C 171.66731,81.034066 170.83334,80.868 170,80.868 Z m -2.94531,1.363281 c -1.19516,0.31077 -2.22885,0.812165 -2.88867,1.476563 -1.16675,1.174837 -1.16661,2.824946 -1,4.158203 0.0315,0.251903 0.0707,0.491697 0.11328,0.71875 0.61983,-0.294241 1.25244,-0.573094 1.89843,-0.820313 1.08517,-1.641358 1.88952,-3.544464 1.87696,-5.533203 z m 5.90234,0.002 c -0.0158,1.668433 0.52146,3.314033 1.40821,4.730469 0.1133,0.257714 0.31698,0.537146 0.48437,0.824219 0.51956,0.192644 1.03495,0.39389 1.54687,0.587891 0.1111,0.0093 0.22868,0.04688 0.3418,0.105468 0.0351,-0.197087 0.0688,-0.40015 0.0957,-0.615234 0.16675,-1.333297 0.16661,-2.999341 -1,-4.166016 -0.65763,-0.657679 -1.6866,-1.156582 -2.87695,-1.466797 z m -3.20508,0.466797 c 0.0827,-8.14e-4 0.16472,0 0.24805,0 0.66668,0 1.33463,-6.5e-4 1.66797,0.416016 0.33334,0.416666 0.33334,1.251302 0,1.667969 -0.33335,0.416662 -1.0013,0.416015 -1.66797,0.416015 -0.66667,0 -1.33268,6.56e-4 -1.66602,-0.416015 -0.33333,-0.416675 -0.33334,-1.251294 0,-1.667969 0.29168,-0.364591 0.8392,-0.410319 1.41797,-0.416016 z m 0.24805,4.5 c -2.33335,1.1e-5 -4.66668,1.000003 -7,2 h 14 c -2.33332,-0.999997 -4.66665,-2.00001 -7,-2 z m 6.15429,2.484375 c -4.03128,0.03446 -8.0729,0.0069 -12.10741,0.02148 -0.0678,0.01968 -0.14259,0.03342 -0.22266,0.04102 -0.25961,0.828159 -0.46072,1.695016 -0.32422,2.78711 0.16667,1.333332 0.83333,2.999338 2,4.166015 1.16668,1.166678 2.8333,1.833985 4.5,1.833985 1.6667,0 3.33332,-0.667317 4.5,-1.833985 1.16668,-1.166668 1.83332,-2.832677 2,-4.166015 0.13998,-1.119848 -0.0765,-2.002412 -0.34571,-2.84961 z m -2.48632,2.367188 a 1.9999989,1.5 44.95631 0 1 0.23437,0.201172 1.9999989,1.5 44.95631 0 1 0.35548,2.474609 1.9999989,1.5 44.95631 0 1 -1.68751,0.181641 1.9999989,1.5 74.95631 0 1 -1.00585,1.388672 1.9999989,1.5 74.95631 0 1 -1.55274,-0.685547 1.5,1.9999989 14.95631 0 1 -1.56251,0.699218 1.5,1.9999989 14.95631 0 1 -1.0039,-1.373046 1.5,1.9999989 44.95631 0 1 -1.70313,-0.173829 1.5,1.9999989 44.95631 0 1 0.35157,-2.474609 1.5,1.9999989 44.95631 0 1 0.21485,-0.193359 4,4 0 0 0 0.84765,1.251953 4,4 0 0 0 5.65625,-0.0039 4,4 0 0 0 0.85547,-1.292969 z" />
      <path
         id="path79"
         style="fill:#ffffff;stroke-width:0.667;stroke-linecap:round;stroke-linejoin:round;paint-order:markers fill stroke"
         d="m 146.15388,86.484044 c -4.03128,0.03446 -8.07286,0.0069 -12.10737,0.02148 -0.0678,0.01968 -0.14259,0.03343 -0.22266,0.04102 -0.25961,0.82816 -0.46072,1.695015 -0.32422,2.78711 0.16667,1.333334 0.83333,2.999337 2,4.166015 1.16667,1.166679 2.83329,1.833985 4.49998,1.833985 1.66669,0 3.33331,-0.667316 4.49998,-1.833985 1.16668,-1.166669 1.83332,-2.832675 2,-4.166015 0.13998,-1.119849 -0.0765,-2.002411 -0.34571,-2.84961 z m -2.48631,2.367188 a 1.9999953,1.4999973 44.956678 0 1 0.23437,0.201172 1.9999953,1.4999973 44.956678 0 1 0.35547,2.474609 1.9999953,1.4999973 44.956678 0 1 -1.6875,0.181641 1.9999984,1.499995 74.956495 0 1 -1.00585,1.388672 1.9999984,1.499995 74.956495 0 1 -1.55273,-0.685547 1.499995,1.9999984 14.956126 0 1 -1.5625,0.699218 1.499995,1.9999984 14.956126 0 1 -1.0039,-1.373046 1.4999973,1.9999953 44.955942 0 1 -1.70312,-0.173829 1.4999973,1.9999953 44.955942 0 1 0.35156,-2.474609 1.4999973,1.9999953 44.955942 0 1 0.21485,-0.193359 3.9999856,4 0 0 0 0.84765,1.251953 3.9999856,4 0 0 0 5.65623,-0.0039 3.9999856,4 0 0 0 0.85547,-1.292969 z"
         transform="matrix(1.0000036,0,0,1,29.999886,3.0003307)" />
      <path
         style="fill:#ffffff;stroke-width:0.667;stroke-linecap:round;stroke-linejoin:round;paint-order:markers fill stroke"
         d="m 142.95663,79.032872 c -0.0158,1.668434 0.52146,3.314031 1.4082,4.730469 0.1133,0.257714 0.31698,0.537146 0.48437,0.824219 0.51956,0.192644 1.03495,0.39389 1.54687,0.587891 0.1111,0.0093 0.22868,0.04688 0.3418,0.105468 0.0351,-0.197087 0.0688,-0.40015 0.0957,-0.615234 0.16674,-1.333298 0.1666,-2.99934 -1,-4.166016 -0.65763,-0.65768 -1.68659,-1.156582 -2.87694,-1.466797 z"
         transform="matrix(1.0000036,0,0,1,29.999886,3.0003307)"
         id="path78" />
      <path
         style="fill:#ffffff;stroke-width:0.667;stroke-linecap:round;stroke-linejoin:round;paint-order:markers fill stroke"
         d="m 137.05431,79.030919 c -1.19516,0.31077 -2.22884,0.812165 -2.88866,1.476563 -1.16674,1.174838 -1.1666,2.824945 -1,4.158203 0.0315,0.251903 0.0707,0.491697 0.11328,0.71875 0.61983,-0.294241 1.25244,-0.573094 1.89843,-0.820313 1.08516,-1.64136 1.88951,-3.544462 1.87695,-5.533203 z"
         transform="matrix(1.0000036,0,0,1,29.999886,3.0003307)"
         id="path77" />
      <path
         style="fill:#ffffff;stroke-width:0.667;stroke-linecap:round;stroke-linejoin:round;paint-order:markers fill stroke"
         d="m 139.99961,77.667638 c -0.83334,0 -1.66535,0.166067 -2.08202,0.416016 -0.41668,0.249943 -0.41797,0.582022 -0.41797,1.332031 0,0.750009 7e-4,1.91785 -0.91601,3.667969 -0.20154,0.38476 -0.44458,0.798508 -0.68555,1.220703 1.18433,-0.403715 2.405,-0.695063 3.65233,-0.791016 1.57631,-0.08657 3.08994,0.303332 4.56639,0.814453 -0.24529,-0.430396 -0.49393,-0.852222 -0.69921,-1.24414 -0.91668,-1.750071 -0.91797,-2.917958 -0.91797,-3.667969 0,-0.750011 6.6e-4,-1.082087 -0.41601,-1.332031 -0.41668,-0.24995 -1.25064,-0.416016 -2.08398,-0.416016 z m -0.24805,1.832031 c 0.0827,-8.14e-4 0.16472,0 0.24805,0 0.66668,0 1.33463,-6.5e-4 1.66796,0.416016 0.33334,0.416666 0.33334,1.251302 0,1.667969 -0.33334,0.416663 -1.00129,0.416015 -1.66796,0.416015 -0.66667,0 -1.33268,6.57e-4 -1.66601,-0.416015 -0.33333,-0.416675 -0.33334,-1.251294 0,-1.667969 0.29167,-0.364591 0.83919,-0.410319 1.41796,-0.416016 z"
         transform="matrix(1.0000036,0,0,1,29.999886,3.0003307)"
         id="path59" />
      <path
         style="fill:#ffe680;stroke-width:0.667;stroke-linecap:round;stroke-linejoin:round;paint-order:markers fill stroke"
         d="m 177,89.000002 c -2.33333,-0.999999 -4.66667,-2.000001 -7.00002,-1.999991 -2.33336,1.1e-5 -4.66665,0.999992 -6.99998,1.999991"
         id="path62"
         inkscape:original-d="m 177,89.000002 c -2.33333,-1 -4.66667,-2 -7,-3 -2.33338,1.00002 -4.66667,2 -7,3"
         inkscape:path-effect="#path-effect67" />
    </g>
  </g>
</svg>
