<svg xmlns="http://www.w3.org/2000/svg" xml:space="preserve" width="200" height="200" viewBox="0 0 200 200"><path d="m12.71 68.23-3 3v4l3 3h4l1 1v2l-1 1h-3l-1-1h-3v1l3 3h5l3-3v-4l-3-3h-4l-1-1v-2l1-1h3l1 1h3v-1l-3-3zm11 0v14l3 3h5l3-3v-14h-3v13l-1 1h-3l-1-1v-13zm14 0v17h3v-7h5l3-3v-4l-3-3zm14 0v17h10v-3h-7v-4h6v-3h-6v-4h7v-3zm13 0v17h3v-7h4l1 1v6h3v-7l-1.5-1.5 1.5-1.5v-4l-3-3zm-24 3h4l1 1v2l-1 1h-4zm27 0h4l1 1v2l-1 1h-4z" style="opacity:1;fill:#fff;stroke-linejoin:round;paint-order:markers fill stroke"/><path d="M11.43 59.615a6 6 0 0 0-.94.072c-4.608.726-5.78 4.543-5.78 4.543s-.94 2.011.556 1c1.495-1.01 2.446 0 3.064.672.619.672-.62 3.328-.62 3.328l12.497-2c-.05-3.037-.098-2.38-1.496-4-1.267-1.467-4.252-3.616-7.281-3.615" style="opacity:1;fill:#ff2a2a;fill-opacity:1;stroke:#cb1f1f;stroke-width:.667;stroke-linecap:round;stroke-linejoin:round;stroke-dasharray:none;stroke-opacity:1;paint-order:markers fill stroke"/><path d="M4.877 63.73a1.5 1.5 0 0 0-1.5 1.5 1.5 1.5 0 0 0 1.5 1.5 1.5 1.5 0 0 0 1.5-1.5 1.5 1.5 0 0 0-1.5-1.5M15 65c-1.055-.001-2.067.085-3.006.316-2.513.62-3.861 2.388-4.861 3.721a1.5 1.5 0 0 0 .299 2.1 1.5 1.5 0 0 0 2.1-.3c1-1.332 1.65-2.23 3.179-2.607 1.539-.379 4.478-.133 7.455.198a1.5 1.5 0 0 0 1.656-1.324 1.5 1.5 0 0 0-1.324-1.657c-1.489-.166-2.989-.352-4.43-.42Q15.528 65.002 15 65" style="color:#000;display:inline;fill:#fff;stroke:#b1b1b1;stroke-width:1.333;stroke-linecap:round;stroke-linejoin:round;stroke-dasharray:none;stroke-opacity:1;paint-order:stroke markers fill"/><path d="M4 1 1 4v4l3 3h4l1 1v2l-1 1H5l-1-1H1v1l3 3h5l3-3v-4L9 8H5L4 7V5l1-1h3l1 1h3V4L9 1Zm11 0v14l3 3h5l3-3V1h-3v13l-1 1h-3l-1-1V1Zm14 0v17h3v-7h5l3-3V4l-3-3Zm14 0v17h10v-3h-7v-4h6V8h-6V4h7V1Zm13 0v17h3v-7h4l1 1v6h3v-7l-1.5-1.5L67 8V4l-3-3ZM32 4h4l1 1v2l-1 1h-4zm27 0h4l1 1v2l-1 1h-4z" style="opacity:1;fill:#fff;stroke-linejoin:round;paint-order:markers fill stroke"/><path d="M20 19v23h-4V25l-5.5 5.5L5 25v17H1V19h4l5.5 5.5L16 19Z" style="fill:#fff;stroke-width:.667;stroke-linecap:round;stroke-linejoin:round;paint-order:markers fill stroke"/><path d="m26 19-5 5v18h4v-8h7v8h4V24l-5-5zm2 4h1l3 3v4h-7v-4z" style="opacity:1;fill:#fff;stroke-width:.667;stroke-linecap:round;stroke-linejoin:round;paint-order:markers fill stroke"/><path d="M37 19v23h4v-9h5l2 2v7h4v-9l-2-2 2-2v-6l-4-4zm4 4h5l2 2v2l-2 2h-5z" style="opacity:1;fill:#fff;fill-opacity:.989637;stroke-width:.667;stroke-linecap:round;stroke-linejoin:round;paint-order:markers fill stroke"/><path d="m64 19-6 6v11l6 6h9l6-6V25l-6-6zm2 4h5l4 4v7l-4 4h-5l-4-4v-7zm18 19h-4V19h4v7l7-7h4v2l-8.5 8.5L95 38v4h-2l-9-9zm25 0v-4h-9v-6h7v-3h-7v-6h9v-4H96v23zM4 43c-1.662 0-3 1.338-3 3v8c0 1.662 1.338 3 3 3h68c1.662 0 3-1.338 3-3v-8c0-1.662-1.338-3-3-3zm0 1h68c1.108 0 2 .892 2 2v8c0 1.108-.892 2-2 2H4c-1.108 0-2-.892-2-2v-8c0-1.108.892-2 2-2" style="opacity:1;fill:#fff;fill-opacity:1;stroke-width:.667;stroke-linecap:round;stroke-linejoin:round;paint-order:markers fill stroke"/><rect width="72" height="12" x="2" y="44" rx="2" ry="2" style="opacity:1;fill:#fff;fill-opacity:.121569;stroke-linejoin:round;paint-order:markers fill stroke"/><path d="M10 47v6h1l1.5-1.5L14 53h1v-6h-1v4.5L12.5 50 11 51.5V47Zm7 0-1 1v4l1 1h2l1-1v-4l-1-1zm4 0v6h1v-2h1.5l.5.5V53h1v-2l-.5-.5.5-.5v-2l-1-1zm5 0v6h4v-1h-3v-5zm5 0v6h3l1-1v-4l-1-1zm-13.5 1h1l.5.5v3l-.5.5h-1l-.5-.5v-3zm4.5 0h1.5l.5.5v1l-.5.5H22Zm10 0h1.5l.5.5v3l-.5.5H32Z" style="opacity:1;fill:#fff;fill-opacity:1;stroke-linejoin:round;paint-order:markers fill stroke"/><path d="M40 47v6h4v-1h-3v-2h2v-1h-2v-1h3v-1zm5 0v6h1v-4.5l2 2V53h1v-6h-1v2l-2-2zm6 0-1 1v4l1 1h2l1-1v-2h-2v1h1v.5l-.5.5h-1l-.5-.5v-3l.5-.5h1l.5.5v.5h1v-1l-1-1zm4 0v6h1v-6zm2 0v6h1v-4.5l2 2V53h1v-6h-1v2l-2-2zm5 0v6h4v-1h-3v-2h2v-1h-2v-1h3v-1z" style="opacity:1;fill:#e5172a;fill-opacity:1;stroke-linejoin:round;paint-order:markers fill stroke"/><path d="M53 19h4v23h-4z" style="opacity:1;fill:#fff;fill-opacity:1;stroke-width:.667;stroke-linecap:round;stroke-linejoin:round;paint-order:markers fill stroke"/></svg>