<svg width="16" height="16" xmlns="http://www.w3.org/2000/svg"><path fill="#8da5f3" d="m 3,11 c -0.5539993,0 -1,0.446001 -1,1 v 2 h 12 v -2 c 0,-0.553999 -0.446001,-1 -1,-1 z" /><path fill="#8da5f3" d="M 5,2 C 4.4460007,2 4,2.4460007 4,3 v 6 c 0,0.5539993 0.4460007,1 1,1 h 6 c 0.553999,0 1,-0.4460007 1,-1 V 3 C 12,2.4460007 11.553999,2 11,2 Z M 8,3.2070312 A 0.99999997,0.99999997 0 0 1 8.7070312,3.5 L 10.292969,5.0859375 A 0.41421357,0.41421357 0 0 1 10,5.7929688 H 9 v 2 c 0,0.5539981 -0.4460019,1 -1,1 -0.5539981,0 -1,-0.4460019 -1,-1 v -2 H 6 A 0.41421357,0.41421357 0 0 1 5.7070312,5.0859375 L 7.2929688,3.5 A 0.99999997,0.99999997 0 0 1 8,3.2070312 Z" /></svg>
