<svg xmlns="http://www.w3.org/2000/svg" width="16" height="16"><path d="M8 2a6 6 0 0 0-6 6 6 6 0 0 0 6 6 6 6 0 0 0 6-6 6 6 0 0 0-6-6m0 2a4 4 0 0 1 1.035.139l-.258.965a3 3 0 0 1 .723.3l.5-.867A4 4 0 0 1 11.463 6l-.867.5a3 3 0 0 1 .3.723l.965-.258A4 4 0 0 1 12 8a4 4 0 0 1-.146 1.033l-.97-.26a3 3 0 0 1-.298.72l.87.501a4 4 0 0 1-.628.834 4 4 0 0 1-.834.627l-.502-.87a3 3 0 0 1-.719.3l.26.969A4 4 0 0 1 8 12a4 4 0 0 1-1.033-.146l.26-.97a3 3 0 0 1-.72-.298l-.501.87a4 4 0 0 1-.834-.628 4 4 0 0 1-.627-.834l.87-.502a3 3 0 0 1-.3-.719l-.969.26A4 4 0 0 1 4 8a4 4 0 0 1 .146-1.033l.97.26a3 3 0 0 1 .298-.72l-.87-.501a4 4 0 0 1 .628-.834 4 4 0 0 1 .834-.627l.502.87a3 3 0 0 1 .719-.3l-.26-.969A4 4 0 0 1 8 4" style="fill:#e0e0e0;fill-opacity:1;stroke:none;stroke-width:2;stroke-linecap:square;stroke-miterlimit:5;stroke-dasharray:none;stroke-opacity:1;paint-order:markers fill stroke"/><circle cx="8" cy="8" r="2" style="fill:#e0e0e0;fill-opacity:1;stroke:none;stroke-width:2;stroke-linecap:square;stroke-miterlimit:5;stroke-dasharray:none;stroke-opacity:1;paint-order:markers fill stroke"/></svg>