<svg width="384" height="216"><path d="M0 0h384v216H0z" fill="#142220"/><path d="M0 198h384v1H0z" fill="#70726e"/><path d="M0 199h384v17H0z" fill="#5a5b59"/><path d="M12.594 17.205C6.547 17.195 1.712 19.363 0 20.242V216h26c0-6-1-13.001-3.271-22.418-1.227-5.088-.424-30.631-2.729-53.582-2.03-20.213-3.519-39.65-1.941-49.527 3.43-21.49 3.07-16.794 2.709-43.702-.148-11 .969-19.849 3.605-26.45-4.088-2.321-8.151-3.11-11.78-3.116m358.812 0c-3.628.006-7.691.795-11.78 3.115 2.637 6.602 3.754 15.45 3.606 26.451-.36 26.908-.722 22.212 2.71 43.702 1.577 9.878.088 29.314-1.942 49.527-2.305 22.95-1.502 48.494-2.729 53.582C359.001 202.999 358 210 358 216h26V20.242c-1.712-.88-6.547-3.046-12.594-3.037" fill="#c5b360"/><path d="M0 0v20.242c2.74-1.407 13.472-6.11 24.373.078C28.185 10.774 35.201 5.968 46.41 6.502c18.962.903 14.564 3.778 29.695 3.842s15.195-4.215 37.924.127C136.76 14.812 192 15 192 15s55.241-.188 77.97-4.53c22.73-4.34 22.793-.062 37.925-.126s10.733-2.94 29.695-3.842c11.21-.534 18.225 4.272 22.037 13.818 10.9-6.188 21.633-1.485 24.373-.078V0H192Zm13.16 69.191C7.358 69.273 2.64 70.79 0 71.861v21.541c5.871-3.475 13.088-3.172 17.996-2.357.026-.177.035-.402.063-.572 1.787-11.195 2.535-15.319 2.8-20.471a33.4 33.4 0 0 0-7.699-.81m357.68 0a33.4 33.4 0 0 0-7.7.811c.266 5.152 1.014 9.276 2.801 20.47.028.171.038.396.063.573 4.908-.815 12.125-1.118 17.996 2.357v-21.54c-2.64-1.073-7.358-2.59-13.16-2.67M19.875 138.654c-4.024.61-13.434 2.47-19.875 7.412v20.893c12.374-6.332 18.591-7.416 21.299-7.473C21.028 153.094 20.653 146.5 20 140c-.046-.457-.08-.89-.125-1.346m344.25 0c-.045.457-.08.889-.125 1.346-.653 6.5-1.028 13.094-1.299 19.486 2.708.057 8.925 1.141 21.299 7.473v-20.893c-6.441-4.942-15.851-6.802-19.875-7.412M25.488 208.471c-9.187 4.564-13.885 3.313-18.23 7.529H26c0-2.31-.2-4.841-.512-7.53m333.024 0c-.312 2.688-.512 5.218-.512 7.529h18.742c-4.345-4.216-9.043-2.965-18.23-7.53" fill="#af8c58"/><path d="M13.422 25.998C7.797 26.026 2.817 27.842 0 29.113v22.301c6.478-3.326 15.35-2.636 20.809-1.76-.017-1.142-.024-1.603-.041-2.883-.099-7.339.377-13.702 1.472-19.109-2.955-1.219-5.965-1.678-8.818-1.664m357.156 0c-2.853-.014-5.863.445-8.818 1.664 1.095 5.407 1.57 11.77 1.472 19.11l-.04 2.882c5.459-.876 14.33-1.566 20.808 1.76v-22.3c-2.817-1.272-7.797-3.088-13.422-3.116M15.858 97.885c-1.71.005-3.669.274-5.565 1.12-5.056 2.258-4.966.316-10.293 2.845v23.271c3.773-.992 4.74-3.49 10.475-4.084 3.662-.38 6.124-.819 7.783-1.182-.601-8.27-.963-15.884-.785-21.882-.51-.047-1.035-.09-1.616-.088m352.285 0c-.58-.002-1.106.041-1.616.088.178 5.998-.184 13.613-.785 21.882 1.66.363 4.121.803 7.783 1.182 5.736.594 6.702 3.092 10.475 4.084V101.85c-5.327-2.529-5.237-.587-10.293-2.844-1.896-.847-3.856-1.116-5.564-1.121M21.598 168.402c-2.763.097-7.033.464-9.403 1.877-3.088 1.843-7.378 1.828-12.195 4.66v22.776c2.855-.637 7.72-1.905 9.193-3.557 1.88-2.107 6.266-3.998 13.123-4.068-.326-4.565-.458-12.533-.718-21.688m340.804 0c-.26 9.155-.392 17.123-.718 21.688 6.857.07 11.243 1.961 13.123 4.068 1.473 1.652 6.338 2.92 9.193 3.557v-22.776c-4.817-2.832-9.107-2.817-12.195-4.66-2.37-1.413-6.64-1.78-9.403-1.877" fill="#927a55"/><path d="M25.598 0C10.455 13.207 13.1 45.352 14.176 54.809c1.354 11.918-6.068 39.333-6.578 42.62-.511 3.289.83 2.939 1.213 18.007.383 15.067 5.364 37.43 5.455 42.035.09 4.605-.902 8.669-1.354 12.01-.451 3.34 1.535 6.951 1.264 12.369-.271 5.417-1.626 7.584-1.446 11.015.17 3.237 3.81 10.64 2.334 23.135H26c0-6-1-13.001-3.271-22.418-1.227-5.088-.424-30.631-2.729-53.582-2.03-20.213-3.519-39.65-1.941-49.527 3.43-21.49 3.07-16.794 2.709-43.702-.148-11 .969-19.849 3.605-26.45C28.185 10.773 35.201 5.967 46.41 6.501c18.962.903 14.564 3.778 29.695 3.842s15.195-4.215 37.924.127C136.76 14.812 192 15 192 15s55.241-.188 77.97-4.53c22.73-4.34 22.793-.062 37.925-.126s10.733-2.94 29.695-3.842c11.21-.534 18.225 4.272 22.037 13.818 2.636 6.602 3.753 15.45 3.605 26.451-.36 26.908-.722 22.212 2.71 43.702 1.577 9.878.088 29.314-1.942 49.527-2.305 22.95-1.502 48.494-2.729 53.582C359.001 202.999 358 210 358 216h10.936c-1.477-12.495 2.163-19.898 2.334-23.135.18-3.43-1.175-5.598-1.446-11.015s1.715-9.029 1.264-12.37-1.444-7.404-1.354-12.01c.09-4.604 5.072-26.967 5.455-42.034.384-15.068 1.724-14.718 1.213-18.006s-7.932-30.703-6.578-42.621c1.075-9.457 3.72-41.602-11.422-54.809H192Z" fill="#000" opacity=".12"/></svg>