<?xml version="1.0" encoding="UTF-8" standalone="no"?>
<!-- Created with Inkscape (http://www.inkscape.org/) -->

<svg
   width="100"
   height="47.999996"
   viewBox="0 0 100 47.999994"
   version="1.1"
   id="svg1"
   xml:space="preserve"
   xmlns="http://www.w3.org/2000/svg"
   xmlns:svg="http://www.w3.org/2000/svg"><defs
     id="defs1" /><rect
     style="fill:#9c9faf;fill-opacity:1;fill-rule:evenodd;stroke-linecap:square;stroke-miterlimit:5;paint-order:markers stroke fill"
     id="rect3"
     width="100"
     height="48"
     x="0"
     y="1.8615724e-06"
     rx="2"
     ry="2" /><rect
     style="fill:#373848;fill-opacity:1;fill-rule:evenodd;stroke-linecap:square;stroke-miterlimit:5;paint-order:markers stroke fill"
     id="rect4"
     width="94"
     height="28"
     x="3"
     y="3.0000019" /><path
     id="rect5"
     style="fill:#313242;fill-opacity:1;fill-rule:evenodd;stroke-linecap:square;stroke-miterlimit:5;paint-order:markers stroke fill"
     d="m 3,3.0000019 v 1 h 94 v -1 z m 0,2 v 1 h 94 v -1 z m 0,2 v 1 h 94 v -1 z m 0,2 V 10.000002 H 97 V 9.0000019 Z m 0,2.0000001 v 1 h 94 v -1 z m 0,2 v 1 h 94 v -1 z m 0,2 v 1 h 94 v -1 z m 0,2 v 1 h 94 v -1 z m 0,2 v 1 h 94 v -1 z m 0,2 v 1 h 94 v -1 z m 0,2 v 1 h 94 v -1 z m 0,2 v 1 h 94 v -1 z m 0,2 v 1 h 94 v -1 z m 0,2 v 1 h 94 v -1 z" /><rect
     style="fill:#e4e5ee;fill-opacity:1;fill-rule:evenodd;stroke-linecap:square;stroke-miterlimit:5;paint-order:markers stroke fill"
     id="rect20"
     width="94"
     height="11.999999"
     x="3"
     y="33"
     ry="1.9999993"
     rx="1.9999993" /></svg>
