<?xml version="1.0" encoding="UTF-8" standalone="no"?>
<!-- Created with Inkscape (http://www.inkscape.org/) -->

<svg
   width="24.000015"
   height="27"
   viewBox="0 0 24.000015 26.999999"
   version="1.1"
   id="svg1"
   xml:space="preserve"
   xmlns="http://www.w3.org/2000/svg"
   xmlns:svg="http://www.w3.org/2000/svg"><defs
     id="defs1" /><path
     id="path23"
     style="color:#000000;fill:#31314b;fill-opacity:1;fill-rule:evenodd;stroke-miterlimit:5;-inkscape-stroke:none;paint-order:stroke markers fill"
     d="M 19.5,5.9770509e-6 A 4.5,4.5 0 0 0 15,4.500006 4.5,4.5 0 0 0 15.0996,5.390631 L 7.36522,10.031254 A 4.5,4.5 0 0 0 4.5,9.000004 a 4.5,4.5 0 0 0 -4.5,4.5 4.5,4.5 0 0 0 4.5,4.5 4.5,4.5 0 0 0 2.85938,-1.03515 l 7.74023,4.64453 a 4.5,4.5 0 0 0 -0.0996,0.89062 4.5,4.5 0 0 0 4.5,4.5 4.5,4.5 0 0 0 4.5,-4.5 4.5,4.5 0 0 0 -4.5,-4.5 4.5,4.5 0 0 0 -2.85938,1.03321 L 8.9004,14.390634 A 4.5,4.5 0 0 0 9,13.500004 4.5,4.5 0 0 0 8.9102,12.603524 l 7.73046,-4.63672 A 4.5,4.5 0 0 0 19.5,9.000004 4.5,4.5 0 0 0 24,4.500006 4.5,4.5 0 0 0 19.5,5.9770509e-6 Z M 19.5,3.000006 a 1.5,1.5 0 0 1 1.5,1.5 1.5,1.5 0 0 1 -1.5,1.5 1.5,1.5 0 0 1 -1.5,-1.5 1.5,1.5 0 0 1 1.5,-1.5 z m -15,8.999998 a 1.5,1.5 0 0 1 1.5,1.5 1.5,1.5 0 0 1 -1.5,1.5 1.5,1.5 0 0 1 -1.5,-1.5 1.5,1.5 0 0 1 1.5,-1.5 z m 15,9 a 1.5,1.5 0 0 1 1.5,1.5 1.5,1.5 0 0 1 -1.5,1.5 1.5,1.5 0 0 1 -1.5,-1.5 1.5,1.5 0 0 1 1.5,-1.5 z" /></svg>
