<?xml version="1.0" encoding="UTF-8" standalone="no"?>
<!-- Created with Inkscape (http://www.inkscape.org/) -->

<svg
   width="24"
   height="23.999998"
   viewBox="0 0 24 23.999997"
   version="1.1"
   id="svg1"
   xml:space="preserve"
   xmlns="http://www.w3.org/2000/svg"
   xmlns:svg="http://www.w3.org/2000/svg"><defs
     id="defs1" /><path
     id="path13"
     style="fill:#31314b;fill-opacity:1;fill-rule:evenodd;stroke-width:2;stroke-linecap:square;stroke-miterlimit:5;paint-order:stroke markers fill"
     d="M 12,3.9965822e-6 A 12,12 0 0 0 0,12.000004 a 12,12 0 0 0 12,12 12,12 0 0 0 12,-12 A 12,12 0 0 0 12,3.9965822e-6 Z M 11.416016,3.04102 c 1.638479,0.799059 1.261693,3.418017 0.404296,5.132814 -0.374314,0.74863 -1.474535,1.35966 -1.986328,2.07617 -0.587718,0.82281 -0.524026,1.82661 -1.398437,2.48242 -0.291659,0.21875 -2.967402,-0.25373 -2.574219,-1.42187 C 6.30493,9.992634 5.959038,10.221234 4.914062,9.437504 4.496117,9.124044 4.019846,8.966624 3.611328,8.804694 A 9,9 0 0 1 4.994141,6.37891 C 5.950268,6.266322 6.930882,6.127463 7.283203,5.892582 8.181166,5.293941 8.288569,4.35475 8.648438,3.667973 A 9,9 0 0 1 11.416016,3.04102 Z m 5.867187,1.675781 a 9,9 0 0 1 3.707027,6.927733 c -0.53386,0.82007 -1.21299,1.40643 -1.8789,0.99024 -0.819104,-0.51194 -0.923117,-1.36093 -1.468752,-2.04297 -0.82872,-1.0359 -4.556284,-1.8158 -2.777344,-4.662112 0.46323,-0.741168 1.397803,-1.116972 2.417969,-1.212891 z m -4.423828,9.144533 c 3.783851,0.0503 4.169216,4.76003 -0.07617,4.83203 -1.567774,0.0266 -1.04246,1.74643 -1.414062,2.21094 -0.01291,0.0161 -0.02937,0.031 -0.04297,0.0469 a 9,9 0 0 1 -5.556641,-2.48633 c 0.199983,-0.25311 0.444303,-0.47068 0.72461,-0.63086 0.805357,-0.46021 1.907407,-0.37045 2.572265,-0.90234 1.570737,-1.25659 1.642708,-2.71193 3.792969,-3.07031 z" /></svg>
