<?xml version="1.0" encoding="UTF-8" standalone="no"?>
<!-- Created with Inkscape (http://www.inkscape.org/) -->

<svg
   width="42"
   height="41.999996"
   viewBox="0 0 42 41.999995"
   version="1.1"
   id="svg1"
   xml:space="preserve"
   xmlns="http://www.w3.org/2000/svg"
   xmlns:svg="http://www.w3.org/2000/svg"><defs
     id="defs1" /><path
     id="rect10"
     style="display:inline;vector-effect:non-scaling-stroke;fill:#6f6d84;fill-opacity:1;fill-rule:evenodd;stroke:none;stroke-width:3;stroke-linecap:square;stroke-miterlimit:5;stroke-dasharray:none;stroke-opacity:1;-inkscape-stroke:hairline;paint-order:markers stroke fill"
     d="M 6,5.7275393e-6 C 4.4088,2.4572754e-4 2.88285,0.63255573 1.75782,1.7578257 0.63255,2.8828557 2.4e-4,4.4088057 0,6.0000057 V 36.000006 c 2.4e-4,1.59123 0.63255,3.11715 1.75782,4.24218 1.12503,1.12527 2.65098,1.75758 4.24218,1.75782 h 30 c 1.5912,-2.4e-4 3.11715,-0.63255 4.24218,-1.75782 1.12527,-1.12503 1.75758,-2.65098 1.75782,-4.24218 v -29.7422103 -0.2577 h -0.006 c -0.0735,-1.58334 -0.72066,-3.07854 -1.81041,-4.18359 C 39.07032,0.66396573 37.56858,0.01194573 36,9.5727539e-5 Z M 6,3.0000057 l 30,-3e-5 c 0.831,0 1.57884,0.33666 2.12109,0.87891 L 24,17.999986 v 6.00001 h -6 v -5.99998 L 3.87891,3.8789157 C 4.42116,3.3366657 5.169,3.0000057 6,3.0000057 Z m 9,23.9999903 h 12 l 11.12109,11.1211 C 37.57884,38.663346 36.831,39.000006 36,39.000006 H 6 c -0.831,0 -1.57884,-0.33666 -2.12109,-0.87891 z" /><path
     id="path16"
     style="display:inline;vector-effect:non-scaling-stroke;fill:#9896a4;fill-opacity:1;fill-rule:evenodd;stroke:none;stroke-width:3;stroke-linecap:square;stroke-miterlimit:5;stroke-dasharray:none;stroke-opacity:1;-inkscape-stroke:hairline;paint-order:markers stroke fill"
     d="m 6,3.0000057 c -0.831,0 -1.57884,0.33666 -2.12109,0.87891 L 18,18.000016 l 6,-3e-5 L 38.12109,3.8788857 C 37.57884,3.3366357 36.831,2.9999757 36,2.9999757 Z M 15,26.999996 3.87891,38.121096 C 4.42116,38.663346 5.169,39.000006 6,39.000006 l 30,3e-5 c 0.831,0 1.57884,-0.33666 2.12109,-0.87891 L 27,27.000026 Z" /><ellipse
     style="display:inline;vector-effect:non-scaling-stroke;fill:#383549;fill-opacity:1;fill-rule:evenodd;stroke:none;stroke-width:3;stroke-linecap:square;stroke-miterlimit:5;stroke-dasharray:none;stroke-opacity:1;-inkscape-stroke:hairline;paint-order:markers stroke fill"
     id="path17"
     cx="10.5"
     cy="10.500006"
     rx="4.5"
     ry="4.5000033" /><ellipse
     style="display:inline;vector-effect:non-scaling-stroke;fill:#9896a4;fill-opacity:1;fill-rule:evenodd;stroke:none;stroke-width:3;stroke-linecap:square;stroke-miterlimit:5;stroke-dasharray:none;stroke-opacity:1;-inkscape-stroke:hairline;paint-order:markers stroke fill"
     id="path18"
     cx="10.5"
     cy="10.500006"
     rx="1.5"
     ry="1.5000011" /><ellipse
     style="display:inline;vector-effect:non-scaling-stroke;fill:#383549;fill-opacity:1;fill-rule:evenodd;stroke:none;stroke-width:3;stroke-linecap:square;stroke-miterlimit:5;stroke-dasharray:none;stroke-opacity:1;-inkscape-stroke:hairline;paint-order:markers stroke fill"
     id="circle18"
     cx="10.5"
     cy="31.500036"
     rx="4.5"
     ry="4.5000033" /><ellipse
     style="display:inline;vector-effect:non-scaling-stroke;fill:#9896a4;fill-opacity:1;fill-rule:evenodd;stroke:none;stroke-width:3;stroke-linecap:square;stroke-miterlimit:5;stroke-dasharray:none;stroke-opacity:1;-inkscape-stroke:hairline;paint-order:markers stroke fill"
     id="circle19"
     cx="10.5"
     cy="31.500036"
     rx="1.5"
     ry="1.5000011" /><ellipse
     style="display:inline;vector-effect:non-scaling-stroke;fill:#383549;fill-opacity:1;fill-rule:evenodd;stroke:none;stroke-width:3;stroke-linecap:square;stroke-miterlimit:5;stroke-dasharray:none;stroke-opacity:1;-inkscape-stroke:hairline;paint-order:markers stroke fill"
     id="circle20"
     cx="31.5"
     cy="31.500036"
     rx="4.5"
     ry="4.5000033" /><ellipse
     style="display:inline;vector-effect:non-scaling-stroke;fill:#9896a4;fill-opacity:1;fill-rule:evenodd;stroke:none;stroke-width:3;stroke-linecap:square;stroke-miterlimit:5;stroke-dasharray:none;stroke-opacity:1;-inkscape-stroke:hairline;paint-order:markers stroke fill"
     id="circle21"
     cx="31.5"
     cy="31.500036"
     rx="1.5"
     ry="1.5000011" /><ellipse
     style="display:inline;vector-effect:non-scaling-stroke;fill:#383549;fill-opacity:1;fill-rule:evenodd;stroke:none;stroke-width:3;stroke-linecap:square;stroke-miterlimit:5;stroke-dasharray:none;stroke-opacity:1;-inkscape-stroke:hairline;paint-order:markers stroke fill"
     id="circle22"
     cx="31.5"
     cy="10.500006"
     rx="4.5"
     ry="4.5000033" /><ellipse
     style="display:inline;vector-effect:non-scaling-stroke;fill:#9896a4;fill-opacity:1;fill-rule:evenodd;stroke:none;stroke-width:3;stroke-linecap:square;stroke-miterlimit:5;stroke-dasharray:none;stroke-opacity:1;-inkscape-stroke:hairline;paint-order:markers stroke fill"
     id="circle23"
     cx="31.5"
     cy="10.500006"
     rx="1.5"
     ry="1.5000011" /></svg>
