<?xml version="1.0" encoding="UTF-8"?><svg version="1.1" viewBox="0 0 21 23" xmlns="http://www.w3.org/2000/svg"><path d="m1e-6 10.5v2c0 5.799 4.701 10.5 10.5 10.5s10.5-4.701 10.5-10.5c-2.6e-4 -1 0-1 0-2z" fill-opacity=".21569" /><circle cx="10.5" cy="10.5" r="10.5" fill="#fff" /><rect x="5" y="10" width="11" height="8" rx="0" ry="0" fill="#077eeb" /><rect x="8" y="11" width="5" height="6" fill="#fff" /><rect x="6" y="6" width="9" height="4" fill="#2277ba" /><rect x="7" y="7" width="7" height="3" fill="#fff" /><rect x="10" y="3" width="4" height="5" rx="2" ry="2" /><rect x="11" y="4" width="2" height="3" rx="1" ry="1" fill="#fff" /><rect x="11" y="5" width="1" height="1" rx="0" ry="0" /><rect x="7" y="3" width="4" height="5" rx="2" ry="2" /><rect x="8" y="4" width="2" height="3" rx="1" ry="1" fill="#fff" /><rect x="8" y="5" width="1" height="1" rx="0" ry="0" /></svg>
