<?xml version="1.0" encoding="UTF-8" standalone="no"?>
<!-- Created with Inkscape (http://www.inkscape.org/) -->

<svg
   width="46"
   height="43.999996"
   viewBox="0 0 46 43.999994"
   version="1.1"
   id="svg1"
   xml:space="preserve"
   xmlns="http://www.w3.org/2000/svg"
   xmlns:svg="http://www.w3.org/2000/svg"><defs
     id="defs1" /><g
     id="layer2"
     transform="translate(-118,-13)"><path
       id="rect3099"
       style="opacity:1;vector-effect:non-scaling-stroke;fill:#000000;fill-opacity:0.22;stroke-linecap:square;stroke-miterlimit:5;-inkscape-stroke:hairline;paint-order:markers fill stroke"
       d="m 118,37 v 4 c 0,2.215996 1.784,4 4,4 h 24 c 2.216,0 4,-1.784004 4,-4 v -4 h -1 v 2 c 0,1.661998 -1.338,3 -3,3 h -24 c -1.662,0 -3,-1.338002 -3,-3 v -2 z" /><path
       id="rect1"
       style="vector-effect:non-scaling-stroke;fill:#ffffff;stroke-linecap:square;stroke-miterlimit:5;-inkscape-stroke:hairline;paint-order:markers fill stroke"
       d="m 122,13 c -2.216,0 -4,1.784002 -4,4 v 22 c 0,2.215998 1.784,4 4,4 h 24 c 2.216,0 4,-1.784002 4,-4 V 17 c 0,-2.215998 -1.784,-4 -4,-4 z m 0,2 h 24 c 1.108,0 2,0.892001 2,2 v 22 c 0,1.107999 -0.892,2 -2,2 h -24 c -1.108,0 -2,-0.892001 -2,-2 V 17 c 0,-1.107999 0.892,-2 2,-2 z" /><circle
       style="opacity:1;vector-effect:non-scaling-stroke;fill:#ffffff;stroke-linecap:square;stroke-miterlimit:5;-inkscape-stroke:hairline;paint-order:markers fill stroke"
       id="path2"
       cx="161.5"
       cy="54.5"
       r="2.5" /><path
       style="opacity:1;vector-effect:non-scaling-stroke;fill:#ffffff;stroke-linecap:square;stroke-miterlimit:5;-inkscape-stroke:hairline;paint-order:markers fill stroke"
       d="m 162.333,53.667 -1.666,1.665778 -13,-12.999869 1.666,-1.665909 z"
       id="path3" /><rect
       style="opacity:1;vector-effect:non-scaling-stroke;fill:#000000;fill-opacity:0.729412;stroke-linecap:square;stroke-miterlimit:5;-inkscape-stroke:hairline;paint-order:markers fill stroke"
       id="rect3"
       width="28"
       height="26"
       x="120"
       y="15.000001"
       ry="1.9999996" /></g></svg>
