<svg xmlns="http://www.w3.org/2000/svg" xml:space="preserve" width="16" height="16" viewBox="0 0 16 16"><rect width="16" height="16" rx="4" ry="4" style="opacity:1;fill:#fff;fill-opacity:.231373;stroke-width:.667;stroke-linecap:round;stroke-linejoin:round;paint-order:markers fill stroke"/><path d="M5.667 3.667v1h.5a1.5 1.5 0 1 1-1.5 1.5v-.5h-1v.5a2.5 2.5 0 0 0 3.47 2.302h.002l2.54 2.541a2 2 0 0 0-.012.157 1.5 1.5 0 0 0 1.5 1.5 1.5 1.5 0 0 0 1.5-1.5 1.5 1.5 0 0 0-1.5-1.5 2 2 0 0 0-.157.011L8.47 7.14v-.002a2.5 2.5 0 0 0-2.303-3.47zm5.5 7a.5.5 0 0 1 .5.5.5.5 0 0 1-.5.5.5.5 0 0 1-.5-.5.5.5 0 0 1 .5-.5" style="opacity:1;fill:#fff;fill-opacity:1;stroke-width:.667;stroke-linecap:round;stroke-linejoin:round;paint-order:markers fill stroke"/></svg>