<svg xmlns="http://www.w3.org/2000/svg" xml:space="preserve" width="16" height="16" viewBox="0 0 16 16"><rect width="16" height="16" rx="4" ry="4" style="opacity:1;fill:#fff;fill-opacity:1;stroke-width:.667;stroke-linecap:round;stroke-linejoin:round;paint-order:markers fill stroke"/><path d="M9.666 8.334 8.334 9.666l1.344 1.344a2 2 0 0 0-.012.156 1.5 1.5 0 0 0 1.5 1.5 1.5 1.5 0 0 0 1.5-1.5 1.5 1.5 0 0 0-1.5-1.5 2 2 0 0 0-.156.012zm1.5 2.332a.5.5 0 0 1 .5.5.5.5 0 0 1-.5.5.5.5 0 0 1-.5-.5.5.5 0 0 1 .5-.5" style="opacity:1;fill:#cf0407;fill-opacity:1;stroke-width:.667;stroke-linecap:round;stroke-linejoin:round;paint-order:markers fill stroke"/><path d="M5.666 3.666v1h.5a1.5 1.5 0 1 1-1.5 1.5v-.5h-1v.5a2.5 2.5 0 0 0 3.47 2.303h.003l1.195 1.197 1.332-1.332-1.197-1.195v-.002a2.5 2.5 0 0 0-2.303-3.47z" style="opacity:1;fill:#a2a2a2;fill-opacity:1;stroke-width:.667;stroke-linecap:round;stroke-linejoin:round;paint-order:markers fill stroke"/></svg>