<?xml version="1.0" encoding="UTF-8" standalone="no"?>
<!-- Created with Inkscape (http://www.inkscape.org/) -->

<svg
   width="66"
   height="66"
   viewBox="0 0 66 65.999997"
   version="1.1"
   id="svg1"
   xml:space="preserve"
   xmlns="http://www.w3.org/2000/svg"
   xmlns:svg="http://www.w3.org/2000/svg"><defs
     id="defs1" /><path
     id="rect2"
     style="vector-effect:non-scaling-stroke;fill:#5d1c1c;fill-opacity:1;fill-rule:evenodd;stroke-linecap:square;stroke-miterlimit:5;-inkscape-stroke:hairline;paint-order:markers stroke fill"
     d="m 33,15 c -6,0 -15,9 -15,17.999999 0,6 3,6 6,6.000001 0,1.09478 0.292673,2.118259 0.800781,3 H 24 c -1.661996,0 -3,1.338004 -3,3 0,1.661996 1.338004,3 3,3 h 3 c 1.661996,0 3,-1.338004 3,-3 h 6 c 0,1.661996 1.338004,3 3,3 h 3 c 1.661996,0 3,-1.338004 3,-3 0,-1.661996 -1.338004,-3 -3,-3 H 41.199219 C 41.707327,41.118259 42,40.09478 42,39 c 3,-10e-7 6,-10e-7 6,-6.000001 C 48,24 39,15 33,15 Z m -4.5,9 c 2.492994,0 4.5,2.007006 4.5,4.5 0,-2.492994 2.007006,-4.5 4.5,-4.5 2.492994,0 4.5,2.007006 4.5,4.5 v 3 C 42,33.992994 39.992994,36 37.5,36 35.007006,36 33,33.992994 33,31.5 33,33.992994 30.992994,36 28.5,36 26.007006,36 24,33.992994 24,31.5 v -3 C 24,26.007006 26.007006,24 28.5,24 Z m 0,3 C 27.669003,27 27,27.669003 27,28.5 v 3 c 0,0.830997 0.669003,1.5 1.5,1.5 0.830997,0 1.5,-0.669003 1.5,-1.5 v -3 C 30,27.669003 29.330997,27 28.5,27 Z m 9,0 C 36.669003,27 36,27.669003 36,28.5 v 3 c 0,0.830997 0.669003,1.5 1.5,1.5 0.830997,0 1.5,-0.669003 1.5,-1.5 v -3 C 39,27.669003 38.330997,27 37.5,27 Z M 27,39 h 12 c 0,1.661994 -1.338006,3 -3,3 h -6 c -1.661994,0 -3,-1.338006 -3,-3 z" /></svg>
