<svg xmlns="http://www.w3.org/2000/svg" xml:space="preserve" width="32" height="32" viewBox="0 0 32 32"><circle cx="16" cy="16" r="16" style="opacity:1;fill:#fff;fill-opacity:1;stroke-width:3;stroke-linecap:square;stroke-miterlimit:5;paint-order:markers fill stroke"/><circle cx="16" cy="16" r="13" style="opacity:1;fill:#000;fill-opacity:1;stroke-width:3;stroke-linecap:square;stroke-miterlimit:5;paint-order:markers fill stroke"/><circle cx="16" cy="16" r="11" style="opacity:1;fill:#fff;fill-opacity:1;stroke-width:3;stroke-linecap:square;stroke-miterlimit:5;paint-order:markers fill stroke"/><path d="M7.333 10v12h6l2-2v-3l-1-1 1-1v-3l-2-2zm2 2h3.332l.668.668v1.664l-.668.668H9.333Zm0 5h3.332l.668.668v1.664l-.668.668H9.333Zm9.334-5h3.332l.668.668v1.664l-.668.668h-3.332Zm0 5h3.332l.668.668V22h2v-5l-1-1 1-1v-3l-2-2h-6v12h2" style="opacity:1;fill:#000;fill-opacity:1;stroke-width:3;stroke-linecap:square;stroke-miterlimit:5;paint-order:markers fill stroke"/></svg>