<svg xmlns="http://www.w3.org/2000/svg" xml:space="preserve" width="162" height="31" viewBox="0 0 162 31"><rect width="162" height="6" y="25" rx="2" ry="2" style="fill:#000;fill-opacity:.12;stroke-width:2;stroke-linecap:round;stroke-linejoin:round;stroke-miterlimit:5;paint-order:markers stroke fill"/><rect width="162" height="29" rx="2" ry="2" style="fill:#5d1c1c;fill-opacity:1;stroke-width:2;stroke-linecap:round;stroke-linejoin:round;stroke-miterlimit:5;paint-order:markers stroke fill"/><circle cx="15" cy="14" r="12" style="fill:#facd00;fill-opacity:1;stroke-width:2;stroke-linecap:round;stroke-linejoin:round;stroke-miterlimit:5;paint-order:markers stroke fill"/><path d="M13.738 44.592c-.447.014-.825.283-1.137.82-.473.817-.29 2.35.403 3.627.658 1.21 1.492 2.264 1.91 2.702-.97.736-2.403 2.459.587 4.976 1.11.848 2.03 1.19 2.727 1.305.09.671.838 1.14.838 1.14 1.991.959 3.64.211 5.713-1.246 2.92-2.05 2.3-4.95 1.22-4.93.23-.52.38-1.152.394-1.923.07-2.318-2.364-5.655-4.125-5.586-.712.029-1.16.182-1.444.354a1.8 1.8 0 0 0-.832-.18 1.72 1.72 0 0 0-1.426.884 2.2 2.2 0 0 0-.901.058c-.327.12-.556.26-.716.406-.315-.37-.61-.685-.802-.89-.955-1.016-1.755-1.538-2.409-1.517" style="fill:#000;fill-opacity:1;stroke-width:.362992;stroke-linecap:round;stroke-linejoin:round;stroke-miterlimit:5;paint-order:markers stroke fill" transform="translate(-4.618 -37.091)"/><path d="M13.981 45.62c-.395-.01-1.744.573 1.091 4.782.573.851 1.093 1.356 1.702 1.865-.314.796-.037 1.75.4 2.615 0 0-.834-.585-.97-1.048-.137-.462-.114-1.144-.114-1.144a2.3 2.3 0 0 0-.337-.347c-.424.214-.772.729-.965 1.396-.278.962 1.07 2.627 2.764 3.164s2.838.327 3.552.067c-.514.615-1.46.682-2.019.801 1.625 2.132 4.81-.374 5.006-.52 2.765-2.056 1.804-3.512 1.37-3.504-.245.313-.684.78-1.13.902 1.274-1.265 1.534-3.567.897-4.852-1.29-2.605-2.968-3.852-3.901-3.172.188.152.274.281.285.673-.632-.914-2.08-1.01-2.306-.124.355.275.483.538.605 1.082-.834-1.012-2.205-1.072-2.591-.12.245.372.522.865.536 1.493-1.18-1.76-3.142-3.99-3.875-4.01m9.847 4.228c.381.038.599.903.37 1.446-.154.368-.324.764-.666-.391-.226-.764.04-1.08.296-1.055m-1.635.647c.191-.005.404.124.55.463.308.71.227 1.268.01 1.33-.217.064-.832-.559-.983-1.144-.09-.348.143-.642.423-.65m-1.773 1.121c.168-.003.411.133.776.524.779.833.427 1.114-.196.86s-1.016-.61-.914-.991c.055-.203.145-.388.334-.393" style="fill:#fff;fill-opacity:1;stroke-width:.362992;stroke-linecap:round;stroke-linejoin:round;stroke-miterlimit:5;paint-order:markers stroke fill" transform="translate(-4.618 -37.091)"/></svg>