<svg xmlns="http://www.w3.org/2000/svg" xml:space="preserve" width="19" height="21" viewBox="0 0 19 21"><rect width="19" height="6" y="15" rx="2" ry="2" style="fill:#000;fill-opacity:.117647;stroke-width:2;stroke-linecap:round;stroke-linejoin:round;stroke-miterlimit:5;paint-order:markers stroke fill"/><rect width="19" height="19" rx="2" ry="2" style="fill:#fff;fill-opacity:1;stroke-width:2;stroke-linecap:round;stroke-linejoin:round;stroke-miterlimit:5;paint-order:markers stroke fill"/><path d="M11.082 9.5 9.5 11.082l1.596 1.596a2 2 0 0 0-.014.185 1.78 1.78 0 0 0 1.78 1.781 1.78 1.78 0 0 0 1.782-1.781 1.78 1.78 0 0 0-1.781-1.781 2 2 0 0 0-.185.014zm1.781 2.77a.594.594 0 0 1 .594.593.594.594 0 0 1-.594.594.594.594 0 0 1-.594-.594.594.594 0 0 1 .594-.594" style="fill:#cf0407;fill-opacity:1;stroke-width:.792062;stroke-linecap:round;stroke-linejoin:round;paint-order:markers fill stroke"/><path d="M6.332 3.957v.792l1.98 1.98L6.727 8.31l-1.98-1.978-.791-.001v.594c0 2.122 2.164 3.558 4.12 2.735h.004l1.42 1.421L11.081 9.5l-1.42-1.419V8.08c.823-1.956-.613-4.12-2.735-4.12z" style="fill:#a2a2a2;fill-opacity:1;stroke-width:.792062;stroke-linecap:round;stroke-linejoin:round;paint-order:markers fill stroke"/></svg>