<?xml version="1.0" encoding="UTF-8" standalone="no"?>
<!-- Created with Inkscape (http://www.inkscape.org/) -->

<svg
   width="19"
   height="20.999998"
   viewBox="0 0 19 20.999997"
   version="1.1"
   id="svg1"
   xml:space="preserve"
   xmlns="http://www.w3.org/2000/svg"
   xmlns:svg="http://www.w3.org/2000/svg"><defs
     id="defs1" /><rect
     style="fill:#000000;fill-opacity:0.117647;stroke-width:2;stroke-linecap:round;stroke-linejoin:round;stroke-miterlimit:5;paint-order:markers stroke fill"
     id="rect4"
     width="19"
     height="6"
     x="0"
     y="15.00001"
     ry="1.9999964"
     rx="1.9999964" /><rect
     style="fill:#ffffff;fill-opacity:1;stroke-width:2;stroke-linecap:round;stroke-linejoin:round;stroke-miterlimit:5;paint-order:markers stroke fill"
     id="rect5"
     width="19"
     height="18.999996"
     x="0"
     y="9.7900393e-06"
     rx="1.9999964"
     ry="1.9999964" /><path
     d="M 11.08175,9.5000098 9.5,11.08176 l 1.596,1.596 a 2.375,2.375 0 0 0 -0.0143,0.18525 1.78125,1.78125 0 0 0 1.78125,1.78125 1.78125,1.78125 0 0 0 1.78125,-1.78125 1.78125,1.78125 0 0 0 -1.78125,-1.78125 2.375,2.375 0 0 0 -0.18525,0.0143 z M 12.863,12.26926 a 0.59375,0.59375 0 0 1 0.59375,0.59375 0.59375,0.59375 0 0 1 -0.59375,0.59375 0.59375,0.59375 0 0 1 -0.59375,-0.59375 0.59375,0.59375 0 0 1 0.59375,-0.59375"
     style="fill:#cf0407;fill-opacity:1;stroke-width:0.792062;stroke-linecap:round;stroke-linejoin:round;paint-order:markers fill stroke"
     id="path1-9" /><path
     d="m 6.33175,3.9567598 10e-4,0.79206 1.97837,1.97956 -1.58294,1.58294 -1.97956,-1.97837 -0.79206,-10e-4 v 0.59375 c 9.7e-4,2.12253 2.16438,3.5583602 4.12062,2.73481 h 0.004 L 9.50024,11.08195 11.08199,9.5001998 9.66055,8.0811398 v -0.002 c 0.82355,-1.95624 -0.61228,-4.11965 -2.73481,-4.12062 z"
     style="fill:#a2a2a2;fill-opacity:1;stroke-width:0.792062;stroke-linecap:round;stroke-linejoin:round;paint-order:markers fill stroke"
     id="path2-8" /></svg>
