<svg xmlns="http://www.w3.org/2000/svg" xml:space="preserve" width="162" height="31" viewBox="0 0 162 31"><rect width="162" height="6" y="25" rx="2" ry="2" style="fill:#000;fill-opacity:.12;stroke-width:2;stroke-linecap:round;stroke-linejoin:round;stroke-miterlimit:5;paint-order:markers stroke fill"/><rect width="162" height="29" rx="2" ry="2" style="fill:#5d1c1c;fill-opacity:1;stroke-width:2;stroke-linecap:round;stroke-linejoin:round;stroke-miterlimit:5;paint-order:markers stroke fill"/><circle cx="15" cy="14" r="12" style="fill:#facd00;fill-opacity:1;stroke-width:2;stroke-linecap:round;stroke-linejoin:round;stroke-miterlimit:5;paint-order:markers stroke fill"/><circle cx="15" cy="14" r="7" style="fill:#41c0b1;fill-opacity:1;stroke-width:2;stroke-linecap:round;stroke-linejoin:round;stroke-miterlimit:5;paint-order:markers stroke fill"/><path d="M12.554 7.441a7.02 7.02 0 0 0-3.67 3.154c3.1 1.473 9.304 3.475 13.116 3.837-.009-.71-.127-1.93-.348-2.604-2.62-.56-6.834-2.423-9.098-4.387m-4.488 5.623A7 7 0 0 0 8 14a7 7 0 0 0 .16 1.41c3 2.814 8.68 3.742 11.23 4.025a7 7 0 0 0 1.676-1.976c-7.268-.213-11.045-2.36-13-4.395" style="fill:#45d2c4;fill-opacity:1;stroke-width:2;stroke-linecap:round;stroke-linejoin:round;stroke-miterlimit:5;paint-order:markers stroke fill"/><path d="M8.46 10.004c-1.629.044-2.618.399-2.778.998-.196 1.266 2.976 3.425 8.662 4.951 6.328 1.695 9.978 1.09 9.996-.117.013-.644-.828-1.478-2.36-2.342A7 7 0 0 1 22 14a7 7 0 0 1-.055.766q.375.322.418.574c.115.78-2.74.975-7.758-.37-4.497-1.207-7.046-2.679-6.962-3.44.066-.232.408-.386.996-.45a7 7 0 0 1 .627-1.072q-.423-.014-.805-.004" style="fill:#6e6ebe;fill-opacity:1;stroke-width:2.03117;stroke-linecap:round;stroke-linejoin:round;stroke-miterlimit:5;paint-order:markers stroke fill"/></svg>