<svg xmlns="http://www.w3.org/2000/svg" xml:space="preserve" width="19" height="21" viewBox="0 0 19 21"><rect width="19" height="6" y="15" rx="2" ry="2" style="fill:#000;fill-opacity:.117647;stroke-width:2;stroke-linecap:round;stroke-linejoin:round;stroke-miterlimit:5;paint-order:markers stroke fill"/><rect width="19" height="19" rx="2" ry="2" style="fill:#fff;fill-opacity:1;stroke-width:2;stroke-linecap:round;stroke-linejoin:round;stroke-miterlimit:5;paint-order:markers stroke fill"/><ellipse cx="9" cy="9.5" rx="6" ry="6.5" style="fill:#8b87ff;fill-opacity:1;stroke-width:2;stroke-linecap:round;stroke-linejoin:round;stroke-miterlimit:5;paint-order:markers stroke fill"/><path d="M15 16c.501 0 1-.498 1-1s-2-4-2-4l-3 3s3.499 2 4 2" style="fill:#8b87ff;fill-opacity:1;stroke-width:2;stroke-linecap:round;stroke-linejoin:round;stroke-miterlimit:5;paint-order:markers stroke fill"/><path d="M8 12h2v1H8zm0-1c0-1.502 2-2 2-3S9 7 9 7 8 7 8 8v.667H6V8c0-1 1-2 2-2h2c1 0 2 1 2 2s-2 2-2 3z" style="fill:#fff;fill-opacity:1;stroke-width:2;stroke-linecap:round;stroke-linejoin:round;stroke-miterlimit:5;paint-order:markers stroke fill"/></svg>