<svg xmlns="http://www.w3.org/2000/svg" xml:space="preserve" width="19" height="21" viewBox="0 0 19 21"><rect width="19" height="6" y="15" rx="2" ry="2" style="fill:#000;fill-opacity:.117647;stroke-width:2;stroke-linecap:round;stroke-linejoin:round;stroke-miterlimit:5;paint-order:markers stroke fill"/><rect width="19" height="19" rx="2" ry="2" style="fill:#fff;fill-opacity:1;stroke-width:2;stroke-linecap:round;stroke-linejoin:round;stroke-miterlimit:5;paint-order:markers stroke fill"/><path d="M7 4c-1.108 0-2 .892-2 2v9h9V6c0-1.108-.892-2-2-2zm0 1.021h5c.554 0 1 .446 1 1V14h-1V6H7v8H6V6.021c0-.554.446-1 1-1M10.5 10a.5.5 0 1 1 0 1 .5.5 0 0 1 0-1" style="fill:#5d1c1c;fill-opacity:1;stroke-width:2;stroke-linecap:round;stroke-linejoin:round;stroke-miterlimit:5;paint-order:markers stroke fill"/></svg>