<?xml version="1.0" encoding="UTF-8" standalone="no"?>
<!-- Created with Inkscape (http://www.inkscape.org/) -->

<svg
   width="19"
   height="20.999998"
   viewBox="0 0 19 20.999997"
   version="1.1"
   id="svg1"
   xml:space="preserve"
   xmlns="http://www.w3.org/2000/svg"
   xmlns:svg="http://www.w3.org/2000/svg"><defs
     id="defs1" /><rect
     style="fill:#000000;fill-opacity:0.117647;stroke-width:2;stroke-linecap:round;stroke-linejoin:round;stroke-miterlimit:5;paint-order:markers stroke fill"
     id="rect6"
     width="19"
     height="6"
     x="0"
     y="15.000009"
     ry="1.9999964"
     rx="1.9999964" /><rect
     style="fill:#ffffff;fill-opacity:1;stroke-width:2;stroke-linecap:round;stroke-linejoin:round;stroke-miterlimit:5;paint-order:markers stroke fill"
     id="rect7"
     width="19"
     height="18.999996"
     x="0"
     y="8.8916022e-06"
     rx="1.9999964"
     ry="1.9999964" /><path
     id="path8"
     style="fill:#5d1c1c;fill-opacity:1;stroke-width:2;stroke-linecap:round;stroke-linejoin:round;stroke-miterlimit:5;paint-order:markers stroke fill"
     d="m 9.5,4.0000089 a 2.5,2.5 0 0 0 -2.5,2.5 2.5,2.5 0 0 0 1,1.99219 v 0.50781 c -3,0 -3,4.0000001 -3,4.0000001 h 9 c 0,0 0,-4.0000001 -3,-4.0000001 v -0.50781 a 2.5,2.5 0 0 0 1,-1.99219 2.5,2.5 0 0 0 -2.5,-2.5 z m -1.30078,1.75391 c 0.37439,0.68025 1.27942,1.22494 2.71484,1.24609 A 1.5,1.5 0 0 1 10,7.9140689 v 1.08594 H 9 v -1.08594 a 1.5,1.5 0 0 1 -1,-1.41406 1.5,1.5 0 0 1 0.19922,-0.74609 z M 9.5,10.000009 c 0.27614,0 0.5,0.22386 0.5,0.5 0,0.27614 -0.22386,0.5 -0.5,0.5 -0.27614,0 -0.5,-0.22386 -0.5,-0.5 0,-0.27614 0.22386,-0.5 0.5,-0.5 z" /><rect
     style="fill:#000000;fill-opacity:0.117647;stroke-width:2;stroke-linecap:round;stroke-linejoin:round;stroke-miterlimit:5;paint-order:markers stroke fill"
     id="rect16"
     width="7"
     height="8"
     x="11"
     y="10.000009"
     rx="3.5"
     ry="3.5" /><circle
     style="fill:#463436;fill-opacity:1;stroke-width:2;stroke-linecap:round;stroke-linejoin:round;stroke-miterlimit:5;paint-order:markers stroke fill"
     id="path14"
     cx="14.5"
     cy="13.500009"
     r="3.5" /><circle
     style="fill:#ffffff;fill-opacity:1;stroke-width:2;stroke-linecap:round;stroke-linejoin:round;stroke-miterlimit:5;paint-order:markers stroke fill"
     id="path15"
     cx="14.5"
     cy="13.500009"
     r="2.5" /><rect
     style="fill:#ff2423;fill-opacity:1;stroke-width:2;stroke-linecap:round;stroke-linejoin:round;stroke-miterlimit:5;paint-order:markers stroke fill"
     id="rect15"
     width="3"
     height="1"
     x="13"
     y="13.000009" /></svg>
