<?xml version="1.0" encoding="UTF-8" standalone="no"?>
<!-- Created with Inkscape (http://www.inkscape.org/) -->

<svg
   width="162"
   height="31"
   viewBox="0 0 162 30.999999"
   version="1.1"
   id="svg1"
   xml:space="preserve"
   xmlns="http://www.w3.org/2000/svg"
   xmlns:svg="http://www.w3.org/2000/svg"><defs
     id="defs1" /><rect
     style="fill:#000000;fill-opacity:0.12;stroke-width:2;stroke-linecap:round;stroke-linejoin:round;stroke-miterlimit:5;paint-order:markers stroke fill"
     id="rect11"
     width="162"
     height="6.0000014"
     x="0"
     y="24.999998"
     rx="2"
     ry="2" /><rect
     style="fill:#ffffff;stroke-width:2;stroke-linecap:round;stroke-linejoin:round;stroke-miterlimit:5;paint-order:markers stroke fill"
     id="rect1"
     width="162"
     height="29"
     x="0"
     y="-1.484375e-06"
     rx="2"
     ry="2" /><circle
     style="fill:#facd00;fill-opacity:1;stroke-width:2;stroke-linecap:round;stroke-linejoin:round;stroke-miterlimit:5;paint-order:markers stroke fill"
     id="path1"
     cx="15"
     cy="13.999998"
     r="12" /><g
     id="g11"
     transform="translate(-4.6178976,-37.091376)"><path
       id="path10"
       style="fill:#000000;fill-opacity:1;stroke-width:0.362992;stroke-linecap:round;stroke-linejoin:round;stroke-miterlimit:5;paint-order:markers stroke fill"
       d="m 13.738389,44.591986 c -0.447162,0.01438 -0.825327,0.282751 -1.137186,0.82063 -0.473412,0.816518 -0.290828,2.349315 0.403031,3.626346 0.65766,1.210408 1.491508,2.263738 1.909979,2.702264 -0.970013,0.736177 -2.403261,2.458411 0.586672,4.976252 1.109995,0.8471 2.030853,1.190452 2.726693,1.304502 0.09112,0.671479 0.83871,1.140022 0.83871,1.140022 1.991111,0.958682 3.638781,0.211121 5.71287,-1.24566 2.920434,-2.051227 2.300743,-4.949894 1.219072,-4.930872 0.2308,-0.519492 0.381469,-1.150971 0.39525,-1.922723 0.06952,-2.317577 -2.364131,-5.654783 -4.125488,-5.585256 -0.712243,0.02811 -1.159884,0.181283 -1.44417,0.353775 -0.262157,-0.122146 -0.54141,-0.194039 -0.83162,-0.181141 -0.76777,0.05576 -1.193965,0.486597 -1.426091,0.884438 -0.288889,-0.03657 -0.596552,-0.02919 -0.901099,0.05813 -0.326687,0.120161 -0.555758,0.260908 -0.716059,0.406593 -0.315308,-0.369711 -0.610131,-0.685526 -0.802198,-0.890109 -0.954322,-1.016513 -1.754824,-1.538214 -2.408366,-1.517193 z" /><path
       id="path11"
       style="fill:#ffffff;fill-opacity:1;stroke-width:0.362992;stroke-linecap:round;stroke-linejoin:round;stroke-miterlimit:5;paint-order:markers stroke fill"
       d="m 13.981479,45.619832 c -0.39574,-0.01032 -1.744204,0.573451 1.090479,4.782508 0.572867,0.850618 1.093426,1.355657 1.701673,1.864183 -0.313316,0.796167 -0.03618,1.750088 0.400775,2.615789 0,0 -0.834312,-0.585542 -0.970763,-1.048101 -0.136453,-0.46256 -0.113606,-1.144031 -0.113606,-1.144031 -0.07286,-0.102389 -0.224683,-0.254192 -0.337102,-0.347398 -0.423479,0.214146 -0.771923,0.72925 -0.964918,1.396671 -0.278105,0.961801 1.069637,2.626373 2.763804,3.16369 1.694169,0.537341 2.838649,0.326889 3.552338,0.06638 -0.513852,0.614978 -1.460767,0.682727 -2.018904,0.801663 1.624506,2.131446 4.809041,-0.373865 5.005849,-0.520209 2.7644,-2.055514 1.804222,-3.512334 1.370791,-3.504431 -0.246198,0.312969 -0.684761,0.779627 -1.13116,0.902512 1.274484,-1.265239 1.534183,-3.566956 0.897201,-4.852535 -1.290312,-2.60415 -2.967552,-3.851054 -3.901101,-3.171216 0.187746,0.151918 0.273982,0.280658 0.284847,0.672396 -0.632123,-0.913635 -2.080245,-1.009888 -2.306117,-0.124009 0.355632,0.275302 0.483504,0.538399 0.605325,1.08223 -0.834191,-1.011628 -2.204991,-1.071798 -2.591293,-0.120735 0.245352,0.372703 0.522363,0.866211 0.536127,1.494016 -1.178942,-1.760734 -3.142139,-3.990284 -3.874245,-4.009373 z m 9.84629,4.228331 c 0.381254,0.03793 0.598825,0.903021 0.3705,1.445692 -0.154705,0.367696 -0.324245,0.764485 -0.666343,-0.39102 -0.22607,-0.763594 0.0397,-1.08016 0.295843,-1.054672 z m -1.634929,0.646342 c 0.191254,-0.0049 0.404186,0.124688 0.550869,0.463664 0.307285,0.710121 0.226654,1.267759 0.0096,1.330736 -0.217083,0.06298 -0.832697,-0.559797 -0.98334,-1.144986 -0.08944,-0.347455 0.143377,-0.642167 0.4229,-0.649414 z m -1.772421,1.121943 c 0.167089,-0.0039 0.411073,0.132759 0.775966,0.523219 0.778439,0.83298 0.42635,1.114343 -0.196385,0.860332 -0.622734,-0.254005 -1.016284,-0.610125 -0.91386,-0.991137 0.05441,-0.202415 0.144911,-0.387933 0.334279,-0.392414 z" /></g></svg>
