<svg xmlns="http://www.w3.org/2000/svg" xml:space="preserve" width="162" height="31" viewBox="0 0 162 31"><rect width="162" height="6" y="25" rx="2" ry="2" style="fill:#000;fill-opacity:.12;stroke-width:2;stroke-linecap:round;stroke-linejoin:round;stroke-miterlimit:5;paint-order:markers stroke fill"/><rect width="162" height="29" rx="2" ry="2" style="fill:#5d1c1c;fill-opacity:1;stroke-width:2;stroke-linecap:round;stroke-linejoin:round;stroke-miterlimit:5;paint-order:markers stroke fill"/><circle cx="15" cy="14" r="12" style="fill:#facd00;fill-opacity:1;stroke-width:2;stroke-linecap:round;stroke-linejoin:round;stroke-miterlimit:5;paint-order:markers stroke fill"/><path d="M11 18h8v3h-8z" style="fill:#eecba5;fill-opacity:1;stroke-width:2;stroke-linecap:round;stroke-linejoin:round;stroke-miterlimit:5;paint-order:markers stroke fill"/><path d="M19 14h3v7h-3z" style="fill:#f2dac0;fill-opacity:1;stroke-width:2;stroke-linecap:round;stroke-linejoin:round;stroke-miterlimit:5;paint-order:markers stroke fill"/><path d="M19 14v-1l1-2V9h1v2l1 2v1z" style="fill:#cd384b;fill-opacity:1;stroke-width:2;stroke-linecap:round;stroke-linejoin:round;stroke-miterlimit:5;paint-order:markers stroke fill"/><path d="m23 9-2-2h-1v2z" style="fill:#e4867e;fill-opacity:1;stroke-width:2;stroke-linecap:round;stroke-linejoin:round;stroke-miterlimit:5;paint-order:markers stroke fill"/><path d="M8 14h3v7H8z" style="fill:#f2dac0;fill-opacity:1;stroke-width:2;stroke-linecap:round;stroke-linejoin:round;stroke-miterlimit:5;paint-order:markers stroke fill"/><path d="M8 14v-1l1-2V9h1v2l1 2v1z" style="fill:#cd384b;fill-opacity:1;stroke-width:2;stroke-linecap:round;stroke-linejoin:round;stroke-miterlimit:5;paint-order:markers stroke fill"/><path d="m12 9-2-2H9v2z" style="fill:#e4867e;fill-opacity:1;stroke-width:2;stroke-linecap:round;stroke-linejoin:round;stroke-miterlimit:5;paint-order:markers stroke fill"/><path d="M10 18v-1l2-2h6l2 2v1z" style="fill:#cd384b;fill-opacity:1;stroke-width:2;stroke-linecap:round;stroke-linejoin:round;stroke-miterlimit:5;paint-order:markers stroke fill"/><path d="M15 17a2 2 0 0 0-2 2v2h4v-2a2 2 0 0 0-2-2" style="fill:#f5f4e2;fill-opacity:1;stroke-width:2;stroke-linecap:round;stroke-linejoin:round;stroke-miterlimit:5;paint-order:markers stroke fill"/><circle cx="15" cy="19" r="1" style="fill:#74898a;fill-opacity:1;stroke-width:2;stroke-linecap:round;stroke-linejoin:round;stroke-miterlimit:5;paint-order:markers stroke fill"/><path d="M14 19h2v2h-2z" style="fill:#93584a;fill-opacity:1;stroke-width:2;stroke-linecap:round;stroke-linejoin:round;stroke-miterlimit:5;paint-order:markers stroke fill"/><path d="m12 15 1-1h4l1 1z" style="fill:#f5f4e2;fill-opacity:1;stroke-width:2;stroke-linecap:round;stroke-linejoin:round;stroke-miterlimit:5;paint-order:markers stroke fill"/><path d="M13 12h4v2h-4z" style="fill:#f2dac0;fill-opacity:1;stroke-width:2;stroke-linecap:round;stroke-linejoin:round;stroke-miterlimit:5;paint-order:markers stroke fill"/><path d="M13 12v-1l1-2V7h2v2l1 2v1z" style="fill:#cd384b;fill-opacity:1;stroke-width:2;stroke-linecap:round;stroke-linejoin:round;stroke-miterlimit:5;paint-order:markers stroke fill"/><path d="m18 7-2-2h-2v2z" style="fill:#e4867e;fill-opacity:1;stroke-width:2;stroke-linecap:round;stroke-linejoin:round;stroke-miterlimit:5;paint-order:markers stroke fill"/></svg>