<?xml version="1.0" encoding="UTF-8" standalone="no"?>
<!-- Created with Inkscape (http://www.inkscape.org/) -->

<svg
   width="162"
   height="31"
   viewBox="0 0 162 30.999999"
   version="1.1"
   id="svg1"
   xml:space="preserve"
   xmlns="http://www.w3.org/2000/svg"
   xmlns:svg="http://www.w3.org/2000/svg"><defs
     id="defs1" /><rect
     style="fill:#000000;fill-opacity:0.12;stroke-width:2;stroke-linecap:round;stroke-linejoin:round;stroke-miterlimit:5;paint-order:markers stroke fill"
     id="rect17"
     width="162"
     height="6.0000014"
     x="0"
     y="24.999996"
     rx="2"
     ry="2" /><rect
     style="fill:#ffffff;stroke-width:2;stroke-linecap:round;stroke-linejoin:round;stroke-miterlimit:5;paint-order:markers stroke fill"
     id="rect18"
     width="162"
     height="29"
     x="0"
     y="-4.0625e-06"
     rx="2"
     ry="2" /><circle
     style="fill:#facd00;fill-opacity:1;stroke-width:2;stroke-linecap:round;stroke-linejoin:round;stroke-miterlimit:5;paint-order:markers stroke fill"
     id="circle18"
     cx="15"
     cy="13.999996"
     r="12" /><rect
     style="fill:#eecba5;fill-opacity:1;stroke-width:2;stroke-linecap:round;stroke-linejoin:round;stroke-miterlimit:5;paint-order:markers stroke fill"
     id="rect20"
     width="8"
     height="3"
     x="11"
     y="17.999996" /><rect
     style="fill:#f2dac0;fill-opacity:1;stroke-width:2;stroke-linecap:round;stroke-linejoin:round;stroke-miterlimit:5;paint-order:markers stroke fill"
     id="rect25"
     width="3"
     height="7.0000024"
     x="19"
     y="13.999996" /><path
     style="fill:#cd384b;fill-opacity:1;stroke-width:2;stroke-linecap:round;stroke-linejoin:round;stroke-miterlimit:5;paint-order:markers stroke fill"
     d="m 19,13.999996 v -1 l 1,-2 V 8.9999959 h 1 v 2.0000001 l 1,2 v 1 z"
     id="path25" /><path
     style="fill:#e4867e;fill-opacity:1;stroke-width:2;stroke-linecap:round;stroke-linejoin:round;stroke-miterlimit:5;paint-order:markers stroke fill"
     d="m 23,8.9999959 -2,-2 h -1 v 2 z"
     id="path27" /><rect
     style="fill:#f2dac0;fill-opacity:1;stroke-width:2;stroke-linecap:round;stroke-linejoin:round;stroke-miterlimit:5;paint-order:markers stroke fill"
     id="rect27"
     width="3"
     height="7.0000024"
     x="8"
     y="13.999996" /><path
     style="fill:#cd384b;fill-opacity:1;stroke-width:2;stroke-linecap:round;stroke-linejoin:round;stroke-miterlimit:5;paint-order:markers stroke fill"
     d="m 8.0000005,13.999996 v -1 l 1,-2 V 8.9999959 H 10 v 2.0000001 l 1,2 v 1 z"
     id="path28" /><path
     style="fill:#e4867e;fill-opacity:1;stroke-width:2;stroke-linecap:round;stroke-linejoin:round;stroke-miterlimit:5;paint-order:markers stroke fill"
     d="m 12,8.9999959 -2,-2 H 9.0000005 v 2 z"
     id="path29" /><path
     style="fill:#cd384b;fill-opacity:1;stroke-width:2;stroke-linecap:round;stroke-linejoin:round;stroke-miterlimit:5;paint-order:markers stroke fill"
     d="m 10,17.999996 v -1 l 2,-2 h 6 l 2,2 v 1 z"
     id="path20" /><path
     id="path18"
     style="fill:#f5f4e2;fill-opacity:1;stroke-width:2;stroke-linecap:round;stroke-linejoin:round;stroke-miterlimit:5;paint-order:markers stroke fill"
     d="m 15,16.999986 c -1.104569,0 -2,0.89543 -2,2 v 2 h 4 v -2 c 0,-1.10457 -0.895431,-2 -2,-2 z" /><circle
     style="fill:#74898a;fill-opacity:1;stroke-width:2;stroke-linecap:round;stroke-linejoin:round;stroke-miterlimit:5;paint-order:markers stroke fill"
     id="path19"
     cx="15"
     cy="18.999996"
     r="1" /><rect
     style="fill:#93584a;fill-opacity:1;stroke-width:2;stroke-linecap:round;stroke-linejoin:round;stroke-miterlimit:5;paint-order:markers stroke fill"
     id="rect19"
     width="2"
     height="2"
     x="14"
     y="18.999996" /><path
     style="fill:#f5f4e2;fill-opacity:1;stroke-width:2;stroke-linecap:round;stroke-linejoin:round;stroke-miterlimit:5;paint-order:markers stroke fill"
     d="m 12,14.999996 1,-1 h 4 l 1,1 z"
     id="path21" /><rect
     style="fill:#f2dac0;fill-opacity:1;stroke-width:2;stroke-linecap:round;stroke-linejoin:round;stroke-miterlimit:5;paint-order:markers stroke fill"
     id="rect21"
     width="4"
     height="2.0000024"
     x="13"
     y="11.999996" /><path
     style="fill:#cd384b;fill-opacity:1;stroke-width:2;stroke-linecap:round;stroke-linejoin:round;stroke-miterlimit:5;paint-order:markers stroke fill"
     d="m 13,11.999996 v -1 l 1,-2.0000001 v -2 h 2 v 2 l 1,2.0000001 v 1 z"
     id="path22" /><path
     style="fill:#e4867e;fill-opacity:1;stroke-width:2;stroke-linecap:round;stroke-linejoin:round;stroke-miterlimit:5;paint-order:markers stroke fill"
     d="m 18,6.9999959 -2,-2 h -2 v 2 z"
     id="path23" /></svg>
