<svg xmlns="http://www.w3.org/2000/svg" xml:space="preserve" width="19" height="21" viewBox="0 0 19 21"><rect width="19" height="6" y="15" rx="2" ry="2" style="fill:#000;fill-opacity:.117647;stroke-width:2;stroke-linecap:round;stroke-linejoin:round;stroke-miterlimit:5;paint-order:markers stroke fill"/><rect width="19" height="19" rx="2" ry="2" style="fill:#fff;fill-opacity:1;stroke-width:2;stroke-linecap:round;stroke-linejoin:round;stroke-miterlimit:5;paint-order:markers stroke fill"/><path d="M9.5 4A2.5 2.5 0 0 0 7 6.5a2.5 2.5 0 0 0 1 1.992V9c-3 0-3 4-3 4h9s0-4-3-4v-.508A2.5 2.5 0 0 0 12 6.5 2.5 2.5 0 0 0 9.5 4M8.2 5.754c.374.68 1.279 1.225 2.714 1.246a1.5 1.5 0 0 1-.914.914V9H9V7.914A1.5 1.5 0 0 1 8 6.5a1.5 1.5 0 0 1 .2-.746M9.5 10a.5.5 0 1 1 0 1 .5.5 0 0 1 0-1" style="fill:#5d1c1c;fill-opacity:1;stroke-width:2;stroke-linecap:round;stroke-linejoin:round;stroke-miterlimit:5;paint-order:markers stroke fill"/><rect width="7" height="8" x="11" y="10" rx="3.5" ry="3.5" style="fill:#000;fill-opacity:.117647;stroke-width:2;stroke-linecap:round;stroke-linejoin:round;stroke-miterlimit:5;paint-order:markers stroke fill"/><circle cx="14.5" cy="13.5" r="3.5" style="fill:#463436;fill-opacity:1;stroke-width:2;stroke-linecap:round;stroke-linejoin:round;stroke-miterlimit:5;paint-order:markers stroke fill"/><circle cx="14.5" cy="13.5" r="2.5" style="fill:#fff;fill-opacity:1;stroke-width:2;stroke-linecap:round;stroke-linejoin:round;stroke-miterlimit:5;paint-order:markers stroke fill"/><path d="M13 13h3v1h-3z" style="fill:#ff2423;fill-opacity:1;stroke-width:2;stroke-linecap:round;stroke-linejoin:round;stroke-miterlimit:5;paint-order:markers stroke fill"/></svg>