<?xml version="1.0" encoding="UTF-8" standalone="no"?>
<!-- Created with Inkscape (http://www.inkscape.org/) -->

<svg
   width="150"
   height="19"
   viewBox="0 0 150 18.999999"
   version="1.1"
   id="svg1"
   xml:space="preserve"
   xmlns="http://www.w3.org/2000/svg"
   xmlns:svg="http://www.w3.org/2000/svg"><defs
     id="defs1" /><path
     style="fill:#ffffff;stroke:none;stroke-width:2;stroke-linecap:round;stroke-linejoin:round;stroke-miterlimit:5;stroke-opacity:1;paint-order:markers stroke fill"
     d="m 89.333,14 h -2 V 4.9999998 h 2 l 2,2 2,-2 h 2 V 14 h -2 V 7.6666668 l -2,2 -2,-2 z"
     id="path3" /><path
     id="path4"
     style="fill:#ffffff;stroke:none;stroke-width:2;stroke-linecap:round;stroke-linejoin:round;stroke-miterlimit:5;stroke-opacity:1;paint-order:markers stroke fill"
     d="m 44.667,4.9999999 -1.334001,1.333 V 14 h 2 v -3 h 3 v 3 h 2 V 6.3329999 l -1.333,-1.333 z m 0.665999,2 h 3 v 2 h -3 z" /><path
     style="fill:#ffffff;stroke:none;stroke-width:2;stroke-linecap:round;stroke-linejoin:round;stroke-miterlimit:5;stroke-opacity:1;paint-order:markers stroke fill"
     d="m 75.333,4.9999999 h 6 v 2 h -4 v 1.667 h 2 V 10.333 h -2 V 12 h 4 v 2 h -6 z"
     id="path8" /><path
     style="fill:#ffffff;stroke:none;stroke-width:2;stroke-linecap:round;stroke-linejoin:round;stroke-miterlimit:5;stroke-opacity:1;paint-order:markers stroke fill"
     d="M 28.333,14 V 5 h 6 v 2 h -4 v 7 z"
     id="path19" /><path
     style="fill:#ffffff;stroke:none;stroke-width:2;stroke-linecap:round;stroke-linejoin:round;stroke-miterlimit:5;stroke-opacity:1;paint-order:markers stroke fill"
     d="m 34.333,14 v -1.333 l 1,-1 V 5 h 6.999999 v 9 H 40.333 V 7 h -3 v 5.333 L 35.667,14 Z"
     id="path20" /><path
     id="path21"
     style="fill:#ffffff;stroke:none;stroke-width:2;stroke-linecap:round;stroke-linejoin:round;stroke-miterlimit:5;stroke-opacity:1;paint-order:markers stroke fill"
     d="m 51.333002,5 v 9 h 5.666995 l 1.333005,-1.333 -4e-6,-2.6670001 L 57.667,9.333 58.332998,8.667 58.333002,6.333 56.999997,5 Z m 2,2 h 3 v 1.667 h -3 z m 0,3.333 h 3 V 12 h -3 z" /><path
     style="fill:#ffffff;stroke:none;stroke-width:2;stroke-linecap:round;stroke-linejoin:round;stroke-miterlimit:5;stroke-opacity:1;paint-order:markers stroke fill"
     d="M 59.332998,14 V 5 h 2 v 3.667 h 3 V 5 h 2 v 9 h -2 v -3.667 h -3 V 14 Z"
     id="path23" /><path
     id="path24"
     style="fill:#ffffff;stroke:none;stroke-width:2;stroke-linecap:round;stroke-linejoin:round;stroke-miterlimit:5;stroke-opacity:1;paint-order:markers stroke fill"
     d="m 68.667,5 -1.333998,1.333 v 6.334 L 68.667,14 H 73 l 1.333,-1.333 V 6.333 L 73,5 Z m 0.666002,2 H 72.333 v 5 h -2.999998 z" /><path
     style="fill:#ffffff;stroke:none;stroke-width:2;stroke-linecap:round;stroke-linejoin:round;stroke-miterlimit:5;stroke-opacity:1;paint-order:markers stroke fill"
     d="m 96.333,4.9999997 h 5.99999 v 2 H 98.333 v 1.667 h 1.99999 V 10.333 H 98.333 V 12 h 3.99999 v 2 H 96.333 Z"
     id="path25" /><path
     style="fill:#ffffff;stroke:none;stroke-width:2;stroke-linecap:round;stroke-linejoin:round;stroke-miterlimit:5;stroke-opacity:1;paint-order:markers stroke fill"
     d="M 103.33299,14 V 4.9999998 h 2 v 3.667 h 3 v -3.667 h 2 V 14 h -2 v -3.667 h -3 V 14 Z"
     id="path26" /><path
     id="path27"
     style="fill:#ffffff;stroke:none;stroke-width:2;stroke-linecap:round;stroke-linejoin:round;stroke-miterlimit:5;stroke-opacity:1;paint-order:markers stroke fill"
     d="m 111.333,5 v 9 h 2 v -3.667 h 1 v 2.334 L 115.667,14 H 120 l 1.333,-1.333 V 6.333 L 120,5 h -4.333 l -1.334,1.333 v 2.334 h -1 V 5 Z m 5,2 h 3 v 5 h -3 z" /></svg>
