<svg xmlns="http://www.w3.org/2000/svg" xml:space="preserve" width="150" height="19" viewBox="0 0 150 19"><path d="M89.333 14h-2V5h2l2 2 2-2h2v9h-2V7.667l-2 2-2-2zM44.667 5l-1.334 1.333V14h2v-3h3v3h2V6.333L49 5zm.666 2h3v2h-3zm30-2h6v2h-4v1.667h2v1.666h-2V12h4v2h-6zm-47 9V5h6v2h-4v7zm6 0v-1.333l1-1V5h7v9h-2V7h-3v5.333L35.667 14Zm17-9v9H57l1.333-1.333V10l-.666-.667.666-.666V6.333L57 5Zm2 2h3v1.667h-3zm0 3.333h3V12h-3zm6 3.667V5h2v3.667h3V5h2v9h-2v-3.667h-3V14Zm9.334-9-1.334 1.333v6.334L68.667 14H73l1.333-1.333V6.333L73 5Zm.666 2h3v5h-3zm27-2h6v2h-4v1.667h2v1.666h-2V12h4v2h-6Zm7 9V5h2v3.667h3V5h2v9h-2v-3.667h-3V14Zm8-9v9h2v-3.667h1v2.334L115.667 14H120l1.333-1.333V6.333L120 5h-4.333l-1.334 1.333v2.334h-1V5Zm5 2h3v5h-3z" style="fill:#fff;stroke:none;stroke-width:2;stroke-linecap:round;stroke-linejoin:round;stroke-miterlimit:5;stroke-opacity:1;paint-order:markers stroke fill"/></svg>