<?xml version="1.0" encoding="UTF-8" standalone="no"?>
<!-- Created with Inkscape (http://www.inkscape.org/) -->

<svg
   width="150"
   height="19"
   viewBox="0 0 150 18.999999"
   version="1.1"
   id="svg1"
   xml:space="preserve"
   xmlns="http://www.w3.org/2000/svg"
   xmlns:svg="http://www.w3.org/2000/svg"><defs
     id="defs1" /><path
     style="fill:#ffffff;stroke:none;stroke-width:2;stroke-linecap:round;stroke-linejoin:round;stroke-miterlimit:5;stroke-opacity:1;paint-order:markers stroke fill"
     d="M 25,14 H 23 V 5.0000001 h 2 l 2,2 2,-2 h 2 V 14 H 29 V 7.6666668 l -2,2 -2,-2 z"
     id="path3" /><path
     id="path4"
     style="fill:#ffffff;stroke:none;stroke-width:2;stroke-linecap:round;stroke-linejoin:round;stroke-miterlimit:5;stroke-opacity:1;paint-order:markers stroke fill"
     d="M 107.333,4.9999998 106,6.3329999 V 14 h 2 v -3 h 3 v 3 h 2 V 6.3329999 L 111.667,4.9999998 Z M 108,6.9999999 h 3 v 2 h -3 z" /><path
     style="fill:#ffffff;stroke:none;stroke-width:2;stroke-linecap:round;stroke-linejoin:round;stroke-miterlimit:5;stroke-opacity:1;paint-order:markers stroke fill"
     d="M 78,4.9999998 H 76 V 14 h 2 z"
     id="path5" /><path
     style="fill:#ffffff;stroke:none;stroke-width:2;stroke-linecap:round;stroke-linejoin:round;stroke-miterlimit:5;stroke-opacity:1;paint-order:markers stroke fill"
     d="m 39,5 h 2 l 3,2.9999999 V 5 h 2 v 9 H 44 V 10.667 L 41,7.6670001 V 14 h -2 z"
     id="path6" /><path
     style="fill:#ffffff;stroke:none;stroke-width:2;stroke-linecap:round;stroke-linejoin:round;stroke-miterlimit:5;stroke-opacity:1;paint-order:markers stroke fill"
     d="m 32,5.0000004 h 6 v 2 h -4 v 1.6669995 h 2 V 10.333 H 34 V 12 h 4 v 2 h -6 z"
     id="path8" /><path
     style="fill:#ffffff;stroke:none;stroke-width:2;stroke-linecap:round;stroke-linejoin:round;stroke-miterlimit:5;stroke-opacity:1;paint-order:markers stroke fill"
     d="m 79,4.9999998 h 2 l 3,2.9999999 V 4.9999998 h 2 V 14 H 84 V 10.667 L 81,7.6669999 V 14 h -2 z"
     id="path9" /><path
     style="fill:#ffffff;stroke:none;stroke-width:2;stroke-linecap:round;stroke-linejoin:round;stroke-miterlimit:5;stroke-opacity:1;paint-order:markers stroke fill"
     d="M 48.333,14 47,12.667 V 5.0000002 h 2 V 12 h 3 V 5.0000002 h 2 V 12.667 L 52.667,14 Z"
     id="path10" /><path
     id="path12"
     style="fill:#ffffff;stroke:none;stroke-width:2;stroke-linecap:round;stroke-linejoin:round;stroke-miterlimit:5;stroke-opacity:1;paint-order:markers stroke fill"
     d="m 60,5 v 9 h 2 v -3 h 3.667 L 67,9.6679688 V 6.3339844 L 65.667,5 Z m 2,2 h 3 v 2 h -3 z" /><path
     id="path13"
     style="fill:#ffffff;stroke:none;stroke-width:2;stroke-linecap:round;stroke-linejoin:round;stroke-miterlimit:5;stroke-opacity:1;paint-order:markers stroke fill"
     d="m 68,5 v 9 h 2 v -3 h 2.333 L 72.999995,11.667 73,14 h 2 V 11 L 74.333,10.3333 75,9.667 V 6.333 L 73.667,5 Z m 2,2 h 3 v 2 h -3 z" /><path
     style="fill:#ffffff;stroke:none;stroke-width:2;stroke-linecap:round;stroke-linejoin:round;stroke-miterlimit:5;stroke-opacity:1;paint-order:markers stroke fill"
     d="m 93.99999,11 h -2 v 1 H 89 V 7 h 2.99999 v 0.9999999 h 2 L 94,6.333 92.667,5 H 88.333 L 87,6.333 v 6.334 L 88.333,14 h 4.334 l 1.33299,-1.333 z"
     id="path14" /><path
     style="fill:#ffffff;stroke:none;stroke-width:2;stroke-linecap:round;stroke-linejoin:round;stroke-miterlimit:5;stroke-opacity:1;paint-order:markers stroke fill"
     d="m 96.99999,5 h -2 v 9 h 2 z"
     id="path15" /><path
     id="path16"
     style="fill:#ffffff;stroke:none;stroke-width:2;stroke-linecap:round;stroke-linejoin:round;stroke-miterlimit:5;stroke-opacity:1;paint-order:markers stroke fill"
     d="m 97.99999,5 v 9 h 2 v -3 h 3.66701 l 1.33299,-1.3320312 V 6.3339844 L 103.667,5 Z m 2,2 h 3 v 2 h -3 z" /><path
     style="fill:#ffffff;stroke:none;stroke-width:2;stroke-linecap:round;stroke-linejoin:round;stroke-miterlimit:5;stroke-opacity:1;paint-order:markers stroke fill"
     d="m 119.99999,14 v -2 h -4 V 5 h -2 v 9 z"
     id="path17" /><path
     style="fill:#ffffff;stroke:none;stroke-width:2;stroke-linecap:round;stroke-linejoin:round;stroke-miterlimit:5;stroke-opacity:1;paint-order:markers stroke fill"
     d="m 121,5.0000006 h 6 v 2 h -4 V 8.667 h 2 v 1.666 h -2 V 12 h 4 v 2 h -6 z"
     id="path18" /></svg>
