<svg xmlns="http://www.w3.org/2000/svg" xml:space="preserve" width="150" height="19" viewBox="0 0 150 19"><path d="M28.333 14h-2V5h2l2 2 2-2h2v9h-2V7.667l-2 2-2-2zm82.334-9-1.334 1.333V14h2v-3h3v3h2V6.333L115 5Zm.666 2h3v2h-3zm-30-2h-2v9h2zm-39 0h2l3 3V5h2v9h-2v-3.333l-3-3V14h-2zm-7 0h6v2h-4v1.667h2v1.666h-2V12h4v2h-6zm47 0h2l3 3V5h2v9h-2v-3.333l-3-3V14h-2zm-30.666 9-1.334-1.333V5h2v7h3V5h2v7.667L56 14Zm11.666-9v9h2v-3h3.668l1.332-1.332V6.334L69.001 5Zm2 2h3v2h-3zm6-2v9h2v-3h2.334l.666.667V14h2v-3l-.666-.667.666-.666V6.333L77 5Zm2 2h3v2h-3zm24 4h-2v1h-3V7h3v1h2V6.333L96 5h-4.333l-1.334 1.333v6.334L91.667 14H96l1.333-1.333zm3-6h-2v9h2zm1 0v9h2v-3h3.668l1.332-1.332V6.334L107.001 5Zm2 2h3v2h-3zm20 7v-2h-4V5h-2v9z" style="fill:#fff;stroke:none;stroke-width:2;stroke-linecap:round;stroke-linejoin:round;stroke-miterlimit:5;stroke-opacity:1;paint-order:markers stroke fill"/></svg>