<svg xmlns="http://www.w3.org/2000/svg" xml:space="preserve" width="150" height="19" viewBox="0 0 150 19"><path d="M45 14h-2V5h2l2 2 2-2h2v9h-2V7.667l-2 2-2-2zm8.333-9L52 6.333V14h2v-3h3v3h2V6.333L57.667 5ZM54 7h3v2h-3zm8-2h-2v9h2zm1 0h2l3 3V5h2v9h-2v-3.333l-3-3V14h-2zm15 9h-2V5h2l2 2 2-2h2v9h-2V7.667l-2 2-2-2zm7-9h6v2h-4v1.667h2v1.666h-2V12h4v2h-6zm7 0h2l3 3V5h2v9h-2v-3.333l-3-3V14h-2zm9.333 9L100 12.667V5h2v7h3V5h2v7.667L105.667 14Z" style="fill:#fff;stroke:none;stroke-width:2;stroke-linecap:round;stroke-linejoin:round;stroke-miterlimit:5;stroke-opacity:1;paint-order:markers stroke fill"/></svg>