<svg xmlns="http://www.w3.org/2000/svg" xml:space="preserve" width="150" height="19" viewBox="0 0 150 19"><path d="M25 14h-2V5h2l2 2 2-2h2v9h-2V7.667l-2 2-2-2zm82.333-9L106 6.333V14h2v-3h3v3h2V6.333L111.667 5ZM108 7h3v2h-3zM78 5h-2v9h2zM39 5h2l3 3V5h2v9h-2v-3.333l-3-3V14h-2zm-7 0h6v2h-4v1.667h2v1.666h-2V12h4v2h-6zm47 0h2l3 3V5h2v9h-2v-3.333l-3-3V14h-2zm-30.667 9L47 12.667V5h2v7h3V5h2v7.667L52.667 14ZM60 5v9h2v-3h3.667L67 9.668V6.334L65.667 5Zm2 2h3v2h-3zm6-2v9h2v-3h2.333l.667.667V14h2v-3l-.667-.667.667-.666V6.333L73.667 5Zm2 2h3v2h-3zm24 4h-2v1h-3V7h3v1h2V6.333L92.667 5h-4.334L87 6.333v6.334L88.333 14h4.334L94 12.667zm3-6h-2v9h2zm1 0v9h2v-3h3.667L105 9.668V6.334L103.667 5Zm2 2h3v2h-3zm20 7v-2h-4V5h-2v9zm1-9h6v2h-4v1.667h2v1.666h-2V12h4v2h-6z" style="fill:#fff;stroke:none;stroke-width:2;stroke-linecap:round;stroke-linejoin:round;stroke-miterlimit:5;stroke-opacity:1;paint-order:markers stroke fill"/></svg>