<svg xmlns="http://www.w3.org/2000/svg" xml:space="preserve" width="150" height="19" viewBox="0 0 150 19"><path d="M50 17.333h14v-2h-6v-4h4v-2h-4v-3h5v-2H51v2h5v3h-4v2h4v4h-6zm8-14v-.666l-1.333-1.334h-2.004l.003.667L56 3.333zM75.33 18h-1.663v-4l-4 4h-2v-1l3.666-3H67v-2h6.667v-1h1.663v1H82v2h-4.333l3.666 3v1h-2l-4.003-4Z" style="fill:#fff;stroke:none;stroke-width:2;stroke-linecap:round;stroke-linejoin:round;stroke-miterlimit:5;stroke-opacity:1;paint-order:markers stroke fill"/><path d="M67.667 8.334h13.667v-2H67.667Z" style="fill:#fff;stroke:none;stroke-width:2.05067;stroke-linecap:round;stroke-linejoin:round;stroke-miterlimit:5;stroke-opacity:1;paint-order:markers stroke fill"/><path d="M67 4.667h4v1h2v-1h3v1h2v-1h4v-2h-4v-1h-2v1h-3v-1h-2v1h-4zM71.67 11v-.666L70.337 9h-2.004l.003.667L69.67 11zm4.334-.333V10l-1.333-1.333h-2.004l.003.667 1.334 1.333zm1.329.333v-.667L78.666 9h2.004l-.003.667L79.333 11ZM87 4v8h4.668v1H85v2h6.668v3h1.664v-3H100v-2h-6.668v-1H98V4Zm2 2h2.667v1H89Zm4.333 0H96v1h-2.667ZM89 9h2.667v1H89Zm4.333 0H96v1h-2.667zM94 3.667V3l1.333-1.333h2.004l-.003.667L96 3.667zm-3 0V3l-1.333-1.333h-2.004l.003.667L89 3.667z" style="fill:#fff;stroke:none;stroke-width:2;stroke-linecap:round;stroke-linejoin:round;stroke-miterlimit:5;stroke-opacity:1;paint-order:markers stroke fill"/></svg>